<?xml version="1.0" encoding="UTF-8"?>
<svg id="Capa_2" data-name="Capa 2" xmlns="http://www.w3.org/2000/svg" xmlns:xlink="http://www.w3.org/1999/xlink" viewBox="0 0 1991.64 237.86">
  <defs>
    <style>
      .cls-1 {
        fill: #fff;
      }

      .cls-2 {
        clip-path: url(#clippath);
      }
    </style>
    <clipPath id="clippath">
      <path class="cls-1" d="M554.21,177.53c18.53,33.68,50.86,54.82,86,60.33-1.28-36.89-31.05-74.04-76.1-90.26-7.58-2.73-15.19-4.7-22.74-6,2.29,12.28,6.5,24.41,12.85,35.94M658.6,147.27c-1.52,33.22,8.92,64.2,27.48,88.78,10.25-2.46,20.36-6.3,30.03-11.67,57.59-31.96,78.47-104.76,46.64-162.6-6.86-12.46-15.61-23.2-25.68-32.07-44.38,20.8-76.06,65.02-78.46,117.57M600.84,14.93c-36.07,20.02-57.73,56.06-61.07,94.41,9.28,1.35,18.86,1.69,28.62.83,59.47-5.21,105.25-51.75,110.77-108.34-6.86-1.22-13.83-1.84-20.84-1.84-19.48,0-39.23,4.8-57.48,14.93"/>
    </clipPath>
  </defs>
  <g id="Capa_1-2" data-name="Capa 1">
    <g>
      <g>
        <polygon class="cls-1" points="88.83 167.62 88.83 193.54 0 193.54 0 43.69 28.03 43.69 28.03 167.62 88.83 167.62"/>
        <path class="cls-1" d="M248.18,164.62h-74.04l-12.41,28.9h-29.76L198.76,43.68h25.04l66.56,149.84h-29.75l-12.43-28.9ZM238.34,141.73l-27.2-63.58-27.16,63.58h54.36Z"/>
        <path class="cls-1" d="M470.86,195.66c-41.09,0-77.69-31.66-77.69-77.04s36.59-77.05,77.69-77.05c19.69,0,37.04,6.41,50.09,17.75l-16.91,19.27c-8.57-6.42-19.92-10.7-31.48-10.7-27.81,0-50.28,21.18-50.28,50.73s22.47,50.71,50.28,50.71c11.79,0,23.57-4.49,32.34-11.55l16.89,19.69c-13.48,11.77-31.03,18.19-50.93,18.19"/>
        <polygon class="cls-1" points="947.13 43.69 947.13 193.54 925.73 193.54 847.6 93.15 847.6 193.54 819.56 193.54 819.56 43.69 841.18 43.69 919.1 144.29 919.1 43.69 947.13 43.69"/>
        <path class="cls-1" d="M1092.45,72.16l-20.77,12.2c-7.9-11.78-16.27-18.41-28.88-18.41s-20.78,7.27-20.78,17.32c0,8.78,5.57,13.93,18.42,18.64l10.27,3.85c31.91,11.34,45.8,25.25,45.8,46.88,0,28.88-27.6,44.08-53.07,44.08-26.77,0-47.72-15.83-54.58-36.81l21.61-11.35c5.36,11.99,15.43,22.69,32.97,22.69,13.25,0,23.97-6.42,23.97-19.06,0-11.56-7.7-16.91-24.41-23.1l-9.6-3.41c-22.27-8.14-39.18-19.06-39.18-43.69s21.81-40.87,48.59-40.87,42.16,16.26,49.65,31.03"/>
        <polygon class="cls-1" points="1223.48 69.59 1184.95 69.59 1184.95 193.52 1156.93 193.52 1156.93 69.59 1118.6 69.59 1118.6 43.68 1223.48 43.68 1223.48 69.59"/>
        <path class="cls-1" d="M1350.38,164.62h-74.06l-12.39,28.9h-29.77l66.78-149.84h25.05l66.56,149.84h-29.74l-12.42-28.9ZM1340.54,141.73l-27.19-63.58-27.17,63.58h54.37Z"/>
        <polygon class="cls-1" points="1554.17 43.69 1554.17 193.54 1532.76 193.54 1454.63 93.15 1454.63 193.54 1426.61 193.54 1426.61 43.69 1448.22 43.69 1526.14 144.29 1526.14 43.69 1554.17 43.69"/>
        <path class="cls-1" d="M1671.25,195.66c-41.1,0-77.71-31.66-77.71-77.04s36.61-77.05,77.71-77.05c19.69,0,37.03,6.41,50.08,17.75l-16.91,19.27c-8.56-6.42-19.9-10.7-31.47-10.7-27.83,0-50.29,21.18-50.29,50.73s22.46,50.71,50.29,50.71c11.78,0,23.57-4.49,32.32-11.55l16.91,19.69c-13.5,11.77-31.03,18.19-50.94,18.19"/>
        <rect class="cls-1" x="1763.91" y="43.69" width="28.02" height="149.84"/>
        <path class="cls-1" d="M1949.45,164.62h-74.04l-12.42,28.9h-29.75l66.79-149.84h25.06l66.55,149.84h-29.75l-12.43-28.9ZM1939.62,141.73l-27.21-63.58-27.14,63.58h54.35Z"/>
      </g>
      <g>
        <path class="cls-1" d="M554.21,177.53c18.53,33.68,50.86,54.82,86,60.33-1.28-36.89-31.05-74.04-76.1-90.26-7.58-2.73-15.19-4.7-22.74-6,2.29,12.28,6.5,24.41,12.85,35.94M658.6,147.27c-1.52,33.22,8.92,64.2,27.48,88.78,10.25-2.46,20.36-6.3,30.03-11.67,57.59-31.96,78.47-104.76,46.64-162.6-6.86-12.46-15.61-23.2-25.68-32.07-44.38,20.8-76.06,65.02-78.46,117.57M600.84,14.93c-36.07,20.02-57.73,56.06-61.07,94.41,9.28,1.35,18.86,1.69,28.62.83,59.47-5.21,105.25-51.75,110.77-108.34-6.86-1.22-13.83-1.84-20.84-1.84-19.48,0-39.23,4.8-57.48,14.93"/>
        <g class="cls-2">
          <rect class="cls-1" x="539.78" y="0" width="254.8" height="237.86"/>
        </g>
      </g>
    </g>
  </g>
</svg>