<?xml version="1.0" encoding="UTF-8"?>
<svg id="Capa_2" data-name="Capa 2" xmlns="http://www.w3.org/2000/svg" viewBox="0 0 712.62 256.44">
  <defs>
    <style>
      .cls-1 {
        fill: #fff;
      }
    </style>
  </defs>
  <g id="Capa_1-2" data-name="Capa 1">
    <path class="cls-1" d="M435.53,34.58c4.48-6.22,8.76-11.53,14.1-15.85C464.62,6.6,481.94.61,501.06.2c16.37-.35,32.76-.21,49.12.13,11.39.25,22.15,3.3,32.16,8.9,14.76,8.28,20.43,21.45,20.11,37.62-.24,11.68-.51,11.68-12.06,11.67-22-.02-44-.04-66-.08-4.93,0-9.74.61-14.34,2.5-10.42,4.28-13.27,13.26-14.37,23.27-.31,2.91-.18,5.86-.37,8.79-.14,2.19.65,2.96,2.92,2.95,23.34-.11,42-.22,65.34-.13,15.24.06,30.57-1.19,45.63,2.4,10.27,2.45,19.67,6.71,27.46,13.95,9.58,8.9,12.34,20.43,12.11,32.96-.06,3.29-.62,6.56-.82,9.85-.13,2.23-1.24,2.85-3.32,2.82-7.33-.11-14.67-.11-22-.1-42.77.02-80.87.09-123.63,0-3.36,0-4.37.88-4.24,4.25.53,13.62,9.87,25.53,24,30.15,5.72,1.87,11.56,2.86,17.63,2.85,27.74-.09,55.48.11,83.22-.11,12.95-.1,25.89-.17,38.83.23,12.07.37,23.41,3.51,33.84,9.63,15.85,9.3,21.1,23.86,20.24,41.37q-.5,10.05-10.34,10.06c-30.79.06-61.58.19-92.38.19-31.16,0-62.33.45-93.47-.38-32.67-.87-59.62-13.72-78.16-41.66-1.75-2.64-3.22-5.48-4.7-8.28-1.46-2.78-2.79-5.63-4.35-8.83-2.5,5.66-4.5,11.04-7.51,15.95-13.96,22.82-34.89,35.25-60.55,40.59-7.79,1.62-15.71,2.33-23.66,2.37-19.18.12-38.37.08-57.55.29-4.28.05-6.9-1.34-9.01-5.28-7.78-14.52-15.99-28.82-23.94-43.26-1.07-1.94-2.21-2.77-4.53-2.75-42.4.32-84.8.59-127.21.73-3.18,0-4.97.99-6.74,3.68-14.73,22.3-35.79,35.49-61.31,42.18-13.23,3.47-26.66,4.8-40.3,4.19-6.46-.29-8.53-3.97-5.37-9.47,32.96-57.26,65.92-114.52,98.91-171.77,6.04-10.47,11.64-21.21,18.37-31.27C137.01,16.02,162.83,2.33,195.52,1.37c4.88-.14,9.74.04,14.61.78,3.53.54,5.99,1.93,7.77,5.14,10.63,19.24,21.39,38.41,32.1,57.6,21.8,39.02,43.61,78.03,65.36,117.08.9,1.61,1.93,2.23,3.75,2.18,4.15-.12,8.31,0,12.46-.04,7.02-.06,12.42-3.19,16.39-8.86,4.54-6.48,6.93-13.69,7.02-21.62.34-29.2.63-58.41,1.07-87.61.05-3.04-.44-4.25-3.88-4.19-21.62.37-43.26-.41-64.88.47-4.9.2-9.62,1-13.23,5.14-1.86,2.13-2.05-.67-2.32-1.57-2.06-6.59-2.95-13.38-2.42-20.26,1.76-22.88,13.19-35.84,37.25-42.57,7.95-2.22,16.06-2.98,24.28-2.98,32.38.02,64.76,0,97.15,0,6.05,0,7.53,1.52,7.53,7.63,0,8.66,0,17.33,0,26.9M178.35,85.47c-12.73,22.69-25.04,44.63-37.45,66.76h74.84c-12.51-22.34-24.76-44.2-37.38-66.76"/>
  </g>
</svg>