<?xml version="1.0" encoding="UTF-8"?>
<svg id="Capa_2" data-name="Capa 2" xmlns="http://www.w3.org/2000/svg" viewBox="0 0 1965.33 662.57">
  <defs>
    <style>
      .cls-1 {
        fill: #fff;
      }
    </style>
  </defs>
  <g id="Capa_1-2" data-name="Capa 1">
    <g>
      <g>
        <path class="cls-1" d="M499.44,424.35c11.68,4.45,15.58,13.05,15.5,25.29-.3,42.84.72,85.7.02,128.53-.62,38.22-26.47,69.95-63.61,80.54-36.47,10.4-74.01-3.65-95.22-35.64-21.4-32.28-19.84-72.88,3.96-102.7,24.08-30.18,64.81-40.72,101.38-26.24,3.58,1.42,7.17,2.79,12.71,4.95,0-14.15-.16-26.6.06-39.05.12-6.82-.89-14.47,1.85-20.2,2.91-6.11,9.65-10.39,14.71-15.47,2.88,0,5.77,0,8.65,0ZM428.51,621.18c24.86-.16,45.78-21.5,45.63-46.54-.15-25.38-21.19-46.29-46.15-45.88-25.84.43-45.58,20.62-45.39,46.45.19,25.54,20.75,46.13,45.91,45.96Z"/>
        <path class="cls-1" d="M0,441.64c4.84-11.45,13.91-15.18,25.79-15.12,45.71.21,91.42.02,137.13.18,4.59.02,9.43.63,13.71,2.19,8.86,3.23,12.59,10.29,12,19.56-.56,8.85-4.91,15.82-13.73,17.02-12.03,1.63-24.31,1.55-36.5,1.98-7.17.25-14.35.05-23.19.05,0,4.89,0,9.05,0,13.21,0,50.39.05,100.78-.05,151.17-.02,11-.55,22.03-13.52,26.58-12.18,4.27-23.66-1.84-26.43-14.44-.91-4.16-.98-8.56-.98-12.86-.06-49.67-.04-99.34-.04-149.01,0-4.29,0-8.59,0-14.66-16.38,0-32.07-.02-47.76,0-12.57.02-22.65-3.73-26.42-17.2v-8.65Z"/>
        <path class="cls-1" d="M1420,651.07s-13.16-7.85-23.62-22.16c-4.96-6.79-4.36-16.08,2.53-22.81,6.85-6.7,15.15-6.33,23.03-2.35,5.05,2.55,9.4,6.52,14.01,9.93,10.43,7.71,21.97,11.3,34.42,6.67,4.14-1.54,8.97-6.03,9.83-9.97.63-2.87-3.99-8.48-7.58-10.37-9.5-5-19.98-8.13-29.58-12.98-10.18-5.15-21.13-9.97-29.39-17.51-21.65-19.75-18.56-53.9,5.99-69.89,26.98-17.57,55.18-16.22,82.96-1.73,5.07,2.64,9.3,8.04,12.36,13.11,4.92,8.16,2.45,16.02-4.13,22.48-6.22,6.11-13.49,6.91-20.66,2.15-11.83-7.85-24.72-9.77-38.21-7.02-3.63.74-8.69,4.04-9.37,7.01-.69,3.03,2.32,8.37,5.29,10.44,5.18,3.61,11.5,5.66,17.46,8.07,10.64,4.31,21.83,7.51,31.97,12.77,16.78,8.71,27.28,22.52,26.72,42.26-.31,11.01-3.37,20.69-9.02,28.61-6.39,8.95-14.27,13.16-18.92,15.6-25.42,13.31-56.32,8.46-76.1-2.31Z"/>
        <path class="cls-1" d="M1628.05,424.35c8.64,3.71,15.89,8.77,16.41,19.23.5,10.13-3.97,17.31-13.72,20.82-25.9,9.33-27.94,12.75-23.99,40.53,10.9,6.17,30.66,1.4,30.84,20.62.17,18.56-14.1,24.14-31.83,23.78,0,8.64,0,16.11,0,23.58-.01,20.9.38,41.8-.16,62.68-.47,18.03-12.21,27.57-26.92,23.03-9.08-2.81-13.72-9.04-13.87-18.34-.43-26.28-1-52.57-.73-78.85.09-8.59-1.67-13.58-11-14.65-3.74-.43-7.56-2.51-10.76-4.7-10.49-7.19-9.21-24.73,2.43-30.66,5.37-2.74,11.52-3.93,18.77-6.3-1.59-38.03,8.32-70.22,51.57-80.76h12.97Z"/>
        <path class="cls-1" d="M1965.33,512.99c-4.16,11.26-12.3,16.28-24.18,18.31-35.28,6.04-48.6,22.52-48.7,58.27-.05,15.47.16,30.95-.07,46.42-.22,15.23-8.02,24.09-20.46,23.84-12.57-.25-20.7-9.06-20.36-24.09.58-25.38-.19-51.1,3.68-76.04,6.04-38.85,41.64-67.66,81.11-69.85,13.5-.75,23.98,2.97,28.97,16.65v6.49Z"/>
        <path class="cls-1" d="M1702.03,592.89c10.71,25.08,36.82,34.84,60.17,23.97,3.25-1.51,6.25-3.55,9.38-5.31,12.61-7.11,22.47-6.07,28.8,3.02,7.72,11.1,5.66,21.78-5.99,30.96-48.94,38.56-127.07,7.94-138.51-54.28-8.45-45.96,22.66-93.03,67.37-101.94,48.33-9.63,94.63,20.04,104.92,67.23.38,1.75.73,3.52.92,5.31,2.65,25.23-2.55,31.04-27.77,31.04-32.69,0-65.39,0-99.27,0ZM1785.58,558.38c-6.53-20.37-24.07-31.15-45.94-29.6-19.83,1.41-34.84,13.12-37.35,29.6h83.29Z"/>
        <path class="cls-1" d="M1138.15,646.95c-25.23,16.45-51.61,19.84-79.44,8.65-37.71-15.15-59.84-55.23-53.14-96.31,6.43-39.45,41.89-69.88,83.39-71.55,40.21-1.62,78.12,23.94,85.52,61.79,4.57,23.36,2.99,47.93,3.97,71.97.22,5.38-.59,10.78-.59,16.18,0,11.46-6.71,18.08-16.49,21.57-9.31,3.32-15.82-1.87-20.89-9.26-.61-.89-1.31-1.72-2.32-3.03ZM1091.87,621.17c24.43.17,45.85-21.45,45.98-46.38.12-24.99-20.94-45.97-46.2-46.02-24.86-.04-45.36,20.15-45.8,45.1-.45,25.69,20.4,47.12,46.02,47.3Z"/>
        <path class="cls-1" d="M326.67,575.03c.05,47.83-38.71,87.1-85.92,87.05-48.95-.05-88.86-39.98-88.62-88.66.23-45.5,40.35-85.58,85.79-85.7,50.81-.13,88.69,37.14,88.75,87.31ZM285.97,574.71c-.25-25.5-20.9-46.06-46.17-45.96-25.34.1-45.94,20.87-45.83,46.23.11,25.1,21.37,46.43,46.05,46.19,24.87-.24,46.19-21.8,45.95-46.46Z"/>
        <path class="cls-1" d="M715.55,574.51c.04,48.09-37.49,87.08-84.28,87.55-49.59.5-90.21-38.75-90.03-86.97.18-48.19,39.32-87.39,87.24-87.37,49.06.02,87.03,37.86,87.07,86.79ZM629.08,621.18c24.74.02,45.56-21.24,45.58-46.55.02-25.45-20.49-45.88-46.04-45.87-25.32.02-45.71,20.77-45.51,46.31.2,25.33,20.89,46.08,45.97,46.1Z"/>
        <path class="cls-1" d="M1377.14,602.03c0,11.52.25,23.05-.06,34.56-.46,17.53-8.66,26.28-23.59,25.76-14.3-.5-21.79-9.44-21.83-26.25-.05-19.8.44-39.61-.23-59.39-.28-8.09-1.76-16.62-4.88-24.02-6.3-14.96-25.08-24.38-39.88-21.52-18.63,3.61-32.21,18.26-32.59,36.41-.47,22.67.16,45.36-.29,68.03-.37,18.64-9.34,27.78-24.95,26.72-11.42-.77-20.43-8.32-20.43-19.73-.02-29.8-1.23-59.86,2.2-89.34,4.73-40.65,40.04-67.93,83.03-68.26,38.79-.29,75.39,29.91,81.39,68.6,2.47,15.9,2.07,32.24,2.97,48.37-.29.02-.57.03-.86.05Z"/>
        <path class="cls-1" d="M799.77,467.48c-17.27,0-33.39.25-49.5-.07-15.21-.31-23.55-7.2-24.21-19.15-.72-13,7.45-21.16,22.63-21.54,16.56-.42,33.14-.12,49.71-.12,30.98,0,61.97-.24,92.95.1,18.75.21,28.69,15.54,20.24,30.48-4.92,8.7-13.51,10.06-22.39,10.26-7.92.18-15.85.04-23.78.05-7.54,0-15.09,0-24.48,0v12.94c0,49.36.02,98.71-.03,148.07,0,4.31.02,8.69-.67,12.92-2.03,12.4-9.89,19.02-21.34,18.42-11.27-.59-18.83-8.26-19.01-20.79-.36-25.57-.13-51.16-.14-76.73,0-30.97,0-61.93,0-94.83Z"/>
        <path class="cls-1" d="M887.76,607.11c0-11.84-1.06-23.79.19-35.5,4.96-46.71,41.31-80.11,87.98-81.7,14.63-.5,22.31,5.41,23.29,17.92,1.04,13.35-5.19,20.78-18.87,22.51-34.92,4.43-50.76,21.14-52.5,56.55-.81,16.51-.27,33.08-.43,49.62-.15,15.05-7.03,23.2-19.52,23.29-12.88.1-20.48-8.42-20.74-23.58-.17-9.71-.03-19.42-.03-29.13.21,0,.42,0,.63,0Z"/>
      </g>
      <g>
        <path class="cls-1" d="M964.07,272.57s-.03-.07-.05-.11c-3.84,3.07-8.74,6.51-14.76,9.7-6.09,3.23-11.76,5.39-16.5,6.85-7.04,2.07-20.27,4.94-36.56,2.3-14.7-2.39-25.48-8.24-31.48-12.1-4.79-3.12-14.46-10.37-20.87-23.4-1.82-3.7-3.09-7.28-3.97-10.56.01.36.03.71.03,1.08,0,17.46-14.16,31.62-31.62,31.62-12.11,0-22.62-6.81-27.93-16.8,0,0,0,0,0,0,3.67,14.56,9.03,24.86,10.67,27.91,3.18,5.92,9.48,16.37,20.15,27.04,12.46,12.47,24.52,18.82,32.04,22.77,9.8,5.14,25.19,11.77,45.11,14.76,20.39,3.06,37.4,1.08,48.38-1.05,7.66-1.19,18.47-3.75,30.25-9.7,9.54-4.81,16.79-10.38,21.92-14.97,2.49-1.67,5.3-3.88,8.09-6.8,2.69-2.81,4.79-5.7,6.45-8.44-14.59-15.25-23.05-31.88-28.01-45.16-4.19.84-8.05,2.58-11.34,5.06Z"/>
        <path class="cls-1" d="M940.45,83h-104.82V31.62c0-17.46-14.16-31.62-31.62-31.62h0c-17.46,0-31.62,14.16-31.62,31.62v166c0,.69.03,1.38.07,2.06h0c-.05,11.76.44,21.89,1.04,30.03.7,9.53,1.58,16.46,4.09,24.16.62,2.55,1.56,4.97,2.76,7.24,0,.01.01.02.01.03,0,0,0,0,0,0,5.31,9.99,15.83,16.8,27.93,16.8,17.46,0,31.62-14.16,31.62-31.62,0-.36-.02-.72-.03-1.08-.07-2.15-.35-4.24-.83-6.26,0,0,0,0,0,0-1.38-5.96-2.14-11-2.58-14.7-.99-8.29-1-15.04-1-20.66,0-1.12,0-2.17.02-3.15.08-.94.13-1.89.13-2.85v-51.38h104.82c11.02,0,20.58-6.19,25.42-15.28v-32.68c-4.84-9.09-14.4-15.28-25.42-15.28Z"/>
        <path class="cls-1" d="M1176.59,266.95c-6.33,0-12.17,2.09-16.88,5.63-.02-.04-.03-.07-.05-.11-3.84,3.07-8.74,6.51-14.76,9.7-6.09,3.23-11.76,5.39-16.5,6.85-7.04,2.07-20.27,4.94-36.56,2.3-14.7-2.39-25.48-8.24-31.48-12.1-5.72-4.21-14.21-11.67-20.87-23.4-3.51-6.18-5.64-12.02-6.97-16.82.56,2.36.86,4.81.86,7.34,0,16.98-13.39,30.83-30.18,31.58-.48.02-.96.04-1.44.04-9.49,0-18-4.2-23.79-10.82-1.59-1.82-2.99-3.82-4.14-5.97,0,0,0,0,0,0,0-.01-.01-.02-.01-.03-1.2-2.26-2.13-4.69-2.76-7.24,1.02,3.86,2.42,8.5,4.34,13.63,4.96,13.28,13.43,29.91,28.01,45.16,1.1,1.15,2.23,2.3,3.4,3.43,2.78,2.69,14.16,13.38,32.04,22.77,9.8,5.14,25.19,11.77,45.11,14.76,20.39,3.06,37.4,1.08,48.38-1.05,7.66-1.19,18.47-3.75,30.25-9.7,9.54-4.81,16.79-10.38,21.92-14.97,2.49-1.67,5.3-3.88,8.09-6.8,1.75-1.83,5.78-6.34,8.99-13.23.86-1.83,1.45-3.41,1.84-4.51.81-2.62,1.25-5.41,1.25-8.3,0-15.53-12.59-28.12-28.12-28.12Z"/>
        <path class="cls-1" d="M1133.93,83h-104.82V31.62c0-17.46-14.16-31.62-31.62-31.62h0c-17.46,0-31.62,14.16-31.62,31.62v166c0,.69.03,1.38.07,2.06h0c-.05,11.76.44,21.89,1.04,30.03.7,9.53,1.58,16.46,4.09,24.16.62,2.55,1.56,4.97,2.76,7.24,0,.01.01.02.01.03,0,0,0,0,0,0,1.15,2.15,2.55,4.15,4.14,5.97,5.79,6.63,14.3,10.82,23.79,10.82.48,0,.96-.02,1.44-.04,16.8-.75,30.18-14.6,30.18-31.58,0-2.53-.3-4.98-.86-7.34,0,0,0,0,0,0-1.38-5.96-2.14-11-2.58-14.7-.99-8.29-1-15.04-1-20.66,0-1.12,0-2.17.02-3.15.08-.94.13-1.89.13-2.85v-51.38h104.82c15.89,0,28.78-12.88,28.78-28.78v-5.69c0-15.89-12.88-28.78-28.78-28.78Z"/>
      </g>
    </g>
  </g>
</svg>