<svg width="2591" height="4222" viewBox="0 0 2591 4222" fill="none" xmlns="http://www.w3.org/2000/svg">
<g filter="url(#filter0_i_1611_2909)">
<path d="M1957.6 218.533C1907.64 168.541 1907.64 87.487 1957.6 37.4944C2007.56 -12.4981 2088.57 -12.4981 2138.54 37.4944C2188.5 87.487 2188.5 168.541 2138.54 218.533C2088.57 268.526 2007.56 268.526 1957.6 218.533Z" fill="url(#paint0_linear_1611_2909)"/>
</g>
<g filter="url(#filter1_i_1611_2909)">
<path d="M1182.5 1367.1C1221.33 1408.58 1219.21 1473.71 1177.75 1512.56L1034.64 1646.71C993.184 1685.57 928.095 1683.45 889.258 1641.97L754.53 1498.07C715.693 1456.59 717.817 1391.47 759.272 1352.61L902.385 1218.46C943.841 1179.6 1008.93 1181.72 1047.77 1223.2L1182.5 1367.1Z" fill="url(#paint1_linear_1611_2909)"/>
</g>
<g filter="url(#filter2_i_1611_2909)">
<path d="M806.663 557.083C851.197 604.648 848.763 679.33 801.225 723.889L490.482 1015.17C442.944 1059.73 368.305 1057.29 323.771 1009.73L32.6592 698.805C-11.8751 651.24 -9.4405 576.558 38.0971 531.999L348.841 240.72C396.378 196.16 471.017 198.596 515.552 246.161L806.663 557.083Z" fill="url(#paint2_linear_1611_2909)"/>
</g>
<g filter="url(#filter3_i_1611_2909)">
<path d="M1339.66 2750.55C1284.74 2715.5 1211.83 2731.64 1176.8 2786.59L1075.22 2945.96C1040.19 3000.91 1056.32 3073.87 1111.24 3108.91L1270.51 3210.55C1325.43 3245.6 1398.35 3229.46 1433.38 3174.51L1534.96 3015.14C1569.99 2960.19 1553.86 2887.23 1498.94 2852.19L1339.66 2750.55Z" fill="url(#paint3_linear_1611_2909)"/>
</g>
<g filter="url(#filter4_i_1611_2909)">
<path d="M2368.82 1953.1C2418.39 2006.04 2415.68 2089.16 2362.77 2138.75L2017.5 2462.39C1964.59 2511.99 1881.52 2509.28 1831.95 2456.34L1508.49 2110.87C1458.93 2057.93 1461.64 1974.81 1514.55 1925.22L1859.82 1601.57C1912.72 1551.98 1995.8 1554.69 2045.36 1607.63L2368.82 1953.1Z" fill="url(#paint4_linear_1611_2909)"/>
</g>
<g filter="url(#filter5_i_1611_2909)">
<path d="M1416.71 4065.53C1364.06 4042.86 1339.75 3981.78 1362.41 3929.11L1510.31 3585.2C1532.96 3532.53 1594.01 3508.2 1646.65 3530.87L1990.36 3678.86C2043.01 3701.52 2067.32 3762.6 2044.67 3815.27L1896.76 4159.18C1874.11 4211.86 1813.07 4236.18 1760.42 4213.52L1416.71 4065.53Z" fill="url(#paint5_linear_1611_2909)"/>
</g>
<g filter="url(#filter6_i_1611_2909)">
<circle cx="585.728" cy="2746.32" r="329.941" fill="url(#paint6_linear_1611_2909)"/>
</g>
<g filter="url(#filter7_i_1611_2909)">
<path d="M793.632 3806.43C793.632 3988.71 645.954 4136.47 463.785 4136.47C281.616 4136.47 133.938 3988.71 133.938 3806.43C133.938 3624.16 281.616 3476.4 463.785 3476.4C645.954 3476.4 793.632 3624.16 793.632 3806.43Z" fill="url(#paint7_linear_1611_2909)"/>
</g>
<g filter="url(#filter8_i_1611_2909)">
<path d="M1840.15 668.092C1840.15 864.727 1680.83 1024.13 1484.31 1024.13C1287.79 1024.13 1128.48 864.727 1128.48 668.092C1128.48 471.458 1287.79 312.054 1484.31 312.054C1680.83 312.054 1840.15 471.458 1840.15 668.092Z" fill="url(#paint8_linear_1611_2909)"/>
</g>
<g filter="url(#filter9_i_1611_2909)">
<path d="M1202.06 1570.37C1285.17 1574.44 1332.69 1667.01 1287.61 1736.98L1035.54 2128.23C990.458 2198.21 886.578 2193.11 848.556 2119.06L635.95 1705C597.928 1630.95 654.279 1543.49 737.383 1547.57L1202.06 1570.37Z" fill="url(#paint9_linear_1611_2909)"/>
</g>
<g filter="url(#filter10_i_1611_2909)">
<path d="M2027.12 667.114C2012.64 596.997 2079.45 537.486 2147.38 559.996L2527.02 685.793C2594.95 708.302 2613.05 795.949 2559.6 843.557L2260.9 1109.63C2207.45 1157.23 2122.54 1129.1 2108.06 1058.98L2027.12 667.114Z" fill="url(#paint10_linear_1611_2909)"/>
</g>
<g filter="url(#filter11_i_1611_2909)">
<path d="M1980.07 3291C1971.78 3386.1 1863.71 3436.56 1785.54 3381.83L1494.04 3177.74C1415.87 3123 1426.23 3004.12 1512.69 2963.75L1835.08 2813.21C1921.54 2772.84 2019.26 2841.26 2010.97 2936.37L1980.07 3291Z" fill="url(#paint11_linear_1611_2909)"/>
</g>
<defs>
<filter id="filter0_i_1611_2909" x="1920.13" y="-12.9438" width="255.881" height="268.972" filterUnits="userSpaceOnUse" color-interpolation-filters="sRGB">
<feFlood flood-opacity="0" result="BackgroundImageFix"/>
<feBlend mode="normal" in="SourceGraphic" in2="BackgroundImageFix" result="shape"/>
<feColorMatrix in="SourceAlpha" type="matrix" values="0 0 0 0 0 0 0 0 0 0 0 0 0 0 0 0 0 0 127 0" result="hardAlpha"/>
<feMorphology radius="3.59551" operator="erode" in="SourceAlpha" result="effect1_innerShadow_1611_2909"/>
<feOffset dy="-12.9438"/>
<feGaussianBlur stdDeviation="7.19101"/>
<feComposite in2="hardAlpha" operator="arithmetic" k2="-1" k3="1"/>
<feColorMatrix type="matrix" values="0 0 0 0 1 0 0 0 0 1 0 0 0 0 1 0 0 0 0.25 0"/>
<feBlend mode="normal" in2="shape" result="effect1_innerShadow_1611_2909"/>
</filter>
<filter id="filter1_i_1611_2909" x="688.366" y="1190.65" width="521.923" height="517.012" filterUnits="userSpaceOnUse" color-interpolation-filters="sRGB">
<feFlood flood-opacity="0" result="BackgroundImageFix"/>
<feBlend mode="normal" in="SourceGraphic" in2="BackgroundImageFix" result="shape"/>
<feColorMatrix in="SourceAlpha" type="matrix" values="0 0 0 0 0 0 0 0 0 0 0 0 0 0 0 0 0 0 127 0" result="hardAlpha"/>
<feMorphology radius="12.2088" operator="erode" in="SourceAlpha" result="effect1_innerShadow_1611_2909"/>
<feOffset dx="-38.3705" dy="33.1382"/>
<feGaussianBlur stdDeviation="34.8823"/>
<feComposite in2="hardAlpha" operator="arithmetic" k2="-1" k3="1"/>
<feColorMatrix type="matrix" values="0 0 0 0 1 0 0 0 0 1 0 0 0 0 1 0 0 0 0.25 0"/>
<feBlend mode="normal" in2="shape" result="effect1_innerShadow_1611_2909"/>
</filter>
<filter id="filter2_i_1611_2909" x="0.788086" y="208.831" width="881.746" height="876.227" filterUnits="userSpaceOnUse" color-interpolation-filters="sRGB">
<feFlood flood-opacity="0" result="BackgroundImageFix"/>
<feBlend mode="normal" in="SourceGraphic" in2="BackgroundImageFix" result="shape"/>
<feColorMatrix in="SourceAlpha" type="matrix" values="0 0 0 0 0 0 0 0 0 0 0 0 0 0 0 0 0 0 127 0" result="hardAlpha"/>
<feMorphology radius="14" operator="erode" in="SourceAlpha" result="effect1_innerShadow_1611_2909"/>
<feOffset dx="44" dy="38"/>
<feGaussianBlur stdDeviation="40"/>
<feComposite in2="hardAlpha" operator="arithmetic" k2="-1" k3="1"/>
<feColorMatrix type="matrix" values="0 0 0 0 1 0 0 0 0 1 0 0 0 0 1 0 0 0 0.25 0"/>
<feBlend mode="normal" in2="shape" result="effect1_innerShadow_1611_2909"/>
</filter>
<filter id="filter3_i_1611_2909" x="1056.7" y="2732.02" width="540.778" height="535.063" filterUnits="userSpaceOnUse" color-interpolation-filters="sRGB">
<feFlood flood-opacity="0" result="BackgroundImageFix"/>
<feBlend mode="normal" in="SourceGraphic" in2="BackgroundImageFix" result="shape"/>
<feColorMatrix in="SourceAlpha" type="matrix" values="0 0 0 0 0 0 0 0 0 0 0 0 0 0 0 0 0 0 127 0" result="hardAlpha"/>
<feMorphology radius="14" operator="erode" in="SourceAlpha" result="effect1_innerShadow_1611_2909"/>
<feOffset dx="44" dy="38"/>
<feGaussianBlur stdDeviation="40"/>
<feComposite in2="hardAlpha" operator="arithmetic" k2="-1" k3="1"/>
<feColorMatrix type="matrix" values="0 0 0 0 1 0 0 0 0 1 0 0 0 0 1 0 0 0 0.25 0"/>
<feBlend mode="normal" in2="shape" result="effect1_innerShadow_1611_2909"/>
</filter>
<filter id="filter4_i_1611_2909" x="1473.02" y="1566.08" width="980.245" height="974.101" filterUnits="userSpaceOnUse" color-interpolation-filters="sRGB">
<feFlood flood-opacity="0" result="BackgroundImageFix"/>
<feBlend mode="normal" in="SourceGraphic" in2="BackgroundImageFix" result="shape"/>
<feColorMatrix in="SourceAlpha" type="matrix" values="0 0 0 0 0 0 0 0 0 0 0 0 0 0 0 0 0 0 127 0" result="hardAlpha"/>
<feMorphology radius="15.582" operator="erode" in="SourceAlpha" result="effect1_innerShadow_1611_2909"/>
<feOffset dx="48.9721" dy="42.2941"/>
<feGaussianBlur stdDeviation="44.5201"/>
<feComposite in2="hardAlpha" operator="arithmetic" k2="-1" k3="1"/>
<feColorMatrix type="matrix" values="0 0 0 0 1 0 0 0 0 1 0 0 0 0 1 0 0 0 0.25 0"/>
<feBlend mode="normal" in2="shape" result="effect1_innerShadow_1611_2909"/>
</filter>
<filter id="filter5_i_1611_2909" x="1353.93" y="3522.38" width="737.928" height="733.05" filterUnits="userSpaceOnUse" color-interpolation-filters="sRGB">
<feFlood flood-opacity="0" result="BackgroundImageFix"/>
<feBlend mode="normal" in="SourceGraphic" in2="BackgroundImageFix" result="shape"/>
<feColorMatrix in="SourceAlpha" type="matrix" values="0 0 0 0 0 0 0 0 0 0 0 0 0 0 0 0 0 0 127 0" result="hardAlpha"/>
<feMorphology radius="12.3178" operator="erode" in="SourceAlpha" result="effect1_innerShadow_1611_2909"/>
<feOffset dx="38.713" dy="33.434"/>
<feGaussianBlur stdDeviation="35.1937"/>
<feComposite in2="hardAlpha" operator="arithmetic" k2="-1" k3="1"/>
<feColorMatrix type="matrix" values="0 0 0 0 1 0 0 0 0 1 0 0 0 0 1 0 0 0 0.25 0"/>
<feBlend mode="normal" in2="shape" result="effect1_innerShadow_1611_2909"/>
</filter>
<filter id="filter6_i_1611_2909" x="255.787" y="2416.38" width="703.883" height="697.882" filterUnits="userSpaceOnUse" color-interpolation-filters="sRGB">
<feFlood flood-opacity="0" result="BackgroundImageFix"/>
<feBlend mode="normal" in="SourceGraphic" in2="BackgroundImageFix" result="shape"/>
<feColorMatrix in="SourceAlpha" type="matrix" values="0 0 0 0 0 0 0 0 0 0 0 0 0 0 0 0 0 0 127 0" result="hardAlpha"/>
<feMorphology radius="14" operator="erode" in="SourceAlpha" result="effect1_innerShadow_1611_2909"/>
<feOffset dx="44" dy="38"/>
<feGaussianBlur stdDeviation="40"/>
<feComposite in2="hardAlpha" operator="arithmetic" k2="-1" k3="1"/>
<feColorMatrix type="matrix" values="0 0 0 0 1 0 0 0 0 1 0 0 0 0 1 0 0 0 0.25 0"/>
<feBlend mode="normal" in2="shape" result="effect1_innerShadow_1611_2909"/>
</filter>
<filter id="filter7_i_1611_2909" x="133.938" y="3476.4" width="703.693" height="698.072" filterUnits="userSpaceOnUse" color-interpolation-filters="sRGB">
<feFlood flood-opacity="0" result="BackgroundImageFix"/>
<feBlend mode="normal" in="SourceGraphic" in2="BackgroundImageFix" result="shape"/>
<feColorMatrix in="SourceAlpha" type="matrix" values="0 0 0 0 0 0 0 0 0 0 0 0 0 0 0 0 0 0 127 0" result="hardAlpha"/>
<feMorphology radius="14" operator="erode" in="SourceAlpha" result="effect1_innerShadow_1611_2909"/>
<feOffset dx="44" dy="38"/>
<feGaussianBlur stdDeviation="40"/>
<feComposite in2="hardAlpha" operator="arithmetic" k2="-1" k3="1"/>
<feColorMatrix type="matrix" values="0 0 0 0 1 0 0 0 0 1 0 0 0 0 1 0 0 0 0.25 0"/>
<feBlend mode="normal" in2="shape" result="effect1_innerShadow_1611_2909"/>
</filter>
<filter id="filter8_i_1611_2909" x="1128.48" y="276.054" width="711.669" height="748.078" filterUnits="userSpaceOnUse" color-interpolation-filters="sRGB">
<feFlood flood-opacity="0" result="BackgroundImageFix"/>
<feBlend mode="normal" in="SourceGraphic" in2="BackgroundImageFix" result="shape"/>
<feColorMatrix in="SourceAlpha" type="matrix" values="0 0 0 0 0 0 0 0 0 0 0 0 0 0 0 0 0 0 127 0" result="hardAlpha"/>
<feMorphology radius="10" operator="erode" in="SourceAlpha" result="effect1_innerShadow_1611_2909"/>
<feOffset dy="-36"/>
<feGaussianBlur stdDeviation="20"/>
<feComposite in2="hardAlpha" operator="arithmetic" k2="-1" k3="1"/>
<feColorMatrix type="matrix" values="0 0 0 0 1 0 0 0 0 1 0 0 0 0 1 0 0 0 0.25 0"/>
<feBlend mode="normal" in2="shape" result="effect1_innerShadow_1611_2909"/>
</filter>
<filter id="filter9_i_1611_2909" x="623.838" y="1547.43" width="719.536" height="663.497" filterUnits="userSpaceOnUse" color-interpolation-filters="sRGB">
<feFlood flood-opacity="0" result="BackgroundImageFix"/>
<feBlend mode="normal" in="SourceGraphic" in2="BackgroundImageFix" result="shape"/>
<feColorMatrix in="SourceAlpha" type="matrix" values="0 0 0 0 0 0 0 0 0 0 0 0 0 0 0 0 0 0 127 0" result="hardAlpha"/>
<feOffset dx="38.3705" dy="33.1382"/>
<feGaussianBlur stdDeviation="34.8823"/>
<feComposite in2="hardAlpha" operator="arithmetic" k2="-1" k3="1"/>
<feColorMatrix type="matrix" values="0 0 0 0 1 0 0 0 0 1 0 0 0 0 1 0 0 0 0.4 0"/>
<feBlend mode="normal" in2="shape" result="effect1_innerShadow_1611_2909"/>
</filter>
<filter id="filter10_i_1611_2909" x="2025.12" y="555.159" width="598.664" height="606.586" filterUnits="userSpaceOnUse" color-interpolation-filters="sRGB">
<feFlood flood-opacity="0" result="BackgroundImageFix"/>
<feBlend mode="normal" in="SourceGraphic" in2="BackgroundImageFix" result="shape"/>
<feColorMatrix in="SourceAlpha" type="matrix" values="0 0 0 0 0 0 0 0 0 0 0 0 0 0 0 0 0 0 127 0" result="hardAlpha"/>
<feOffset dx="33" dy="28.5"/>
<feGaussianBlur stdDeviation="30"/>
<feComposite in2="hardAlpha" operator="arithmetic" k2="-1" k3="1"/>
<feColorMatrix type="matrix" values="0 0 0 0 1 0 0 0 0 1 0 0 0 0 1 0 0 0 0.4 0"/>
<feBlend mode="normal" in2="shape" result="effect1_innerShadow_1611_2909"/>
</filter>
<filter id="filter11_i_1611_2909" x="1441.15" y="2801.39" width="614.313" height="641.007" filterUnits="userSpaceOnUse" color-interpolation-filters="sRGB">
<feFlood flood-opacity="0" result="BackgroundImageFix"/>
<feBlend mode="normal" in="SourceGraphic" in2="BackgroundImageFix" result="shape"/>
<feColorMatrix in="SourceAlpha" type="matrix" values="0 0 0 0 0 0 0 0 0 0 0 0 0 0 0 0 0 0 127 0" result="hardAlpha"/>
<feOffset dx="44" dy="38"/>
<feGaussianBlur stdDeviation="40"/>
<feComposite in2="hardAlpha" operator="arithmetic" k2="-1" k3="1"/>
<feColorMatrix type="matrix" values="0 0 0 0 1 0 0 0 0 1 0 0 0 0 1 0 0 0 0.4 0"/>
<feBlend mode="normal" in2="shape" result="effect1_innerShadow_1611_2909"/>
</filter>
<linearGradient id="paint0_linear_1611_2909" x1="2032.19" y1="225.78" x2="1893.74" y2="136.248" gradientUnits="userSpaceOnUse">
<stop stop-color="#601FFF"/>
<stop offset="1" stop-color="#984BFA"/>
</linearGradient>
<linearGradient id="paint1_linear_1611_2909" x1="970.443" y1="1638.07" x2="966.996" y2="1230.95" gradientUnits="userSpaceOnUse">
<stop stop-color="#834AF2"/>
<stop offset="0.600962" stop-color="#1A0BE1"/>
</linearGradient>
<linearGradient id="paint2_linear_1611_2909" x1="422.433" y1="965.894" x2="415.968" y2="296.332" gradientUnits="userSpaceOnUse">
<stop stop-color="#834AF2"/>
<stop offset="1" stop-color="#1A0BE1"/>
</linearGradient>
<linearGradient id="paint3_linear_1611_2909" x1="1091.63" y1="3018.72" x2="1514.68" y2="2943.79" gradientUnits="userSpaceOnUse">
<stop stop-color="#834AF2"/>
<stop offset="1" stop-color="#1A0BE1"/>
</linearGradient>
<linearGradient id="paint4_linear_1611_2909" x1="1941.74" y1="2407.71" x2="1934.55" y2="1663.3" gradientUnits="userSpaceOnUse">
<stop stop-color="#834AF2"/>
<stop offset="1" stop-color="#1A0BE1"/>
</linearGradient>
<linearGradient id="paint5_linear_1611_2909" x1="1582.49" y1="3600.88" x2="1823.32" y2="4137.98" gradientUnits="userSpaceOnUse">
<stop stop-color="#834AF2"/>
<stop offset="1" stop-color="#1A0BE1"/>
</linearGradient>
<linearGradient id="paint6_linear_1611_2909" x1="585.728" y1="2416.38" x2="585.728" y2="3076.26" gradientUnits="userSpaceOnUse">
<stop stop-color="#601FFF"/>
<stop offset="1" stop-color="#984BFA"/>
</linearGradient>
<linearGradient id="paint7_linear_1611_2909" x1="463.785" y1="3476.4" x2="463.785" y2="4136.47" gradientUnits="userSpaceOnUse">
<stop stop-color="#601FFF"/>
<stop offset="1" stop-color="#984BFA"/>
</linearGradient>
<linearGradient id="paint8_linear_1611_2909" x1="1707.71" y1="507.075" x2="1803.88" y2="955.613" gradientUnits="userSpaceOnUse">
<stop stop-color="#601FFF"/>
<stop offset="1" stop-color="#984BFA"/>
</linearGradient>
<linearGradient id="paint9_linear_1611_2909" x1="957.87" y1="1466.82" x2="957.87" y2="2307.17" gradientUnits="userSpaceOnUse">
<stop stop-color="#601FFF"/>
<stop offset="1" stop-color="#984BFA"/>
</linearGradient>
<linearGradient id="paint10_linear_1611_2909" x1="1993.48" y1="892.735" x2="2692.69" y2="712.214" gradientUnits="userSpaceOnUse">
<stop stop-color="#601FFF"/>
<stop offset="1" stop-color="#984BFA"/>
</linearGradient>
<linearGradient id="paint11_linear_1611_2909" x1="2081.99" y1="3105.87" x2="1297.23" y2="3076.08" gradientUnits="userSpaceOnUse">
<stop stop-color="#601FFF"/>
<stop offset="1" stop-color="#984BFA"/>
</linearGradient>
</defs>
</svg>
