<?xml version="1.0" encoding="UTF-8"?>
<svg id="Capa_2" data-name="Capa 2" xmlns="http://www.w3.org/2000/svg" viewBox="0 0 739.69 217.73">
  <defs>
    <style>
      .cls-1 {
        fill: #fff;
      }
    </style>
  </defs>
  <g id="Capa_1-2" data-name="Capa 1">
    <g>
      <path class="cls-1" d="M112.58,45.92c-4.52-.54-20.04,13.8-29.72,43.03-6.78,20.24-14.64,47.5-23.62,81.68l-.15.44c-6.43,25.74-29.67,43.76-56.24,43.76H0L45.04,56.48c5.45-19.01,13.36-33.35,23.87-43.03C78.68,4.52,89.98,0,102.75,0c15.62,0,28.49,3.49,38.51,10.36,11.59,8.05,17.44,19.79,17.44,35.22v118.47c0,2.9.59,5.01,1.82,6.38,1.18,1.38,2.85,2.06,4.91,2.06,2.31,0,4.52-.74,6.63-2.21,2.16-1.52,3.78-3.59,4.91-6.24,3.83-8.3,9.87-29.72,18.17-64.24,7.47-31.43,15.32-54.13,23.62-68.17C231.09,10.56,247.74,0,268.67,0c15.67,0,28.49,3.49,38.51,10.36,11.64,8.05,17.44,19.79,17.44,35.22v6.91c0,33.64-5.29,67.05-15.41,99.13-.05.16-.1.33-.16.49l-3.59,11.15c-4.18,13.16-2.46,27.06,4.67,38.7-8.35,8.01-19.65,12.87-32.12,12.87l3.47-176.69c-10.26.51-23.31,16.28-30.34,35.29-5.06,13.95-8.98,33.34-15.76,58-7.51,27.16-11.69,42.09-12.62,44.89-4.62,13.7-12.43,24.21-23.48,31.58-9.92,6.58-21.07,9.82-33.5,9.82-14.39,0-26.77-4.08-37.13-12.23-11.05-8.74-16.55-19.79-16.55-33.15V56.48l.5-10.56Z"/>
      <path class="cls-1" d="M514.68,168.37l-3.78-11.99c-12.53-39.85-22.07-69.43-28.35-87.92l-11.98-32.63c-7.68-20.92-27.52-35.05-49.8-35.12-.1,0-.19,0-.28,0s-.19,0-.28,0c-22.33.07-42.19,14.3-49.77,35.31l-11.82,32.79c-9.27,27.47-18.97,57.05-28.81,87.93l-3.33,10.48c-3.35,10.55-2.28,22.25,3.82,31.48,6.33,9.59,16.42,15.38,27.67,16.04l54.96-155.76,3.6-10.19,4.13-11.69,4.16,11.68,3.63,10.18,37.09,104.18-18.63-8.51c-19.31-9.79-42.9-2.07-52.7,17.24l83.58,41.44c1.96,1,4.06,1.44,6.11,1.42h0s.05,0,.08,0c.59-.01,1.17-.07,1.75-.16,10.24-1.15,19.35-6.67,25.18-15.51,5.95-9.01,7.01-20.41,3.76-30.71Z"/>
      <path class="cls-1" d="M637.6.71h-88.37c-9.43,0-17.67,7.59-18.4,16.95l-7.84,100.05c-.65,8.29,6.52,26.88,10.31,42.78l2.94,12.28c2.72,11.36-.25,23.92-8.5,33.2-.91,1.02-1.86,1.99-2.85,2.9-2.34,2.15-.83,6.04,2.34,6.04h109.72c52.02,0,97.47-41.86,101.52-93.5l.88-11.17c4.74-60.49-40.82-109.53-101.75-109.53ZM683.52,116.43c-1.92,24.51-23.5,44.39-48.19,44.39h-43.14c-13.7,0-24.03-11.17-22.96-24.83l6.07-77.52c.42-5.41,4.94-9.58,10.36-9.58h44.69c32.29,0,56.43,25.98,53.91,58.03l-.75,9.51Z"/>
    </g>
  </g>
</svg>