<?xml version="1.0" encoding="UTF-8"?>
<svg id="Capa_2" data-name="Capa 2" xmlns="http://www.w3.org/2000/svg" viewBox="0 0 476 216">
  <defs>
    <style>
      .cls-1 {
        fill: #fff;
      }
    </style>
  </defs>
  <g id="Capa_1-2" data-name="Capa 1">
    <g>
      <path class="cls-1" d="M0,160.51c3.07-.5,7.08-.93,12.19-.93,6.28,0,10.87,1.44,13.79,4.02,2.7,2.3,4.31,5.82,4.31,10.13s-1.31,7.83-3.8,10.35c-3.36,3.52-8.83,5.32-15.03,5.32-1.9,0-3.65-.07-5.11-.43v19.4H0v-47.86ZM6.35,183.86c1.39.36,3.14.5,5.25.5,7.66,0,12.33-3.66,12.33-10.35s-4.6-9.48-11.6-9.48c-2.77,0-4.89.22-5.98.5v18.83Z"/>
      <path class="cls-1" d="M38.83,160.58c3.21-.65,7.81-1.01,12.19-1.01,6.79,0,11.17,1.22,14.23,3.95,2.48,2.16,3.87,5.46,3.87,9.2,0,6.4-4.09,10.63-9.27,12.36v.22c3.8,1.29,6.06,4.74,7.23,9.77,1.61,6.75,2.77,11.43,3.8,13.29h-6.57c-.8-1.37-1.9-5.53-3.28-11.57-1.46-6.68-4.09-9.2-9.85-9.41h-5.98v20.98h-6.35v-47.78ZM45.18,182.64h6.5c6.79,0,11.09-3.66,11.09-9.2,0-6.25-4.6-8.98-11.31-9.05-3.07,0-5.25.29-6.28.57v17.68Z"/>
      <path class="cls-1" d="M84.44,159.93v48.43h-6.35v-48.43h6.35Z"/>
      <path class="cls-1" d="M94.66,200.75c2.85,1.72,7.01,3.16,11.39,3.16,6.5,0,10.29-3.38,10.29-8.26,0-4.53-2.63-7.11-9.27-9.63-8.03-2.8-12.99-6.9-12.99-13.72,0-7.54,6.35-13.15,15.91-13.15,5.04,0,8.69,1.15,10.87,2.37l-1.75,5.1c-1.61-.86-4.89-2.3-9.34-2.3-6.71,0-9.27,3.95-9.27,7.26,0,4.53,2.99,6.75,9.78,9.34,8.32,3.16,12.55,7.11,12.55,14.23,0,7.47-5.62,13.94-17.22,13.94-4.74,0-9.93-1.37-12.55-3.09l1.61-5.25Z"/>
      <path class="cls-1" d="M172.97,187.09c-.36-6.75-.8-14.87-.73-20.91h-.22c-1.68,5.68-3.72,11.71-6.2,18.4l-8.69,23.5h-4.82l-7.96-23.07c-2.34-6.83-4.31-13.08-5.69-18.83h-.15c-.15,6.04-.51,14.16-.95,21.41l-1.31,20.77h-6.06l3.43-48.43h8.1l8.39,23.42c2.04,5.96,3.72,11.28,4.96,16.31h.22c1.24-4.89,2.99-10.2,5.18-16.31l8.76-23.42h8.1l3.07,48.43h-6.2l-1.24-21.27Z"/>
      <path class="cls-1" d="M197.42,193.13l-5.11,15.23h-6.57l16.71-48.43h7.66l16.79,48.43h-6.79l-5.25-15.23h-17.44ZM213.55,188.24l-4.82-13.94c-1.1-3.16-1.82-6.04-2.55-8.84h-.15c-.73,2.87-1.53,5.82-2.48,8.77l-4.82,14.01h14.82Z"/>
      <path class="cls-1" d="M253.84,156h10.87l-23.5,60h-10.87l23.5-60Z"/>
      <path class="cls-1" d="M319.23,185.83c0,15.23-10.36,25.15-26.27,25.15h-20.95v-50.3h20.95c15.91,0,26.27,9.92,26.27,25.15ZM307.26,185.83c0-9.13-5.84-14.87-14.3-14.87h-8.98v29.75h8.98c8.54,0,14.3-5.75,14.3-14.87Z"/>
      <path class="cls-1" d="M324.19,205.01l6.2-8.55c4.45,3.45,9.85,5.25,15.84,5.25s9.85-2.16,9.85-5.6c0-3.23-3.21-4.96-10.36-5.75-13.94-1.51-20.14-6.18-20.14-15.31s8.47-15.52,20.95-15.52c7.15,0,14.16,2.08,19.34,5.75l-5.62,8.26c-3.87-2.66-8.47-4.1-13.21-4.1-5.91,0-9.78,2.08-9.78,5.32s2.77,4.74,10,5.6c13.87,1.58,20.58,6.75,20.58,15.81,0,9.56-8.69,15.95-21.53,15.95-8.32,0-16.42-2.59-22.11-7.11Z"/>
      <path class="cls-1" d="M421.48,181.23v22.42c-5.18,5.46-12.84,8.48-21.97,8.48-16.35,0-26.93-10.35-26.93-26.3s11.24-26.37,27.81-26.37c7.81,0,14.16,2.59,19.49,8.12l-7.23,7.04c-3.21-3.16-7.74-4.96-12.33-4.96-9.85,0-15.91,6.18-15.91,16.17s6.13,16.17,15.4,16.17c4.74,0,8.76-1.29,11.53-3.66v-7.69h-13.87v-9.41h24.01Z"/>
      <path class="cls-1" d="M476,160.02v50.3h-10.73l-23.14-31.11.15,13.58v17.53h-11.9v-50.3h10.73l23.14,31.26-.15-13.44v-17.82h11.9Z"/>
    </g>
    <g>
      <path class="cls-1" d="M72.45,29.53c-2.91-.35-12.9,8.87-19.13,27.67-4.36,13.01-9.42,30.54-15.2,52.52l-.09.28c-4.14,16.55-19.09,28.14-36.19,28.14H0L28.98,36.32c3.51-12.22,8.6-21.44,15.36-27.67C50.63,2.91,57.9,0,66.12,0c10.05,0,18.33,2.24,24.78,6.66,7.46,5.18,11.22,12.73,11.22,22.64v76.17c0,1.86.38,3.22,1.17,4.11.76.88,1.83,1.33,3.16,1.33,1.49,0,2.91-.47,4.27-1.42,1.39-.98,2.43-2.31,3.16-4.01,2.47-5.34,6.35-19.11,11.69-41.31,4.8-20.21,9.86-34.8,15.2-43.83C148.71,6.79,159.43,0,172.89,0c10.08,0,18.33,2.24,24.78,6.66,7.49,5.18,11.22,12.73,11.22,22.64v4.44c0,21.63-3.4,43.11-9.92,63.74-.03.11-.07.21-.1.32l-2.31,7.17c-2.69,8.46-1.58,17.4,3,24.89-5.37,5.15-12.64,8.27-20.67,8.27l2.23-113.61c-6.6.33-15,10.47-19.52,22.69-3.26,8.97-5.78,21.44-10.14,37.29-4.84,17.46-7.52,27.07-8.12,28.87-2.97,8.81-8,15.57-15.11,20.31-6.38,4.23-13.56,6.32-21.56,6.32-9.26,0-17.23-2.62-23.9-7.86-7.11-5.62-10.65-12.73-10.65-21.32V36.32l.32-6.79Z"/>
      <path class="cls-1" d="M331.2,108.26l-2.43-7.71c-8.06-25.62-14.2-44.64-18.24-56.53l-7.71-20.98c-4.94-13.45-17.71-22.53-32.05-22.58-.06,0-.12,0-.18,0s-.12,0-.18,0c-14.37.05-27.15,9.2-32.03,22.7l-7.61,21.08c-5.97,17.66-12.2,36.68-18.54,56.54l-2.14,6.74c-2.16,6.78-1.46,14.3,2.46,20.24,4.07,6.17,10.57,9.89,17.8,10.31l35.37-100.15,2.31-6.55,2.65-7.52,2.68,7.51,2.33,6.55,23.87,66.99-11.99-5.47c-12.43-6.3-27.61-1.33-33.91,11.08l53.79,26.65c1.26.64,2.61.93,3.93.91h0s.03,0,.05,0c.38,0,.76-.04,1.13-.1,6.59-.74,12.45-4.29,16.21-9.97,3.83-5.79,4.51-13.12,2.42-19.75Z"/>
      <path class="cls-1" d="M410.3.46h-56.87c-6.07,0-11.37,4.88-11.84,10.9l-5.05,64.33c-.42,5.33,4.19,17.28,6.63,27.51l1.89,7.9c1.75,7.3-.16,15.38-5.47,21.35-.58.66-1.19,1.28-1.83,1.86-1.5,1.38-.53,3.88,1.51,3.88h70.61c33.48,0,62.72-26.92,65.33-60.12l.56-7.18C478.83,31.99,449.52.46,410.3.46ZM439.85,74.86c-1.24,15.76-15.12,28.54-31.01,28.54h-27.76c-8.82,0-15.47-7.19-14.78-15.97l3.91-49.85c.27-3.48,3.18-6.16,6.67-6.16h28.76c20.78,0,36.31,16.71,34.69,37.31l-.48,6.12Z"/>
    </g>
  </g>
</svg>