<svg width="328" height="42" viewBox="0 0 328 42" fill="none" xmlns="http://www.w3.org/2000/svg">
<path d="M0 3.15762C2.11207 2.80334 4.87946 2.5022 8.39958 2.5022C12.7256 2.5022 15.8915 3.50747 17.9061 5.31873C19.7658 6.93071 20.8728 9.39296 20.8728 12.4132C20.8728 15.4335 19.9695 17.8957 18.2559 19.6583C15.9446 22.1249 12.1721 23.3782 7.89481 23.3782C6.5886 23.3782 5.37981 23.3295 4.37469 23.0771V36.6593H0V3.15762ZM4.37469 19.5033C5.3311 19.7557 6.53547 19.8575 7.99665 19.8575C13.279 19.8575 16.4981 17.2934 16.4981 12.6125C16.4981 7.93155 13.3278 5.97415 8.50142 5.97415C6.5886 5.97415 5.13185 6.12472 4.37912 6.324V19.5033H4.37469Z" fill="white"/>
<path d="M26.7532 3.20609C28.9671 2.75438 32.133 2.50195 35.1528 2.50195C39.8285 2.50195 42.8483 3.35666 44.9604 5.26977C46.6695 6.7799 47.6259 9.09158 47.6259 11.7088C47.6259 16.1861 44.8098 19.1532 41.241 20.3621V20.5127C43.8579 21.4161 45.4165 23.8341 46.2179 27.3548C47.3248 32.0844 48.1307 35.3527 48.8347 36.6591H44.3095C43.756 35.7025 43.0033 32.7841 42.0469 28.5593C41.0418 23.8828 39.2308 22.1203 35.259 21.9697H31.1367V36.6591H26.762V3.20609H26.7532ZM31.1323 18.6483H35.6088C40.2846 18.6483 43.2513 16.0842 43.2513 12.2093C43.2513 7.83388 40.0809 5.92076 35.4539 5.87205C33.3418 5.87205 31.8319 6.07133 31.1279 6.27505V18.6483H31.1323Z" fill="white"/>
<path d="M58.186 2.75439V36.6546H53.8113V2.75439H58.186Z" fill="white"/>
<path d="M65.2266 31.3228C67.1881 32.5318 70.0529 33.5371 73.0727 33.5371C77.5492 33.5371 80.1661 31.1722 80.1661 27.7534C80.1661 24.5826 78.3551 22.7758 73.7811 21.0132C68.2508 19.0514 64.8281 16.1862 64.8281 11.4078C64.8281 6.12459 69.2028 2.20093 75.7914 2.20093C79.2628 2.20093 81.7778 3.00692 83.2833 3.86162L82.0745 7.431C80.9675 6.82872 78.7049 5.82345 75.6364 5.82345C71.0093 5.82345 69.2515 8.59127 69.2515 10.903C69.2515 14.0738 71.3148 15.6326 75.9906 17.4439C81.7247 19.6581 84.6426 22.4215 84.6426 27.4036C84.6426 32.6337 80.7683 37.1596 72.7716 37.1596C69.5039 37.1596 65.9306 36.203 64.1196 34.9985L65.2266 31.3272V31.3228Z" fill="white"/>
<path d="M119.193 21.7662C118.94 17.0366 118.639 11.3548 118.688 7.12997H118.537C117.382 11.1023 115.974 15.3271 114.264 20.0081L108.278 36.4556H104.957L99.4755 20.3092C97.8682 15.5309 96.5088 11.1555 95.5524 7.12997H95.4506C95.3488 11.3548 95.0964 17.041 94.7953 22.1205L93.892 36.6593H89.7166L92.081 2.75903H97.6645L103.447 19.1578C104.855 23.3339 106.011 27.0538 106.866 30.5745H107.016C107.871 27.1557 109.079 23.4313 110.585 19.1578L116.62 2.75903H122.204L124.316 36.6593H120.043L119.188 21.7706L119.193 21.7662Z" fill="white"/>
<path d="M136.036 25.9908L132.516 36.6546H127.991L139.508 2.75439H144.79L156.356 36.6546H151.68L148.058 25.9908H136.036ZM147.15 22.572L143.829 12.816C143.077 10.6017 142.572 8.59117 142.067 6.62934H141.965C141.46 8.63989 140.907 10.7036 140.256 12.7673L136.935 22.5764H147.146L147.15 22.572Z" fill="white"/>
<path d="M174.913 0H182.404L166.212 42H158.72L174.913 0Z" fill="white"/>
<path d="M219.974 20.8805C219.974 31.5443 212.832 38.4838 201.869 38.4838H187.434V3.27271H201.869C212.832 3.27271 219.974 10.2122 219.974 20.876V20.8805ZM211.725 20.8805C211.725 14.4946 207.7 10.469 201.869 10.469H195.683V31.2919H201.869C207.753 31.2919 211.725 27.2664 211.725 20.8805Z" fill="white"/>
<path d="M223.393 34.3078L227.665 28.3204C230.734 30.734 234.453 31.9917 238.58 31.9917C242.707 31.9917 245.368 30.4816 245.368 28.068C245.368 25.8051 243.154 24.5961 238.226 24.0425C228.622 22.9841 224.345 19.7158 224.345 13.3299C224.345 6.94402 230.181 2.4668 238.779 2.4668C243.708 2.4668 248.534 3.92378 252.107 6.49231L248.233 12.2759C245.567 10.416 242.397 9.4107 239.129 9.4107C235.056 9.4107 232.39 10.8677 232.39 13.1351C232.39 15.4025 234.303 16.4565 239.28 17.0587C248.835 18.1659 253.462 21.7884 253.462 28.1256C253.462 34.8171 247.476 39.2899 238.624 39.2899C232.89 39.2899 227.307 37.4786 223.384 34.3078H223.393Z" fill="white"/>
<path d="M290.43 17.6609V33.3555C286.861 37.1773 281.579 39.2897 275.291 39.2897C264.027 39.2897 256.734 32.0447 256.734 20.8804C256.734 9.71612 264.478 2.42236 275.893 2.42236C281.273 2.42236 285.648 4.23362 289.323 8.10414L284.346 13.0331C282.132 10.8188 279.015 9.56112 275.845 9.56112C269.057 9.56112 264.881 13.8878 264.881 20.8804C264.881 27.873 269.105 32.1997 275.495 32.1997C278.763 32.1997 281.53 31.2963 283.443 29.6356V24.2549H273.888V17.6653H290.434L290.43 17.6609Z" fill="white"/>
<path d="M328 2.81641V38.0275H320.606L304.661 16.2481L304.763 25.7561V38.0275H296.567V2.81641H303.961L319.906 24.6977L319.804 15.2915V2.81641H328Z" fill="white"/>
</svg>
