<svg width="83" height="66" viewBox="0 0 83 66" fill="none" xmlns="http://www.w3.org/2000/svg">
<g filter="url(#filter0_di_2141_2427)">
<path d="M73.1377 16.1082C75.1417 18.1121 75.1416 21.362 73.1377 23.366L45.4795 51.0242C45.4611 51.0431 45.4436 51.063 45.4248 51.0818C44.9539 51.5527 44.4131 51.9113 43.8369 52.1609C41.9607 52.9751 39.6979 52.6167 38.1641 51.0828C38.1361 51.0548 38.1101 51.0252 38.083 50.9968L10.4502 23.365C8.44651 21.361 8.44639 18.1111 10.4502 16.1072C12.4541 14.1032 15.704 14.1034 17.708 16.1072L41.7959 40.1941L65.8799 16.1082C67.8838 14.1042 71.1337 14.1044 73.1377 16.1082Z" fill="white" fill-opacity="0.1"/>
</g>
<defs>
<filter id="filter0_di_2141_2427" x="0.736816" y="-3.86902" width="82.1143" height="81.9905" filterUnits="userSpaceOnUse" color-interpolation-filters="sRGB">
<feFlood flood-opacity="0" result="BackgroundImageFix"/>
<feColorMatrix in="SourceAlpha" type="matrix" values="0 0 0 0 0 0 0 0 0 0 0 0 0 0 0 0 0 0 127 0" result="hardAlpha"/>
<feOffset dy="4.10522"/>
<feGaussianBlur stdDeviation="4.10522"/>
<feComposite in2="hardAlpha" operator="out"/>
<feColorMatrix type="matrix" values="0 0 0 0 0 0 0 0 0 0 0 0 0 0 0 0 0 0 0.2 0"/>
<feBlend mode="normal" in2="BackgroundImageFix" result="effect1_dropShadow_2141_2427"/>
<feBlend mode="normal" in="SourceGraphic" in2="effect1_dropShadow_2141_2427" result="shape"/>
<feColorMatrix in="SourceAlpha" type="matrix" values="0 0 0 0 0 0 0 0 0 0 0 0 0 0 0 0 0 0 127 0" result="hardAlpha"/>
<feOffset dy="8.21045"/>
<feGaussianBlur stdDeviation="2.05261"/>
<feComposite in2="hardAlpha" operator="arithmetic" k2="-1" k3="1"/>
<feColorMatrix type="matrix" values="0 0 0 0 1 0 0 0 0 1 0 0 0 0 1 0 0 0 0.2 0"/>
<feBlend mode="normal" in2="shape" result="effect2_innerShadow_2141_2427"/>
</filter>
</defs>
</svg>
