<?xml version="1.0" encoding="UTF-8"?>
<svg id="Capa_2" data-name="Capa 2" xmlns="http://www.w3.org/2000/svg" viewBox="0 0 2176.62 757.83">
  <defs>
    <style>
      .cls-1 {
        fill: #274292;
      }

      .cls-2 {
        fill: #fff;
      }

      .cls-3 {
        fill: none;
      }

      .cls-4 {
        fill: #ffe006;
      }

      .cls-5 {
        fill: #1b448b;
      }

      .cls-6 {
        fill: #f9ae04;
      }

      .cls-7 {
        fill: #a6cae6;
      }

      .cls-8 {
        fill: #e6edf7;
      }

      .cls-9 {
        fill: #ebeef9;
      }

      .cls-10 {
        fill: #ffdc09;
      }

      .cls-11 {
        fill: #ffd002;
      }

      .cls-12 {
        fill: #1c438b;
      }
    </style>
  </defs>
  <g id="Capa_1-2" data-name="Capa 1">
    <g>
      <path class="cls-12" d="M732.56,286.49v-80.31c0-4.81,3.9-8.71,8.71-8.71h14.55c4.81,0,8.71,3.9,8.71,8.71v79.2c0,20.64,11.99,34.85,34.85,34.85s34.63-14.21,34.63-34.85v-79.2c0-4.81,3.9-8.71,8.71-8.71h14.78c4.81,0,8.71,3.9,8.71,8.71v80.09c0,36.85-21.75,61.93-66.82,61.93s-66.81-25.31-66.81-61.71h-.02Z"/>
      <path class="cls-12" d="M995.38,342.78l-65.5-89.6c-.97-1.33-3.08-.64-3.08,1v84.68c0,3.68-2.98,6.67-6.67,6.67h-18.19c-3.68,0-6.67-2.98-6.67-6.67v-134.68c0-3.71,3.01-6.72,6.72-6.72h22.3c2.13,0,4.14,1.01,5.41,2.73l64.85,87.93c.55.74,1.73.36,1.73-.57v-83.43c0-3.68,2.98-6.67,6.67-6.67h18.19c3.68,0,6.67,2.98,6.67,6.67v134.68c0,3.71-3.01,6.72-6.72,6.72h-20.29c-2.14,0-4.16-1.02-5.42-2.75h0Z"/>
      <path class="cls-12" d="M1057.11,338.34v-133.68c0-3.97,3.22-7.19,7.19-7.19h17.14c3.97,0,7.19,3.22,7.19,7.19v133.68c0,3.97-3.22,7.19-7.19,7.19h-17.14c-3.97,0-7.19-3.22-7.19-7.19Z"/>
      <path class="cls-12" d="M1157.67,340.94l-53.1-137.29c-1.15-2.98,1.05-6.18,4.24-6.18h25.07c2.56,0,4.84,1.6,5.71,4.01l37.13,102.96c.84,2.33,4.13,2.32,4.97,0l36.93-102.95c.86-2.41,3.15-4.02,5.71-4.02h25.07c3.19,0,5.38,3.2,4.24,6.18l-52.89,137.28c-1.07,2.77-3.73,4.6-6.7,4.6h-29.66c-2.97,0-5.63-1.82-6.7-4.59h-.02Z"/>
      <path class="cls-12" d="M1269.79,335.78v-128.55c0-5.39,4.37-9.75,9.75-9.75h92.09c1.62,0,2.92,1.31,2.92,2.92v21.9c0,1.62-1.31,2.92-2.92,2.92h-66.87c-1.91,0-3.46,1.55-3.46,3.46v24.37c0,1.91,1.55,3.46,3.46,3.46h65.31c1.62,0,2.92,1.31,2.92,2.92v21.9c0,1.62-1.31,2.92-2.92,2.92h-65.31c-1.91,0-3.46,1.55-3.46,3.46v26.6c0,1.91,1.55,3.46,3.46,3.46h66.87c1.62,0,2.92,1.31,2.92,2.92v21.9c0,1.62-1.31,2.92-2.92,2.92h-92.09c-5.39,0-9.75-4.37-9.75-9.75v.02Z"/>
      <path class="cls-12" d="M1481.7,343.38l-23.72-42.91c-2.57-4.65-7.47-7.54-12.79-7.54h-8.81c-3.13,0-5.66,2.53-5.66,5.66v39.76c0,3.97-3.22,7.18-7.18,7.18h-17.15c-3.97,0-7.18-3.22-7.18-7.18v-131.83c0-4.99,4.05-9.04,9.04-9.04h60.21c30.85,0,49.72,20.2,49.72,47.73s-16.42,40.18-32.41,43.95l29.58,50.08c1.64,2.78-.36,6.3-3.6,6.3h-26.4c-1.52,0-2.92-.83-3.65-2.16h0ZM1486,245.2c0-12.43-9.55-19.98-22.2-19.98h-30.26c-1.55,0-2.81,1.26-2.81,2.81v34.33c0,1.55,1.26,2.81,2.81,2.81h30.26c12.65,0,22.2-7.55,22.2-19.98h0Z"/>
      <path class="cls-12" d="M1534.61,320.94l10.93-15.34c1.82-2.55,5.4-2.91,7.77-.86,10.36,8.99,24.97,15.92,42.79,15.92s25.75-7.99,25.75-16.42c0-26.2-85.24-8.22-85.24-63.93,0-24.64,21.31-45.06,56.16-45.06,21.47,0,39.62,5.92,53.76,17.24,2.25,1.8,2.7,5.05.95,7.35l-11.21,14.76c-1.74,2.3-5.02,2.77-7.31,1.01-11.42-8.77-25.6-12.84-39.08-12.84s-21.09,5.99-21.09,14.87c0,23.53,85.01,7.77,85.01,63.04,0,27.08-19.31,47.5-59.27,47.5-26.12,0-45.49-8.07-59.13-20.23-2.02-1.8-2.38-4.82-.81-7.02h.02Z"/>
      <path class="cls-12" d="M1675.15,338.36v-133.72c0-3.96,3.21-7.17,7.17-7.17h17.18c3.96,0,7.17,3.21,7.17,7.17v133.72c0,3.96-3.21,7.17-7.17,7.17h-17.18c-3.96,0-7.17-3.21-7.17-7.17Z"/>
      <path class="cls-12" d="M1735.97,335.27v-127.52c0-5.67,4.6-10.27,10.27-10.27h48.11c46.39,0,78.58,29.53,78.58,74.14s-32.19,73.92-78.58,73.92h-48.11c-5.67,0-10.27-4.6-10.27-10.27ZM1840.74,271.61c0-26.19-15.98-46.39-46.39-46.39h-19.51c-4.06,0-7.35,3.29-7.35,7.35v77.87c0,4.06,3.29,7.35,7.35,7.35h19.51c29.3,0,46.39-21.09,46.39-46.17h0Z"/>
      <path class="cls-12" d="M1988.94,342.82l-8.12-22.37h-63.48l-8.32,22.4c-.6,1.62-2.14,2.69-3.87,2.69h-27.08c-2.9,0-4.89-2.91-3.85-5.61l53.24-137.65c1.12-2.89,3.9-4.8,7.01-4.8h29.21c3.11,0,5.89,1.91,7.01,4.81l53.03,137.64c1.04,2.7-.95,5.61-3.85,5.61h-27.06c-1.74,0-3.28-1.09-3.88-2.72h.01ZM1947,234.72l-18.87,52.08c-1.04,2.87,1.09,5.91,4.14,5.91h33.61c3.05,0,5.18-3.03,4.14-5.91l-18.87-52.08c-.7-1.94-3.45-1.94-4.15,0h0Z"/>
      <path class="cls-12" d="M2039.66,336.27v-129.53c0-5.12,4.15-9.26,9.26-9.26h49.12c46.39,0,78.58,29.53,78.58,74.14s-32.19,73.92-78.58,73.92h-49.12c-5.12,0-9.26-4.15-9.26-9.26h0ZM2144.43,271.61c0-26.19-15.98-46.39-46.39-46.39h-21.91c-2.74,0-4.95,2.22-4.95,4.95v82.65c0,2.74,2.22,4.95,4.95,4.95h21.91c29.3,0,46.39-21.09,46.39-46.17h0Z"/>
      <path class="cls-12" d="M732.64,563.94v-145.9c0-5.76,4.62-10.44,10.31-10.44h54.63c51.61,0,87.41,33.25,87.41,83.51s-35.8,83.26-87.41,83.26h-54.63c-5.69,0-10.31-4.67-10.31-10.44h0ZM849.18,491.11c0-29.5-17.78-52.26-51.61-52.26h-25.42c-2.46,0-4.45,2.02-4.45,4.51v95.25c0,2.49,1.99,4.51,4.45,4.51h25.42c32.59,0,51.61-23.75,51.61-52.01Z"/>
      <path class="cls-12" d="M902.02,490.07c0-49.63,36.3-85.19,85.93-85.19s86.17,35.55,86.17,85.19-36.29,85.19-86.17,85.19-85.93-35.56-85.93-85.19ZM1038.07,490.07c0-30.86-19.75-54.08-50.12-54.08s-49.88,23.21-49.88,54.08,19.51,54.08,49.88,54.08,50.12-23.46,50.12-54.08Z"/>
      <path class="cls-12" d="M1210.39,571.6l-73.45-101.74c-.97-1.34-3.07-.65-3.07,1.01v96.78c0,3.71-2.97,6.72-6.64,6.72h-21.78c-3.67,0-6.64-3.01-6.64-6.72v-153.27c0-3.74,3-6.78,6.69-6.78h25.98c2.13,0,4.12,1.02,5.39,2.75l72.57,99.64c.55.75,1.72.36,1.72-.57v-95.1c0-3.71,2.97-6.72,6.64-6.72h21.78c3.67,0,6.64,3.01,6.64,6.72v153.27c0,3.74-3,6.78-6.69,6.78h-23.74c-2.14,0-4.14-1.03-5.4-2.78h0Z"/>
      <path class="cls-12" d="M1342.03,565.52v-149.05c0-4.89,3.92-8.86,8.75-8.86h77.92c31.36,0,47.41,20.25,47.41,42.5,0,21-12.84,35.01-28.4,38.26,17.53,2.75,31.61,20,31.61,41.01,0,25-16.54,45.01-47.9,45.01h-80.63c-4.83,0-8.75-3.97-8.75-8.86h-.01ZM1440.3,456.36c0-10.5-7.41-18.25-19.26-18.25h-40.2c-2.07,0-3.75,1.7-3.75,3.8v28.66c0,2.1,1.68,3.8,3.75,3.8h40.2c11.85,0,19.26-7.5,19.26-18h0ZM1443.51,524.37c0-10.5-7.41-19.51-21.24-19.51h-41.44c-2.07,0-3.75,1.7-3.75,3.8v31.16c0,2.1,1.68,3.8,3.75,3.8h41.44c13.33,0,21.24-7.25,21.24-19.25h0Z"/>
      <path class="cls-12" d="M1497.83,490.07c0-49.63,36.3-85.19,85.93-85.19s86.18,35.55,86.18,85.19-36.3,85.19-86.18,85.19-85.93-35.56-85.93-85.19ZM1633.89,490.07c0-30.86-19.75-54.08-50.13-54.08s-49.88,23.21-49.88,54.08,19.51,54.08,49.88,54.08,50.13-23.46,50.13-54.08Z"/>
      <path class="cls-12" d="M1686.15,545.39l12.88-18.06c1.81-2.54,5.39-2.92,7.73-.85,11.56,10.22,28,18.17,48.12,18.17s28.64-8.89,28.64-18.27c0-29.14-94.82-9.14-94.82-71.11,0-27.41,23.71-50.12,62.47-50.12,24.12,0,44.47,6.71,60.27,19.56,2.23,1.81,2.69,5.03.96,7.32l-13.21,17.39c-1.76,2.31-5.06,2.75-7.35.96-12.77-9.98-28.73-14.61-43.88-14.61s-23.46,6.67-23.46,16.54c0,26.17,94.57,8.64,94.57,70.12,0,30.12-21.48,52.84-65.93,52.84-29.32,0-50.98-9.14-66.19-22.88-2-1.81-2.37-4.8-.81-6.99h.01Z"/>
      <path class="cls-12" d="M1834.88,490.07c0-50.62,38.27-85.19,87.66-85.19,33.07,0,53.44,16.4,65.57,34.82,1.87,2.84.79,6.68-2.26,8.18l-19.88,9.78c-2.56,1.26-5.61.38-7.22-1.99-7.64-11.26-21.04-19.67-36.21-19.67-29.87,0-51.61,22.96-51.61,54.08s21.73,54.08,51.61,54.08c15.19,0,28.62-8.24,36.25-19.66,1.59-2.37,4.63-3.28,7.2-2.03l19.77,9.56c3.08,1.49,4.18,5.37,2.28,8.22-12.29,18.44-32.44,35.03-65.5,35.03-49.38,0-87.66-34.57-87.66-85.19v-.02Z"/>
      <path class="cls-12" d="M2004.51,490.07c0-49.63,36.3-85.19,85.93-85.19s86.18,35.55,86.18,85.19-36.3,85.19-86.18,85.19-85.93-35.56-85.93-85.19ZM2140.56,490.07c0-30.86-19.75-54.08-50.13-54.08s-49.88,23.21-49.88,54.08,19.51,54.08,49.88,54.08,50.13-23.46,50.13-54.08Z"/>
    </g>
    <g>
      <path class="cls-1" d="M320.55,757.83h0C143.51,757.83,0,614.38,0,437.43V117.48c0-15.16,10.02-28.51,24.59-32.75L311.19,1.36c6.23-1.81,12.85-1.81,19.08,0l286.27,83.37c14.56,4.24,24.58,17.58,24.58,32.74v319.96c0,176.95-143.52,320.4-320.55,320.4h-.02Z"/>
      <g>
        <path class="cls-3" d="M173.97,572.96c-3.77-1.2-7.5-2.51-11.2-3.94,3.7,1.42,7.43,2.73,11.2,3.94Z"/>
        <path class="cls-3" d="M187.67,576.82c-1.54-.38-3.07-.78-4.6-1.19,1.53.41,3.06.81,4.6,1.19Z"/>
        <path class="cls-3" d="M264.85,584.38c-.08.02-.16.05-.24.07.08-.02.16-.05.24-.07Z"/>
        <path class="cls-3" d="M264.31,584.53c-.08.02-.15.05-.23.07.08-.02.15-.05.23-.07Z"/>
        <path class="cls-3" d="M265.41,584.23c-.08.02-.16.04-.24.06.08-.02.16-.04.24-.06Z"/>
        <path class="cls-3" d="M254.69,593.45c-.14.23-.27.46-.41.69.13-.23.27-.46.41-.69Z"/>
        <path class="cls-3" d="M255.75,591.61c-.06.11-.12.22-.18.32.06-.11.12-.21.18-.32Z"/>
        <path class="cls-3" d="M255.28,592.45c-.06.1-.11.2-.17.29.06-.1.11-.2.17-.29Z"/>
        <path class="cls-3" d="M110.11,560.12c2.07-2.04,3.4-4.82,4.02-8.49.2-1.19.42-2.37.64-3.55-.22,1.18-.44,2.37-.64,3.55-.62,3.68-1.96,6.45-4.02,8.49Z"/>
        <path class="cls-3" d="M265.96,584.09c-.08.02-.16.04-.24.06.08-.02.16-.04.24-.06Z"/>
        <path class="cls-3" d="M334.77,528.38c0-.19-.01-.37-.02-.56,0,.19,0,.37.02.56Z"/>
        <path class="cls-3" d="M334.82,529.29h0c-.01-.16-.02-.33-.03-.49,0,.16.02.32.03.48h0Z"/>
        <path class="cls-3" d="M346.6,536.23c-.03-.13-.05-.25-.08-.37.03.12.06.25.08.37Z"/>
        <path class="cls-3" d="M346.38,535.33c-.04-.13-.08-.26-.13-.38.05.13.09.25.13.38Z"/>
        <path class="cls-3" d="M346.51,535.81c-.03-.13-.07-.26-.1-.39.04.13.07.26.1.39Z"/>
        <path class="cls-3" d="M267.08,583.84c-.06.01-.13.03-.19.04.06-.01.13-.03.19-.04Z"/>
        <path class="cls-3" d="M266.52,583.97c-.07.02-.15.03-.22.05.07-.02.15-.03.22-.05Z"/>
        <path class="cls-3" d="M267.64,583.73s-.1.02-.15.03c.05-.01.1-.02.15-.03Z"/>
        <path class="cls-3" d="M367.21,681.41s.06-.02.09-.04c-.03.01-.06.02-.09.04Z"/>
        <path class="cls-3" d="M367.93,681.11c.23-.1.46-.2.69-.3-.23.1-.46.2-.69.3Z"/>
        <path class="cls-3" d="M362.5,678.96c0,.12.01.24.03.37-.01-.12-.02-.24-.03-.37Z"/>
        <path class="cls-3" d="M362.53,679.38c.01.08.02.17.04.25-.02-.08-.03-.17-.04-.25Z"/>
        <path class="cls-3" d="M378.94,677.11c-3.23,1-6.43,2.13-9.6,3.4-.23.09-.46.19-.68.28.23-.1.45-.19.68-.28,3.17-1.27,6.37-2.4,9.6-3.4Z"/>
        <path class="cls-3" d="M401.29,646.74c-.5,0-.8-.04-.97-.21.17.17.47.22.97.21Z"/>
        <path class="cls-3" d="M404.44,646.66c1.71,0,3.41.05,5.09.16-1.69-.11-3.38-.17-5.09-.16Z"/>
        <path class="cls-3" d="M335.48,205.41c.07-.02.13-.04.2-.07-.07.03-.13.05-.2.07Z"/>
        <path class="cls-3" d="M366.58,681.65s-.05.02-.08.03h.03s.03-.01.05-.02h0Z"/>
        <path class="cls-3" d="M335.98,205.2l-.21.09c.07-.03.14-.06.2-.09h.01Z"/>
        <path class="cls-3" d="M333.69,205.68c-.09,0-.19,0-.28-.01.09,0,.19,0,.28.01Z"/>
        <path class="cls-3" d="M267.82,583.69c.13-.03.25-.05.38-.08,2.76-.55,5.52-1.11,8.27-1.68-2.75.57-5.51,1.13-8.27,1.68-.13.03-.25.05-.38.08Z"/>
        <path class="cls-3" d="M263.73,584.71s.02,0,.03-.01h-.03Z"/>
        <path class="cls-3" d="M341.57,531.54h-.51.51c1.83.03,3.16.79,4.04,2.14-.88-1.34-2.22-2.1-4.04-2.14Z"/>
        <path class="cls-3" d="M346.71,536.77c-.03-.15-.06-.3-.09-.45.03.15.06.3.09.45Z"/>
        <path class="cls-3" d="M334.48,205.63c.07,0,.15-.02.22-.03-.07.01-.15.02-.22.03Z"/>
        <path class="cls-3" d="M335.08,514.64h0c-.2,1.56-.3,3.15-.29,4.79,0,1.6-.03,3.21-.05,4.81.02-1.6.05-3.21.05-4.81s.09-3.23.29-4.79Z"/>
        <path class="cls-3" d="M335.16,205.5c.07-.02.13-.03.2-.05-.06.02-.13.04-.2.05Z"/>
        <path class="cls-3" d="M334.82,205.58c.07-.01.14-.03.21-.04-.07.02-.14.03-.21.04Z"/>
        <path class="cls-3" d="M334.15,205.66c.07,0,.15,0,.22-.02-.07,0-.15.01-.22.02Z"/>
        <path class="cls-3" d="M329.93,205.45c.84.07,1.68.12,2.52.16-.84-.05-1.68-.09-2.52-.16Z"/>
        <path class="cls-3" d="M346.79,537.21l-.03-.18.03.18Z"/>
        <path class="cls-10" d="M116.94,527.88c.07-.39.13-.78.2-1.16.15-.84.32-1.57.54-2.2-.22.64-.39,1.37-.54,2.2-.07.39-.14.77-.2,1.16Z"/>
        <path class="cls-10" d="M116.53,532.56c.05,1.22.04,2.43-.03,3.63.07-1.2.08-2.41.03-3.63-.02-.4-.01-.81,0-1.22-.02.41-.02.81,0,1.22Z"/>
        <path class="cls-10" d="M146.94,535.58c.12.06.24.11.36.17-.12-.06-.24-.11-.36-.17Z"/>
        <path class="cls-10" d="M142.08,533.39c.06.02.11.05.17.07-.06-.02-.11-.05-.17-.07Z"/>
        <path class="cls-10" d="M144.4,534.42c.15.07.3.14.45.2-.15-.07-.3-.14-.45-.2Z"/>
        <path class="cls-10" d="M333.24,500.42c-1.64,2.64-2.73,5.49-3.52,8.47.79-2.99,1.88-5.83,3.52-8.47Z"/>
        <path class="cls-10" d="M366.17,239.39c.39,6.09.1,12.1-.75,18.02.85-5.92,1.13-11.93.75-18.02-.32-4.98-.89-9.91-1.7-14.8h0c.81,4.89,1.39,9.82,1.7,14.8Z"/>
        <path class="cls-9" d="M191.96,401.56c-2.38,2.11-1.89,4.28-1.89,4.28-.15,1.66-1.15,2.62-1.15,2.62-2.63,1.6-3.31,1.36-4.36-1.3-.89-2.26-.7-4.61-.47-6.88.38-3.73,1.35-7.34,3.62-10.49.69-.96,1.38-1.95,2.35-2.55,2.61-1.63,4.2-4.13,5.79-6.59,1.85-2.86,3.97-5.53,6.3-7.97,2.33-2.44,5.07-4.52,7.72-6.64,4.14-3.32,6.78-7.6,8.04-12.63,1.34-5.33,1.13-10.59-1.63-15.55-1.37-2.45-3.69-3.53-6.51-3.03-.88.15-1.78.18-2.68.21-4.84.17-9.65.47-14.42,1.46-2.35.49-4.81.51-7.23.65s-4.82.11-7.25.42c-1.97.25-4.09-.28-6.1-.7-4.74-.98-9.36-2.45-14.18-3.07-2.93-.37-5.84-.91-8.81-.92-1.52,0-3.05-.25-4.55-.32-3.99-.18-7.89.54-11.28,2.81-2.07,1.38-2.87,4.87-1.89,7.83,1.4,4.25,3.37,8.26,5.73,12.06,2.55,4.09,5.59,7.88,7.8,12.17,2.87,5.56,5.14,11.35,6.59,17.46,2.65,11.11,8.13,20.67,16.35,28.66,1.7,1.66,2.94,3.56,3.84,5.73.84,2,.91,3.97.37,5.92-.14.52-.32,1.04-.55,1.56-1.67,3.84-3.31,7.69-4.58,11.69-1.67,5.22-1.63,10.5-.94,15.84.38,2.99.47,6.03,1.21,8.96,1,3.95,2.34,7.73,4.08,11.27,2.62,5.32,6.14,10.12,10.85,14.22,3.16,2.75,6.58,5.22,9.78,7.95,1.9,1.62,3.85,3.19,5.56,5.01h0c2.23,1.16,4.42,2.39,6.68,3.46,5.7,2.71,11.53,4.6,17.51,5.58.37.06.75.12,1.12.17,2.62.38,5.28.58,7.96.6,3.07.02,6.17-.2,9.32-.67,2.04-.31,4.09-.57,6.14-.65.41-.02.82-.03,1.23-.03,1.92-.01,3.84.15,5.76.6,1.21.28,2.42.54,3.64.77,2.95.57,5.92,1,8.92,1.28,1.41.14,2.82.24,4.24.31,1.29.07,2.58.1,3.86.1,5.56,0,11.03-.7,16.38-2.38,7.61-2.4,14.54-6.1,21.13-10.43.98-.65,1.96-1.31,2.93-1.98h0c.81-.57,1.5-1.51,2.2-1.08,1.54,1.09,1.81,2.45,1.17,4.21-1.57,4.31-3.83,8.07-6.86,11.26-1.58,1.67-3.38,3.18-5.4,4.52-8.84,5.9-18.51,9.75-28.98,11.67-4.32.79-8.69,1.15-13.03,1.71-3.84.5-7.75-.21-11.5.95-2.4.74-4.75,1.49-6.89,2.93-3.74,2.51-4.36,6.48-3.32,10.67.7,2.81,2.58,4.61,5.25,5.66,6.13,2.41,12.48,3.76,19.04,4.37,3.11.29,6.22.78,9.34.94,5.32.26,10.52-.82,15.71-1.82.61-.12,1.23-.23,1.86-.27.87-.05,1.71.15,1.84,1.15.13.96-.51,1.45-1.44,1.57-2.3,1.03-4.73,1.6-7.19,2.13-8.88,1.9-17.91,2.56-26.93,3.26-1.22.55-2.48.98-3.84.97-3.83-.02-8.29,4.75-7.04,9.66,1.59,6.24,2.9,12.56,4.4,18.83.22.94.06,2.23,1.46,2.58.03-.05.06-.11.09-.16.13-.23.27-.46.41-.69.14-.24.28-.47.42-.71.06-.1.11-.2.17-.29.1-.17.2-.34.3-.52.06-.11.12-.21.18-.32.12-.22.24-.44.35-.67.85-1.68,2.02-3.21,3.57-4.28,1.26-.87,2.63-1.48,4.05-1.95h.02c.1-.03.21-.07.31-.1.08-.02.15-.05.23-.07.1-.03.21-.06.31-.09.08-.02.16-.05.24-.07.1-.03.21-.06.31-.08.08-.02.16-.04.24-.06.1-.03.21-.05.32-.08.08-.02.16-.04.24-.06.11-.03.23-.05.34-.08.07-.02.15-.03.22-.05.12-.03.24-.05.37-.08.06-.01.13-.03.19-.04.14-.03.27-.06.41-.09.05-.01.1-.02.15-.03.06-.01.12-.02.18-.04.13-.03.25-.05.38-.08,2.76-.55,5.52-1.11,8.27-1.68,9.83-2.05,19.61-4.32,29.18-7.42,6.03-1.95,11.86-4.29,17.5-7.02,5.64-2.73,11.08-5.87,16.32-9.4.79-.53,1.51-1.11,2.04-1.79.53-.68.88-1.47.92-2.42.16-3.84-.07-7.68-1.14-11.4-.54-1.87-1.66-2.74-3.34-2.72-.39,0-.81.05-1.25.15-.02,0-.04,0-.06.01-.24.05-.48.1-.71.16-.09.02-.18.05-.27.07-.16.04-.33.08-.49.12-.1.03-.21.06-.31.09-.15.04-.3.08-.45.12-.11.03-.22.06-.32.1-.14.04-.29.08-.43.13-.11.03-.22.07-.33.11-.14.04-.28.09-.42.14-.11.04-.22.08-.33.11-.14.05-.27.09-.41.14-.11.04-.22.08-.34.12-.13.05-.27.1-.4.15-.11.04-.22.09-.34.13-.16.06-.32.12-.48.19-1.99.79-3.98,1.58-6,2.28-.06.02-.11.04-.17.06h0s-.09.03-.13.04h-.02s-.08.02-.11.03c-.02,0-.03,0-.05.01-.03,0-.06.02-.09.02-.02,0-.04,0-.05.01-.03,0-.06.01-.09.02h-.05s-.06,0-.08.01h-.33s-.09-.01-.13-.02c-.01,0-.02,0-.03-.01-.03,0-.06-.02-.09-.03-.01,0-.03-.01-.04-.02-.03-.01-.05-.02-.07-.04-.02,0-.03-.02-.05-.03-.02-.02-.05-.03-.07-.05-.01-.01-.03-.02-.04-.04-.02-.02-.04-.04-.07-.06l-.04-.04s-.04-.06-.07-.09c-.01-.02-.02-.03-.03-.05-.03-.05-.06-.09-.09-.15h0c-.14-.27-.18-.52-.16-.76.02-.29.14-.56.31-.8.14-.21.33-.39.52-.57.47-.41,1.03-.71,1.58-1.02.79-.45,1.6-.86,2.39-1.3.23-.13.45-.25.67-.39.41-.24.73-.45,1-.64,1.04-.75,1.05-1.27.56-3.04-1.57-5.64-1.9-11.29-1.36-16.97.18-1.94.47-3.88.84-5.82.22-1.17.47-2.31.77-3.44.79-2.99,1.88-5.83,3.52-8.47.57-.93,1.21-1.83,1.93-2.7,2.16-2.62,4.04-5.47,6.04-8.22,4.68-6.44,8.8-13.19,11.93-20.45.72-1.68,1.4-3.38,2.01-5.12,1.75-4.93,3.26-9.92,4.56-14.97s2.38-10.15,3.24-15.3c.83-4.92,1.45-9.88,2.14-14.82.21-1.53.4-3.87.97-5.9,0,0,.66-4.22,1.39-4.15.29.03.57,1.41.57,1.41,0,0,.43,4.48.87,5.9,0,0,1.39,3.32,4.08,2.48s5.62-9.1,5.62-9.1c4.91-10.41,7.33-14.25,9.78-25.42,0,0,9.03-42.59,9.33-47.97.5-8.75-3.7-6.84-3.7-6.84-8.42,3.88-10.21,29.11-10.21,29.11-.1,3.2,1.3,7.25,1.3,7.25.92,2.72.75,5.49-.39,8.11-2.14,4.92-4.43,16.19-5.75,21.4h0c-.29,1.14-.92,2.12-1.78,2.96-.08.08-.17.16-.25.23-.25.21-.53.38-.85.37-.1,0-.21-.02-.32-.06-.15-.05-.27-.13-.38-.21-.28-.22-.44-.52-.49-.88-.02-.13-.02-.26-.02-.41.01-.18.02-.36.04-.53.05-.71.1-1.42.23-2.12.14-.77.33-1.52.51-2.28.11-.46.21-.91.31-1.37.04-.19.07-.39.08-.58,0-.42-.11-.81-.58-1.07-.2-.11-.4-.16-.59-.16-.22,0-.44.06-.64.17-.17.09-.33.21-.49.34-.15.13-.29.26-.43.39l-.12.12c-.1.1-.2.2-.3.31-.04.04-.08.08-.11.12-.13.14-.25.29-.36.43h0c-.12.15-.23.3-.33.46-.03.05-.06.09-.09.14-.08.12-.15.23-.22.36-.03.05-.06.1-.09.15-.09.16-.18.32-.26.49h0c-.09.18-.16.36-.24.53-.02.05-.04.1-.06.16-.05.13-.11.27-.16.41-.31.85-.53,1.78-.66,2.77-.25,1.88-1.12,3.56-2.18,5.12-.11.16-.18.35-.26.55,0,.02-.02.04-.02.06v.02c-.03.08-.06.17-.09.25,0,.01,0,.02-.01.03-.01.04-.03.08-.04.11,0,.01-.01.03-.02.04-.02.04-.03.07-.05.11,0,.01,0,.02-.01.03-.02.05-.05.09-.07.13,0,0,0,.01-.01.02-.02.04-.04.07-.07.1,0,.01-.02.02-.03.03-.02.03-.04.05-.07.08l-.03.03s-.06.05-.09.08l-.02.02s-.08.05-.13.07c-.01,0-.02.01-.04.02-.03.02-.07.03-.11.04-.02,0-.04.01-.05.01-.04,0-.08.02-.12.02h-.25c-.29-.63-.09-1.22.02-1.84.37-2.14.84-4.28,1.12-6.43.06-.5.12-.99.16-1.49.17-2.11.33-4.22.49-6.34.43-5.81.84-11.62,1.24-17.43.15-2.22.31-4.44.46-6.66.36-5.26.7-10.52,1.04-15.79.1-1.5.19-3.01.29-4.51.18-2.71.35-5.43.49-8.14,0-.07,0-.14.01-.22.02-.47.05-.94.07-1.4,0-.13.01-.26.02-.39.02-.41.04-.82.05-1.24,0-.15.01-.31.02-.46.01-.39.03-.77.04-1.16,0-.18,0-.36.01-.54,0-.36.02-.72.03-1.09v-.6c0-.34.01-.69.02-1.03v-3.25c0-.22,0-.44-.01-.67,0-.32-.01-.64-.02-.96,0-.22-.02-.45-.02-.67-.01-.32-.02-.64-.03-.95,0-.23-.02-.46-.03-.69-.02-.31-.03-.62-.05-.94-.01-.24-.03-.47-.05-.71-.02-.3-.04-.6-.06-.89-.02-.26-.04-.52-.07-.78v-.08c-.02-.23-.06-.46-.09-.69-.01-.08-.02-.16-.03-.24-.01-.09-.03-.19-.05-.28-.64-3.99-2.31-7.75-4.87-10.91-.19-.24-.38-.48-.57-.71-.21-.26-.42-.52-.63-.79-.19-.25-.38-.49-.57-.74-.2-.27-.41-.53-.61-.8-.22-.29-.43-.58-.64-.86-.17-.23-.34-.46-.51-.69-.38-.52-.76-1.05-1.13-1.57-1.9-2.69-2.97-5.64-3.31-8.83-.08-.74-.12-1.48-.12-2.24,0-1.02.08-2.03.23-3.02.06-.4.13-.79.21-1.18.12-.59.26-1.17.41-1.75.31-1.16.68-2.3,1.07-3.44,2.11-6.14,3.72-12.36,4.71-18.67.06-.39.12-.79.18-1.18.85-5.92,1.13-11.93.75-18.02-.32-4.98-.89-9.91-1.7-14.8-1.46-8.81-3.68-17.47-6.52-26-.19-.57-.4-1.14-.63-1.7-.98-2.42-2.3-4.69-3.92-6.78-.03-.04-.06-.08-.1-.12-.1-.13-.2-.25-.3-.37-.05-.06-.11-.13-.17-.19-.08-.09-.16-.19-.25-.28-.06-.07-.12-.13-.19-.2-.08-.08-.16-.17-.24-.25-.07-.07-.13-.13-.2-.19-.08-.08-.16-.16-.24-.23-.07-.06-.14-.13-.21-.19-.08-.07-.16-.15-.25-.22-.07-.06-.15-.12-.22-.18-.08-.07-.17-.14-.25-.21-.07-.06-.15-.11-.23-.17-.09-.06-.17-.13-.26-.19-.08-.06-.16-.11-.23-.16-.09-.06-.18-.12-.26-.18-.08-.05-.16-.1-.24-.15-.09-.06-.18-.11-.27-.17-.08-.05-.17-.09-.25-.14-.09-.05-.18-.1-.28-.15-.08-.05-.17-.09-.26-.13-.09-.05-.19-.1-.28-.14s-.18-.08-.27-.12c-.1-.04-.19-.09-.29-.13-.09-.04-.18-.07-.27-.11-.1-.04-.2-.08-.3-.12-.09-.03-.19-.07-.28-.1-.1-.04-.2-.07-.3-.11-.1-.03-.19-.06-.29-.09s-.21-.06-.31-.09-.2-.05-.3-.08-.2-.05-.3-.08c-.13-.03-.26-.06-.4-.09-.05,0-.09-.02-.14-.03-2.92-.56-5.96,0-8.37,1.77-.18.13-.36.27-.53.41h-.01c-.12.1-.23.2-.34.3-.08.07-.16.14-.23.21-.1.09-.19.18-.28.27-.05.05-.1.1-.15.15-.12.13-.24.26-.35.39-.02.02-.03.04-.05.05-.13.15-.25.3-.37.45-.04.05-.07.1-.11.15-.08.11-.16.21-.23.32-.04.06-.08.12-.12.18-.07.1-.13.2-.2.3-.04.06-.08.13-.12.19-.06.1-.12.21-.18.31-.04.06-.07.13-.11.19-.06.11-.12.23-.18.34-.03.06-.06.11-.08.17-.08.16-.15.33-.23.5,0,0,0,.02-.01.02-.08.18-.15.36-.22.54-.02.06-.04.11-.06.17-.05.13-.09.25-.13.38-.02.07-.04.14-.07.2-.04.12-.08.24-.11.36-.02.07-.04.14-.06.21-.03.12-.07.24-.1.37-.02.07-.04.14-.05.21-.03.14-.07.27-.1.41-.01.06-.03.11-.04.17-.04.19-.08.39-.12.59-.2,1.08-.26,1.92-.13,2.64.08.42.22.79.44,1.14.09.15.2.29.32.44.04.05.08.09.13.14.4.42.93.82,1.61,1.25.1.06.21.13.32.19.04.02.08.05.12.07.07.04.14.08.2.12.1.06.21.12.31.18.03.02.07.04.1.06.07.04.15.08.22.13.04.02.08.05.12.07.06.04.13.08.19.11.05.03.09.06.14.09.06.04.12.07.17.11.05.03.09.06.14.1s.11.07.16.11c.05.03.09.07.14.11.04.03.09.06.13.1h.02s.02.02.03.03c.05.04.09.08.13.11.02.02.04.04.06.05.03.03.07.07.1.1.92.96.67,2.05-.66,2.7h0c-.07.03-.13.06-.2.09-.04.01-.07.03-.11.05-.07.03-.13.05-.2.07-.04.01-.08.03-.12.04-.06.02-.13.04-.2.05-.04.01-.08.02-.13.03-.07.02-.14.03-.21.04-.04,0-.08.02-.12.02-.07.01-.15.02-.22.03-.04,0-.08.01-.11.02-.07,0-.15.01-.22.02h-.46c-.09,0-.19,0-.28-.01h-.06c-.3-.02-.6-.04-.9-.05-.84-.05-1.68-.09-2.52-.16-.3-.03-.6-.06-.9-.09-5.52-.67-10.45-2.61-14.39-6.65-.78-.8-1.57-1.6-2.35-2.4-.78-.81-1.55-1.62-2.28-2.46-.5-.57-1.02-1.11-1.57-1.61-1.94-1.79-4.17-3.16-6.67-4.26-7-3.1-14.03-5.96-21.63-7.39-4.51-.84-8.83-2.44-13.05-4.26-3.24-1.39-6.2-3.24-8.86-5.56-.82-.71-1.57-1.47-2.28-2.26-1.81-2.03-3.26-4.29-4.48-6.71-.47-.94-.91-1.91-1.32-2.9-.32-.78-.6-1.72-1.42-2.06-.19-.08-.41-.12-.66-.13h-.25s-.08.01-.13.02c-.02,0-.04,0-.06.01-.04.01-.08.02-.12.04-.02,0-.03.01-.05.02-.05.02-.1.04-.15.07,0,0-.01,0-.02.01-.04.02-.08.05-.12.07-.01,0-.03.02-.04.03-.03.02-.06.04-.09.07-.01.01-.03.02-.04.04-.03.03-.06.05-.09.08l-.03.03s-.08.08-.11.12c0,0-.01.02-.02.02-.03.03-.06.07-.09.11-.01.01-.02.03-.03.04-.02.03-.05.06-.07.1-.01.01-.02.03-.03.04-.03.04-.05.08-.08.12,0,0-.01.01-.01.02-.03.05-.06.1-.1.15h0s-.06.1-.09.15c-.48.78-.96,1.57-1.38,2.38-.22.41-.43.82-.64,1.23-.1.19-.2.38-.3.57-.23.45-.46.9-.69,1.35-.17.34-.35.67-.52,1.01-.11.22-.23.44-.34.66-.27.52-.54,1.04-.81,1.55-.99,1.86-2.11,3.57-3.38,5.15-.25.32-.51.63-.78.93-.53.61-1.08,1.2-1.65,1.76-.86.85-1.77,1.65-2.73,2.4-1.6,1.25-3.34,2.36-5.21,3.34-.36.18-.71.37-1.07.56-1.47.78-2.93,1.57-4.39,2.36-.93,1.7-2.35,2.89-4.07,3.75-5.08,2.56-10.39,4.71-16.03,5.24-5.26.5-10.42,1.74-15.73,1.88-2.75.08-5.51.66-8.22,1.22-1.76.36-3.55.35-5.3.82-3.58.96-6.29,2.88-8.06,6.16-3.06,5.67-4.69,11.68-4.76,18.13-.07,6.5.81,12.96.63,19.48-.24,8.63-2.1,16.73-7.06,23.96-1.04,1.52-1.49,3.24-1.99,4.93-.51,1.71.34,2.91,2.12,3.4,1.52.42,3.08.28,4.53-.07,4.28-1.04,8.72-.94,13-1.94,1.67-.39,3.38.33,5.02.73,7.86,1.91,15.5,4.54,22.95,7.65,5.65,2.35,11.37,4.4,17.44,5.29,2.92.43,5.85.89,8.84.73,4.85-.27,9.44.88,13.87,2.71,1.58.65,3.02,1.58,3.94,3.09h0c2.97,3.32,2.48,6.27.37,9.23-2.05,2.87-2.71,5.96-1.61,9.37.52,1.6.32,3.2-.53,4.66-1.68,2.9-2.16,6.02-1.88,9.29.13,1.53-.05,3.01-.45,4.5-.45,1.72-.78,3.48-.83,5.28-.22,8.77-1.73,17.37-3.44,25.95-1.35,6.8-1.49,13.65.24,20.44,1.3,5.09,4.04,9.29,8.2,12.58,6.93,5.48,15.76,5.86,23.08.9,1.63-1.11,3.11-2.44,4.74-3.55,3.24-2.21,7.34-2.08,10.33.26.42.33.85.69,1.13,1.13.53.83.1,1.84-.84,1.71-3.97-.54-6.09,2.1-8.35,4.53-2.14,2.3-4.34,4.57-6.93,6.35-2.4,1.66-3.79,3.72-4,6.6-.06.8-.23,1.58-.36,2.37.22,1.59-.31,3.04-1.07,4.34-1.31,2.25-1.82,4.59-1.6,7.17.08.98.47,2.54-.91,2.72-1.53.2-1.54-1.4-1.74-2.5-.6-3.22-4.59-6.46-7.76-6.26-.93.06-1.74.52-2.46,1.02-6.31,4.41-12.62,3.36-18.74-.21-4.02-2.35-7.69-5.22-10.53-9.02-1.22-1.63-2.75-3.04-4.09-4.6-2.06-2.37-3.09-5.07-2.9-8.08.31-4.98-1.99-6.54-7.22-4.89-3.41,1.08-5.67,3.68-7.85,6.3,0,0-1.88,2.39-3.54,3.45M280.84,366.81c-.28-3.88-1.18-7.54-3.42-10.8-.76-1.11-1.3-2.33-1.68-3.63-.16-.56-.25-1.04.24-1.45.47-.4,1.01-.37,1.51-.1,1.34.72,2.66,1.49,3.99,2.22,4.75,2.63,8.3,6.11,9.29,11.73.37,2.13,1.64,3.96,3.62,5.1,1.72.98,2.56,2.73,3.77,4.14,4.18,4.87,8.6,9.56,11.69,15.27,1.75,3.22,1.99,6.8,2.87,10.23.72,2.81.54,5.66.54,8.5,0,.84-.13,1.65-1.09,1.92-1,.28-1.78.01-2.13-1.06h0c-.46-.76-.98-1.49-1.37-2.28-3.77-7.63-8.79-14.43-14.27-20.91-1.68-1.98-3.47-3.32-6.27-2.05-1.25.57-1.76-.34-1.97-1.44-.48-2.44-.98-4.88-2.11-7.13-.16-.32-.36-.61-.55-.91-2-2.05-2.47-4.68-2.67-7.35h.01ZM311.03,440.02c-.08-.05-.16-.09-.22-.16-2.73-3.14-5.86-2.65-9.32-1.31-5.49,2.12-11.29,2.14-17.05,1.72-7.86-.57-15.64-.48-23.28,1.79-1.89.56-3.88.74-5.87.78-2.72.06-5.4-.11-8-.96-2.37-.77-4.71-.86-7.17-.3-5.3,1.19-10.7,1.42-16.11,1.22-2.16-.08-4.25.15-6.77.8,2.39,1.91,4.83,2.51,7.36,2.81,1.25.15,2.5.04,3.76-.24,2.59-.57,5.15-.49,7.73.26,9.68,2.83,19.49,3.09,29.38,1.22,1.41-.27,2.85-.43,4.28-.6.71-.08,1.44-.08,2.09.35.99.65,1.08,1.71.12,2.4-.58.41-1.26.67-1.91.98-5.33,2.52-10.99,3.89-16.78,4.83h0c-1.09.7-2.35.76-3.57,1.01-2.96.59-3.86,3.07-1.85,5.31,1.28,1.43,2.95,2.33,4.84,2.74,3.41.74,6.83,1.45,10.25,2.12,1.2.24,2.2.75,3.03,1.62.43.45.94.9.61,1.62-.28.6-.89.5-1.41.55-1.83.17-3.54-.51-5.3-.78-7.05-1.07-14.13-1.42-21.16-.14-3.77.69-7.31,2.41-11.1,3.18-1.92.39-3.88.88-5.82.87-2.7-.02-5.14.7-7.54,1.74-1.41.61-2.91.9-4.37,1.34-1.37.42-2.6.06-3.36-1.03-.79-1.14,0-2.23.68-3.17.79-1.08,1.76-2.03,2.49-3.15,2.79-4.27,1.34-9.72-3.44-11.61-4.65-1.84-8.36-4.76-11.77-8.25-2.11-2.16-3-2.12-5.15-.05-.84.81-1.61,1.69-2.52,2.42-1.57,1.26-2.29,1.21-3.69-.24-2.22-2.31-3.67-5.07-4.43-8.14-1.64-6.63.16-12.29,5.13-16.99,1.24-1.17,2.36-2.47,3.65-3.57,2.52-2.15,4.76-1.41,5.56,1.75.07.26.16.52.16.78-.08,3.29,1.24,6.04,3.28,8.52,1.17.5,2.39.68,3.67.66,9.66-.15,19.21-1.01,28.51-3.85,6.15-1.88,12.27-1.42,18.26.82,2.02.76,4.02,1.54,6.11,2.11,2.45.68,4.81.62,7.04-.69,3.6-2.12,7.39-2.51,11.45-1.59,7.05,1.6,14.23,2.05,21.44,2.15,2.9.04,5.74-.34,8.6-.73,2.25-.31,3.93-1.22,4.2-3.75.09-.84.54-1.56,1.46-1.7.83-.12,1.29.51,1.72,1.09,1.81,2.45,3.72,4.84,4.46,7.87.17.69.38,1.39.38,2.09,0,1.71-1.26,2.37-2.73,1.48h-.01ZM353.18,323.27c0,1.17-.83,1.24-1.71.91-.78-.29-1.33-.9-1.84-1.53-3.18-3.9-6.96-7.22-10.61-10.66-2.19-2.06-4.77-3.47-7.64-4.39-3.71-1.19-7.46-2.17-11.27-2.88-2.81-.52-5.64-.89-8.51-1.08-5.03-.33-9.92.8-15.15,1.53,1.1,1.27,2.25,1.36,3.41,1.35,5.05-.05,10.07.41,15.11.56,1.78.06,3.44.43,4.99,1.14.55.25,1.09.55,1.62.89,2.57,1.66,5.29,3.03,8.16,4.12,2.79,1.05,4.97,2.84,6.43,5.45,1.88,3.35,4.3,6.15,7.92,7.76.24.11.48.24.69.41.42.33.89.68.65,1.31-.19.51-.7.52-1.14.5-.71-.04-1.44-.09-2.13-.26-2.28-.55-4.46-1.38-6.45-2.64-2.7-1.71-5.59-2.32-8.77-1.5-1.91.5-3.86.83-5.8,1.22-.45.09-.98.07-1.24-.31-.34-.49-.15-1.02.25-1.45.6-.66,1.22-1.32,1.79-2,.42-.5.76-1.06.18-1.66-.69-.7-1.12-.04-1.55.37-.39.37-.74.78-1.06,1.21-.05.07-.1.13-.15.2-2.49,3.22-5.91,4.08-9.85,3.8-3.27-.23-6.39-.95-9.33-2.43-1.04-.53-2.17-.88-3.35-.95-1.48-.09-1.94.34-2,1.84-.04.9.1,1.76.48,2.61.53,1.16,1.26,2.14,2.16,3.04.64.64,2.02,1.16,1.31,2.27-.57.89-1.85.41-2.79.23-3.18-.59-5.88-2.14-8.21-4.35-1.42-1.36-2.78-2.78-4.57-3.73-1.9-1.01-3.72-1.26-5.56.11-.43.32-.93.55-1.42.76-2.32.96-4.4,0-5.03-2.4-.24-.93-.22-1.95-.21-2.92,0-3.39.02-6.78.1-10.17.07-2.65-.54-5.12-1.76-7.47-.58-1.11-1.14-2.23-1.64-3.37-.81-1.89-.76-3.83-.09-5.75.77-2.22,2.15-3.64,4.72-3.66,1.08,0,2.15-.07,3.23-.02,9.55.49,19.08.1,28.61-.58,5.56-.4,11.1-1.07,16.69-.8.19,0,.37.02.56.03,4.81.28,9.43,1.33,13.8,3.36,2.9,1.35,5.36,3.24,7.34,5.75,4.61,5.83,7.57,12.52,10.23,19.35.86,2.22.4,4.59.4,6.9v-.02Z"/>
        <path class="cls-7" d="M239.55,287.42c-4.43-1.83-9.02-2.98-13.87-2.71-2.99.16-5.92-.3-8.84-.73-6.07-.89-11.8-2.93-17.44-5.29-7.45-3.11-15.09-5.74-22.95-7.65-1.64-.4-3.34-1.12-5.02-.73-4.28,1.01-8.72.91-13,1.94-1.45.35-3.01.49-4.53.07-1.78-.49-2.63-1.7-2.12-3.4.5-1.69.95-3.42,1.99-4.93,4.96-7.22,6.82-15.32,7.06-23.96.18-6.51-.69-12.98-.63-19.48.07-6.45,1.69-12.46,4.76-18.13,1.77-3.27,4.48-5.19,8.06-6.16,1.75-.47,3.55-.46,5.3-.82,2.71-.56,5.47-1.14,8.22-1.22,5.31-.15,10.47-1.38,15.73-1.88,5.64-.54,10.95-2.68,16.03-5.24,1.72-.87,3.14-2.05,4.07-3.75h0c-.15-.01-.3-.02-.44-.03-1.03-.02-2.01.21-3,.52-2.71.85-5.45,1.63-8.23,2.22-1.26.27-2.53.51-3.82.69-4.27.63-8.59.95-12.83,1.72-5.69,1.03-11.41,1.42-17.16,1.43-.82,0-1.64,0-2.47-.02-1.47-.02-2.84-.37-4.18-.95-1.2-.52-2.31-1.09-2.43-2.57-.12-1.47.89-2.28,1.95-2.98,1.27-.84,2.62-1.57,3.92-2.37.1-.06.19-.12.29-.19,0,0,.01,0,.02-.01.09-.06.17-.12.25-.18.02-.02.04-.03.06-.05.07-.05.13-.1.19-.16.03-.02.05-.05.08-.07.05-.05.11-.1.16-.15l.08-.08s.1-.1.14-.15c.03-.03.05-.06.08-.09.04-.05.09-.1.13-.15.03-.03.05-.06.07-.1.04-.05.08-.1.12-.15.02-.03.05-.07.07-.1.03-.05.07-.1.1-.15.02-.04.04-.07.07-.11.03-.05.06-.1.09-.16.02-.04.04-.08.06-.12.03-.05.06-.11.08-.16.02-.04.04-.08.06-.13.02-.05.05-.11.07-.16.02-.04.03-.09.05-.13.02-.05.04-.11.06-.16.02-.04.03-.09.04-.14.02-.06.04-.11.05-.17.01-.05.03-.1.04-.14.01-.06.03-.11.04-.17.01-.05.02-.1.03-.15.01-.06.02-.11.04-.17,0-.05.02-.11.03-.16,0-.06.02-.11.03-.17v-.07c.21-1.69-.94-2.56-2.52-1.88-1.58.67-3.13,1.41-4.69,2.13-.13.06-.27.12-.4.18-.4.18-.79.36-1.19.53-.53.23-1.05.46-1.58.67-.26.1-.51.21-.77.32-.07.03-.14.06-.2.09-.18.08-.37.16-.55.24-.09.04-.17.08-.26.12-.16.07-.32.15-.48.22-.1.05-.19.09-.29.14-.15.07-.29.14-.44.22-.1.05-.2.1-.3.16-.14.07-.28.14-.42.22-.1.05-.2.11-.31.17-.13.07-.27.14-.4.22-.1.06-.2.12-.31.17-.13.07-.26.15-.39.22-.1.06-.2.12-.31.18-.13.08-.25.15-.38.23-.1.06-.2.13-.3.19-.12.08-.25.15-.37.23-.1.06-.2.13-.3.2-.12.08-.24.16-.36.24-.1.07-.2.14-.3.2-.12.08-.23.16-.35.24-.1.07-.2.14-.3.21-.11.08-.23.17-.34.25-.1.07-.19.14-.29.22-.11.08-.22.17-.34.25-.1.07-.19.15-.29.22-.11.09-.22.17-.33.26-.09.08-.19.15-.28.23-.11.09-.21.18-.32.27-.09.08-.19.16-.28.24-.11.09-.21.18-.31.27-.09.08-.18.16-.27.24-.1.09-.21.18-.31.28-.09.08-.18.17-.27.25-.1.09-.2.19-.3.28-.09.09-.18.17-.26.26-.1.1-.2.19-.29.29l-.26.26c-.1.1-.19.2-.29.3-.09.09-.17.18-.25.27-.09.1-.19.2-.28.3-.08.09-.17.18-.25.28-.09.1-.18.21-.27.31-.08.09-.16.19-.25.28-.09.1-.18.21-.27.31-.08.1-.16.19-.24.29-.09.11-.17.21-.26.32-.08.1-.16.2-.24.3-.09.11-.17.22-.26.33-.08.1-.15.2-.23.3-.08.11-.17.22-.25.33-.08.1-.15.21-.23.31-.08.11-.16.22-.24.34-.07.1-.15.21-.22.32-.08.11-.16.23-.23.34s-.15.21-.22.32c-.08.12-.15.23-.23.35-.07.11-.14.22-.21.33-.07.12-.15.24-.22.35-.07.11-.14.22-.21.34-.07.12-.14.24-.21.36-.07.12-.14.23-.21.35-.13.21-.25.43-.37.65-.31.55-.65,1.07-.98,1.6-4.62,7.31-7.52,15.04-8.43,23.34,0,.05-.01.1-.02.14-.03.25-.05.51-.07.76,0,.09-.02.19-.03.28-.01.17-.03.34-.04.51-.01.18-.03.36-.04.54v.14c-.13,2.07-.14,4.16-.02,6.3.15,2.75.2,5.51.21,8.28.01,3.13-.02,6.26.02,9.39.05,4.06-.77,7.96-2.05,11.8-1.66,5-4.54,9.29-7.83,13.35-1.72,2.13-3.15,4.34-4.24,6.66-.1.21-.2.42-.29.63-.19.42-.36.85-.53,1.28-.08.22-.16.43-.24.65-.15.44-.3.87-.43,1.32-.39,1.33-.68,2.68-.86,4.08-.27,2.09-.29,4.25-.05,6.5.05.44.04.88.01,1.33-.03.45-.07.89-.1,1.34-.26,4.08-1.78,7.8-3.41,11.48-.49,1.11-.93,2.24-1.28,3.37-.36,1.14-.64,2.29-.82,3.47-.22,1.41-.3,2.85-.2,4.32.12,1.79.04,3.57-.12,5.34-.17,1.77-.43,3.53-.69,5.3-.05.36-.1.72-.15,1.09,0,.04,0,.07-.01.11-.02.14-.04.29-.05.43,0,.05-.01.1-.02.16-.01.13-.03.25-.04.38,0,.06-.01.12-.02.18-.01.12-.02.24-.03.36,0,.07-.01.13-.02.2,0,.11-.02.23-.03.34,0,.07,0,.14-.01.21,0,.11-.02.21-.02.32,0,.07,0,.15-.01.22,0,.1-.01.21-.02.31v.23c0,.1,0,.2-.01.31v2.11c0,.08,0,.16.01.24,0,.09,0,.19.02.28,0,.08.01.16.02.24,0,.09.01.19.02.28,0,.08.01.16.02.24,0,.09.02.19.03.28,0,.08.02.16.03.24.01.09.02.18.03.28.01.08.02.16.03.25s.03.18.04.27c.01.08.02.16.04.25.01.09.03.18.05.27.01.08.03.16.04.25.02.09.03.18.05.27.02.08.03.16.05.24.02.09.04.18.06.27.02.08.04.16.06.24.02.09.04.18.07.27.02.08.04.16.06.24.02.09.05.18.07.27.02.08.04.16.07.24.03.09.05.18.08.27.02.08.05.16.07.24.03.09.06.18.09.27.03.08.05.16.08.23.03.09.07.18.1.28.03.08.06.15.09.23.04.09.07.19.11.28.03.07.06.15.09.22.04.09.08.19.12.28.03.07.06.15.1.22.04.1.09.19.13.29.03.07.06.14.1.21l.15.3c.03.06.06.13.1.19.06.11.12.22.18.33.03.06.06.11.09.17.09.16.18.33.28.49.49.82.87,1.72,1.19,2.63.03.09.07.18.1.26,1.78,5.09,4.14,9.95,7.39,14.25.25.32.48.65.72.99.9,1.28,1.74,2.59,2.69,3.84.52.69,1.02,1.38,1.5,2.08.01.02.03.04.04.07.14.21.29.43.43.64.03.04.05.08.08.12.13.2.26.4.38.59.04.06.07.11.11.17.11.18.23.36.34.55.04.07.08.13.12.2.11.17.21.35.31.52.04.07.08.15.13.22.1.17.2.34.29.51.04.08.09.15.13.23.09.17.19.33.28.5.04.08.09.16.13.24.09.16.18.33.27.49.04.08.09.17.13.26.08.16.17.32.25.49.04.09.09.17.13.26.08.16.16.32.24.49.04.09.08.18.13.26.08.16.16.32.24.49.04.09.08.18.13.27.08.16.15.32.23.49.04.09.08.19.13.28.07.16.14.32.22.48.04.09.08.19.12.28.07.16.14.32.21.48.04.1.08.19.12.29.07.16.13.32.2.48.04.1.08.2.12.3.06.16.13.32.19.48.04.1.08.2.12.3.06.16.12.32.18.48.04.1.08.2.11.3.06.16.12.32.18.48.04.1.07.21.11.32.06.16.11.31.17.47.04.1.07.21.11.31.05.16.11.32.16.48.03.1.07.21.1.31.05.16.11.32.16.48.03.1.07.21.1.31.05.16.1.32.15.48.03.11.07.22.1.32.05.16.1.32.15.48.03.11.06.22.1.33.05.16.09.32.14.48.03.11.06.22.09.33.04.16.09.32.13.48.03.11.06.22.09.33.04.16.09.32.13.48.03.11.06.22.09.33.04.16.08.32.12.48.03.11.06.22.08.33.04.16.08.32.12.49.03.11.05.22.08.33.04.16.08.32.12.49.03.11.05.23.08.34.03.14.06.27.09.41.29,1.28.63,2.53,1.02,3.75,1.74,5.38,4.59,10.35,8.29,14.67.06.07.11.13.17.2.11.13.22.25.33.38.27.31.54.62.81.94.19.22.38.44.57.66.29.35.59.69.88,1.04.18.21.36.43.54.64.27.32.54.65.81.97.66.79,1.31,1.59,1.98,2.38.44.52.8,1.07,1.1,1.63.68,1.3.99,2.72.98,4.29-.01,1.62-.27,3.15-.74,4.61-.12.37-.25.73-.4,1.08-.14.36-.3.71-.47,1.06-.34.7-.73,1.38-1.16,2.05-.34.53-.66,1.06-.95,1.61-.93,1.72-1.62,3.53-2.08,5.44-.17.7-.31,1.42-.42,2.15-.11.76-.18,1.53-.21,2.29-.09,1.95.04,3.9.17,5.84.05.76.1,1.51.13,2.27.16,3.45.62,6.84,1.26,10.2.73,3.8,1.69,7.57,2.73,11.31.01.04.02.07.03.11.03.1.05.19.08.28.02.06.04.11.06.17.02.07.05.15.07.22.02.06.04.12.06.18.02.07.05.14.08.21.02.06.05.12.07.18.03.07.05.13.08.2.03.06.05.12.08.19.03.06.05.13.08.19s.05.12.08.18.06.13.09.19l.09.18c.03.06.06.13.09.19l.09.18c.03.06.06.12.1.19.03.06.06.12.1.18.03.06.07.12.1.19.03.06.06.12.1.17.04.06.07.12.11.19.03.06.07.11.1.17.04.06.07.12.11.19.03.06.07.11.1.17.04.06.08.12.12.19.03.05.07.11.1.16.04.06.08.13.12.19.03.05.07.1.1.16.04.07.09.13.13.2.03.05.07.1.1.15.05.07.09.14.14.21.03.04.06.09.09.13.07.11.15.21.22.32,1.98,2.76,3.96,5.52,5.85,8.34.36.53.71,1.06,1.08,1.58.08.12.17.24.25.36.1.15.2.29.31.44.09.12.17.24.26.36.1.15.21.29.31.43.09.12.17.24.26.36.1.14.21.29.31.43.09.12.17.24.26.36.11.14.21.29.32.43.09.12.18.23.26.35.11.14.21.28.32.43.09.12.18.23.27.35.11.14.22.28.33.42.03.04.06.07.08.11.06.08.12.16.19.24.11.14.22.28.33.42.09.11.18.23.27.34.11.14.22.28.34.42.09.11.18.22.27.33.12.14.23.28.35.42.09.11.18.21.27.32.12.14.24.29.36.43.09.1.17.2.26.31.13.15.26.29.38.44.08.1.17.19.25.29.14.16.29.32.43.48.07.08.14.16.21.24.19.21.38.42.58.63.02.03.05.05.07.08.22.24.44.47.66.7.06.06.11.12.17.17.17.17.33.34.5.51.08.08.16.16.25.25.14.14.29.29.43.43.09.09.19.18.28.27.14.13.27.27.41.4.1.09.2.19.3.28.13.13.27.25.4.38.1.1.21.19.31.28.13.12.27.24.4.36.11.1.21.19.32.29.13.12.27.24.4.35.11.1.22.19.33.28.13.11.27.23.41.34.11.09.22.19.34.28.14.11.27.22.41.33.11.09.23.19.35.28.14.11.28.22.41.33.12.09.23.18.35.27.14.11.28.21.42.32.12.09.24.18.35.27.14.11.29.21.43.32.12.09.24.17.36.26.15.11.3.21.45.31.12.08.24.17.36.25.15.1.31.21.46.31.12.08.24.16.36.24.16.11.32.21.48.31.12.07.23.15.35.22.18.11.36.22.54.33.1.06.2.13.31.19.26.16.51.31.77.46.03.02.05.03.08.05,9,5.23,18.41,8.89,28.91,9.5.31.02.61.04.91.04.66,0,1.29-.11,1.85-.65-.15-.28-.35-.48-.58-.64-.23-.16-.48-.28-.74-.38-.31-.12-.63-.23-.92-.38-6.07-3.03-11.71-6.66-16.5-11.49-.21-.21-.42-.43-.62-.66-.75-.85-1.4-1.78-1.84-2.84-.08-.2-.1-.35-.08-.47.04-.25.28-.36.56-.43.11-.03.24-.05.36-.07h0c-1.72-1.82-3.66-3.39-5.56-5.01-3.2-2.73-6.62-5.19-9.78-7.95-4.7-4.1-8.23-8.89-10.85-14.22-1.74-3.54-3.07-7.31-4.08-11.27-.75-2.93-.83-5.97-1.21-8.96-.68-5.34-.72-10.62.94-15.84,1.28-4,2.91-7.85,4.58-11.69.22-.52.41-1.04.55-1.56.53-1.95.46-3.92-.37-5.92-.91-2.16-2.14-4.07-3.84-5.73-8.22-7.99-13.71-17.55-16.35-28.66-1.45-6.11-3.72-11.9-6.59-17.46-2.21-4.29-5.26-8.08-7.8-12.17-2.37-3.8-4.33-7.81-5.73-12.06-.98-2.96-.18-6.45,1.89-7.83,3.39-2.27,7.3-2.99,11.28-2.81,1.5.07,3.03.32,4.55.32,2.97,0,5.88.55,8.81.92,4.83.61,9.45,2.09,14.18,3.07,2.01.41,4.12.94,6.1.7,2.43-.3,4.83-.28,7.25-.42,2.42-.14,4.87-.16,7.23-.65,4.77-.99,9.58-1.29,14.42-1.46.89-.03,1.8-.06,2.68-.21,2.82-.5,5.15.58,6.51,3.03,2.76,4.96,2.97,10.23,1.63,15.55-1.27,5.04-3.9,9.32-8.04,12.63-2.65,2.12-5.39,4.2-7.72,6.64s-4.45,5.11-6.3,7.97c-1.59,2.46-3.18,4.95-5.79,6.59-.97.6-1.66,1.59-2.35,2.55-2.27,3.15-3.24,6.76-3.62,10.49-.23,2.27-.42,4.62.47,6.88,1.04,2.67,1.73,2.9,4.36,1.3-.33-.05-.6-.14-.84-.26-.56-.29-.86-.8-.88-1.69-.11-4.96,1.19-9.27,5.01-12.78,3.31-3.04,5.98-6.68,8.38-10.47,3.55-5.61,8.07-10.14,13.68-13.82,6.13-4.03,10.73-9.4,12.79-16.69,1.56-5.51,3.21-10.97,2.88-16.78-.03-.62-.03-1.26-.12-1.87-.46-2.85-1.19-3.63-4.02-4.29-.26-.06-.54-.06-.8-.12-2.37-.55-2.54-1.04-.94-2.94,1.33-1.58,2.71-3.1,4.06-4.66.59-.69,1.19-1.43.64-2.39-.49-.85-1.38-.71-2.18-.71-1.31,0-2.42.61-3.54,1.19-2,1.02-3.97,2.11-6.03,3-4.15,1.8-5.81,1.91-10.54,1.01.17-1.07,1.17-1.26,1.86-1.75.9-.63,1.73-1.34,2.09-2.38.37-1.08-.07-1.95-1.06-2.47-1.1-.58-1.65.08-2.06,1-3.4,7.68-14.65,9.25-20.46,3.75-.96-.91-1.95-1.84-3.26-2.34-1.44-.55-2.81-.56-4.16.17-1.1.59-1.2,1.24-.26,2.05,1.29,1.12,2.74,2.04,4.38,2.59.51.17,1.04.28,1.54.46.46.17.79.54.74,1.01-.05.48-.47.69-.94.82-2.84.79-5.7.7-8.56.18-4.08-.74-7.95-2.26-11.95-3.31-5.16-1.35-10.35-2.43-15.72-1.42-.18.03-.36.05-.54.05-1.47,0-2.84-.73-2.8-1.59.08-1.51,1.33-1.4,2.38-1.57,4.26-.68,7.71-2.85,10.75-5.77.56-.54,1.35-1.03.82-2.02-.5-.94-1.39-.73-2.15-.61-3.48.53-6.88,1.37-9.99,3.09-2.2,1.22-4.42,2.41-6.64,3.59-.55.29-1.13.59-1.73.72-.88.2-1.42-.4-1.16-1.24.13-.42.38-.8.61-1.19,3.14-5.22,6.41-10.33,10.52-14.89,2.03-2.25,3.77-4.78,5.58-7.23,1.6-2.17,3.38-4.16,5.25-6.1,3.95-4.09,8.95-5.44,14.41-5.73,6.53-.34,12.92.67,19.31,1.84,11.06,2.01,22.16,3.75,33.38,4.66,5.24.43,10.52.58,15.69,1.72.39.09.79.17,1.18.26h0c-.92-1.52-2.37-2.44-3.94-3.09l-.11.04Z"/>
        <path class="cls-4" d="M593.79,103.81l-13.54-3.98-36.47-10.71c-.38-.05-.76-.02-1.11.08-1.01.29-1.82,1.17-2.01,2.26v44.65h0v-.21,43.95l.04,2.81c.02,1.27.9,2.33,2.07,2.63.22.05.44.09.68.09h70.78c.44,0,.88.02,1.31,0,1.31-.08,2.35-1.15,2.35-2.48v-46.63c0-15.04-9.82-28.26-24.1-32.46h0Z"/>
        <path class="cls-7" d="M255.37,563.23c1.35,0,2.62-.42,3.84-.97h0c-.24-.01-.49-.04-.73-.06-.21-.02-.41-.03-.61-.02h-.02c-.47.02-.95.03-1.42.04h-.47c-.32,0-.65.01-.97.02h-.57c-.29,0-.58,0-.87.01h-4.32c-.22,0-.44,0-.66-.01-.26,0-.52,0-.78-.01-.22,0-.45-.01-.67-.02-.25,0-.51-.01-.76-.02-.23,0-.45-.01-.68-.02-.25,0-.51-.02-.76-.03-.22,0-.45-.02-.67-.03-.25-.01-.51-.02-.76-.03-.22-.01-.45-.02-.67-.03-.25-.01-.51-.02-.76-.04-.23-.01-.45-.02-.68-.04-.25-.01-.5-.03-.76-.04-.23-.01-.45-.03-.68-.04-.25-.02-.5-.03-.75-.05-.23-.02-.45-.03-.68-.05-.25-.02-.5-.04-.75-.05-.23-.02-.45-.03-.68-.05-.25-.02-.5-.04-.75-.06-.23-.02-.45-.04-.68-.06-.25-.02-.5-.04-.75-.07-.22-.02-.45-.04-.67-.06-.25-.02-.51-.05-.76-.07-.22-.02-.45-.04-.67-.06-.25-.03-.51-.05-.76-.08-.22-.02-.45-.05-.67-.07-.25-.03-.51-.05-.76-.08-.22-.02-.45-.05-.67-.07-.25-.03-.51-.06-.76-.09-.22-.03-.44-.05-.66-.08-.26-.03-.51-.06-.77-.09-.22-.03-.44-.05-.66-.08-.26-.03-.52-.07-.78-.1-.21-.03-.43-.06-.64-.08-.26-.04-.53-.07-.79-.11-.21-.03-.42-.06-.63-.09-.27-.04-.53-.08-.8-.11-.21-.03-.41-.06-.62-.09-.28-.04-.55-.08-.83-.12-.2-.03-.39-.06-.59-.09-.31-.05-.61-.1-.92-.14-.17-.03-.33-.05-.5-.08-.41-.07-.82-.13-1.22-.2-.09-.02-.19-.03-.28-.05-.44-.07-.89-.15-1.33-.23-.17-.03-.33-.06-.5-.09-.31-.05-.61-.11-.92-.16-.19-.03-.39-.07-.58-.11-.28-.05-.55-.1-.83-.15-.21-.04-.42-.08-.63-.12-.23-.04-.46-.09-.69-.13-.03,0-.06-.01-.09-.02-.42-.08-.84-.16-1.26-.24-18-3.54-35.4-8.88-52.03-16.62-.4-.19-.8-.37-1.19-.56-1.41-.67-2.81-1.34-4.22-2-.69-.33-1.39-.66-2.08-.98-.16-.07-.32-.15-.47-.22-.71-.33-1.41-.67-2.12-1-.09-.04-.18-.09-.28-.13-.66-.31-1.31-.61-1.97-.91-.12-.06-.24-.11-.36-.17-.7-.32-1.39-.64-2.09-.95-.15-.07-.3-.14-.45-.2-.72-.32-1.43-.64-2.15-.96-.06-.02-.11-.05-.17-.07-.68-.3-1.37-.6-2.05-.89-.13-.06-.27-.11-.4-.17-.71-.3-1.42-.6-2.13-.89-.14-.06-.28-.12-.43-.17-.74-.3-1.48-.6-2.23-.9-1.67-.66-3.31-1.41-5.09-1.75-.38-.07-.74-.11-1.1-.11-1.17,0-2.18.41-2.95,1.19-.23.23-.44.5-.63.8-.09.14-.17.29-.25.43-.02.05-.04.09-.07.14-.05.1-.1.2-.14.31-.02.06-.05.11-.07.17-.04.09-.08.19-.11.28-.02.06-.04.13-.06.19-.03.09-.06.18-.08.28-.02.07-.03.13-.05.2-.02.09-.04.18-.06.28-.01.07-.03.14-.04.2-.02.09-.03.19-.05.28,0,.07-.02.14-.03.21-.01.1-.02.19-.03.29,0,.07-.01.14-.02.21,0,.15-.01.3-.02.45-.02,3-.17,5.98-.53,8.96-.01.09-.02.18-.02.27,0,.1-.02.21-.03.31v.54c0,.08,0,.16.01.23,0,.1,0,.19.02.28,0,.08.02.15.03.22.01.09.02.18.04.27.01.07.03.14.05.21.02.09.03.18.06.26.02.07.04.14.06.21.02.08.05.17.08.25.02.07.05.13.08.2.03.08.06.16.09.24.03.06.06.13.09.19.04.08.07.16.11.23.03.06.07.12.11.18.04.07.08.15.13.22.04.06.08.12.12.18.05.07.1.14.15.21.04.06.09.12.14.17.05.07.1.13.16.2.05.06.11.12.16.18.05.06.11.12.16.18l.19.19s.11.11.16.16c.08.07.16.15.25.22.05.04.09.08.14.12.13.11.26.21.39.31,0,0,.01.01.02.02.14.11.29.21.44.32.98.68,1.97,1.36,2.97,2.02,4.31,2.88,8.72,5.58,13.33,7.99,6.42,3.35,12.96,6.29,19.62,8.85,3.7,1.42,7.43,2.73,11.2,3.94,3.01.96,6.05,1.85,9.11,2.68,1.53.41,3.06.81,4.6,1.19,3.08.76,6.17,1.45,9.29,2.09,6.23,1.27,12.53,2.29,18.9,3.1,2.72.34,5.28.94,7.64,1.85.43.17.85.34,1.27.53.42.19.83.38,1.23.59.6.31,1.19.65,1.77,1.02,2.68,1.71,5.01,3.99,6.94,7,.49.77,1.01,1.51,1.55,2.25.03.04.06.08.09.13.03.03.05.07.08.1,1.26,1.71,2.63,3.34,4.02,4.95.47.55.94,1.09,1.42,1.64,0,0,.01.02.02.02,2.58,2.96,6.29,2.77,8.4-.39.03-.05.06-.1.1-.15.01-.02.02-.04.03-.05.06-.09.11-.19.17-.28.09-.16.18-.32.27-.48.07-.12.13-.23.2-.35.09-.17.18-.33.27-.5.06-.12.13-.24.2-.36.09-.17.18-.34.27-.51.06-.12.12-.24.19-.35.09-.17.18-.35.27-.52.06-.12.12-.23.18-.35.09-.19.19-.37.28-.56.05-.11.11-.21.16-.32.14-.28.29-.57.43-.85.29-.59.59-1.17.89-1.75h0c-1.4-.34-1.23-1.63-1.46-2.58-1.5-6.27-2.8-12.59-4.4-18.83-1.25-4.91,3.21-9.67,7.04-9.66l-.02-.02Z"/>
        <path class="cls-7" d="M108.07,401.99c-.02-.31-.03-.61-.05-.92-.19-3.1-.54-6.2-1.14-9.28-2.22-11.44-3.12-22.96-1.9-34.61.06-.53.12-1.06.19-1.59.29-2.29.64-4.53.46-6.54.07-3.85-.46-7.41-1.52-10.76-.2-.63-.42-1.25-.65-1.86-.16-.41-.32-.82-.5-1.22-.17-.4-.35-.8-.54-1.2-.09-.2-.19-.4-.29-.59-.79-1.58-1.7-3.11-2.73-4.61-1.25-1.82-2.64-3.38-4.15-4.73-1.13-1.01-2.34-1.89-3.6-2.66-1.06-.64-2.16-1.19-3.3-1.68-.46-.19-.92-.37-1.39-.54-2.59-.93-5.37-1.5-8.32-1.78-.3-.03-.57-.04-.82-.04-1.77,0-2.58.72-3.39,2.56-1.12,2.56-.89,5.24-.66,7.91,0,.1.03.2.06.29.07.22.2.42.4.53.1.05.21.09.34.11h.19c.18-.01.33-.08.46-.18.17-.13.3-.33.4-.53.26-.52.5-1.05.74-1.58s.48-1.06.73-1.58c.45-.92,1.07-1.71,2.22-1.68h0c5,.13,9.7.97,12.86,5.42,1.3,1.83,2.56,3.69,3.55,5.69,1.71,3.44,3.64,6.93,3.9,10.77.36,5.34.03,10.77-1.79,15.86-1.91,5.35-2.12,10.56-.8,15.73.37,1.45.86,2.89,1.47,4.34.73,1.73,1.41,3.48,2.16,5.19.16.36.28.72.36,1.06.26,1.15.08,2.2-.57,3.2-.19.3-.43.59-.71.88-.39.41-.8.81-1.2,1.21-1.18,1.16-2.36,2.31-3.34,3.63-.23.31-.44.62-.65.95-.04.06-.08.12-.13.17-.16.18-.37.31-.62.29-.05,0-.09-.01-.14-.03-.12-.03-.21-.09-.28-.15-.2-.17-.25-.43-.27-.69v-1.42c.01-1.07.06-2.14,0-3.22-.02-.41-.05-.82-.1-1.23-.11-.88-.27-1.75-.47-2.6-.87-3.67-2.53-7.03-4.61-10.24-.45-.7-.9-1.41-1.35-2.11-1.12-1.76-2.22-3.54-3.3-5.32-.43-.71-.86-1.43-1.29-2.15-.06-.1-.12-.2-.17-.29,0-.02-.02-.03-.02-.04-.04-.08-.08-.15-.12-.22-.01-.03-.02-.05-.04-.07-.03-.06-.06-.11-.08-.17-.01-.03-.02-.05-.03-.08-.02-.05-.04-.09-.05-.14-.01-.03-.02-.06-.03-.08-.01-.04-.03-.08-.04-.12,0-.03-.01-.05-.02-.08,0-.04-.02-.07-.02-.11v-.26s0-.06.01-.09c0-.03.01-.05.02-.08,0-.03.02-.06.03-.09,0-.03.02-.05.03-.08s.02-.06.04-.08c.01-.03.03-.05.04-.08.02-.03.03-.06.05-.08.02-.03.04-.05.06-.08s.04-.06.07-.08c.02-.03.05-.05.07-.08.03-.03.05-.06.08-.09s.06-.06.09-.09.06-.06.09-.09.07-.06.11-.09c.03-.03.07-.06.1-.09.04-.03.08-.07.13-.11.02-.01.03-.03.05-.04,0,0,.02-.01.02-.02.03-.03.07-.05.1-.08.05-.04.1-.08.16-.12,0,0,.02-.01.02-.02.1-.07.2-.15.29-.22h0c.08-.06.17-.12.25-.18.12-.09.25-.17.37-.25.1-.07.21-.14.31-.21.05-.04.11-.08.16-.11.07-.05.14-.1.21-.15.05-.04.11-.08.16-.12.07-.05.13-.1.2-.15.05-.04.11-.08.16-.13.06-.05.13-.1.19-.15.05-.04.11-.09.16-.13.06-.05.12-.1.18-.16.05-.05.1-.09.15-.14.06-.05.11-.11.17-.16.05-.05.1-.1.15-.14.05-.05.11-.11.16-.16.05-.05.1-.1.14-.15.05-.06.1-.11.15-.17.05-.05.09-.1.14-.16.05-.06.1-.12.15-.18.04-.05.09-.11.13-.16.05-.06.09-.12.14-.18.04-.06.08-.11.12-.17s.09-.13.13-.19.08-.11.11-.17c.04-.07.08-.13.12-.2.03-.06.07-.12.1-.18.04-.07.08-.14.11-.21l.09-.18c.04-.07.07-.15.1-.23.03-.06.06-.12.08-.18.04-.08.07-.17.1-.25.02-.06.05-.11.07-.17.04-.12.08-.24.12-.36,0-.03.02-.05.02-.07.14-.47.39-.82.7-1.13.3-.31.66-.58.99-.88.74-.65,1.21-1.29,1.43-1.91.08-.23.12-.45.13-.67.02-.39-.07-.76-.27-1.14-.03-.05-.06-.11-.09-.16-.29-.47-.76-.94-1.41-1.38-.39-.27-.78-.53-1.18-.78-1.28-.82-2.59-1.59-3.89-2.37-.45-.27-.9-.54-1.35-.81-.12-.07-.23-.14-.36-.21-.23-.13-.46-.23-.7-.24-.11,0-.22.01-.33.05s-.22.11-.33.21c-.27.26-.35.55-.33.85.02.3.14.61.27.9.15.33.3.65.45.97.32.68.66,1.36.98,2.04.13.29.27.58.39.87,1.35,3.09.8,5.16-1.89,7.3-.77.61-1.61,1.14-2.39,1.76-2.3,1.82-3.09,3.52-2.42,5.72.03.09.06.18.09.27.19.54.46,1.1.82,1.71.28.48.57.96.86,1.43.73,1.19,1.49,2.37,2.27,3.53.3.46.61.91.92,1.36.38.56.74,1.13,1.08,1.72,1.12,1.94,1.96,3.98,2.58,6.13.18.64.35,1.3.49,1.96.25,1.14.51,2.29.78,3.42.29,1.24.6,2.48.93,3.72.44,1.67.92,3.34,1.43,5,.35,1.12.71,2.23,1.09,3.34.21.61.43,1.2.67,1.79.83,2.06,1.87,4.02,3.32,5.75,1.83,2.2,4.54,3.49,7.39,3.31.06,0,.13,0,.19-.01.07,0,.13-.01.2-.02.06,0,.13-.01.19-.02.07,0,.13-.02.2-.03.06,0,.13-.02.19-.03.07-.01.13-.02.19-.04.06-.01.12-.02.18-.04.06-.01.12-.03.19-.04.06-.01.12-.03.18-.04.06-.02.12-.03.18-.05.06-.02.12-.03.17-.05.06-.02.12-.04.18-.06s.11-.04.17-.06c.06-.02.11-.04.17-.07.05-.02.11-.04.16-.06.06-.02.11-.05.17-.07.05-.02.1-.05.15-.07.05-.03.11-.05.16-.08.05-.03.1-.05.15-.08s.1-.06.15-.09.1-.05.14-.08c.05-.03.1-.06.15-.1.05-.03.09-.06.14-.09.05-.03.1-.07.14-.1.04-.03.09-.06.13-.09.05-.04.09-.07.14-.11.04-.03.08-.07.12-.1.04-.04.09-.08.13-.12s.08-.07.12-.11.08-.08.12-.12.08-.07.11-.11c.04-.04.08-.09.12-.13s.07-.08.11-.12c.04-.04.07-.09.11-.14.03-.04.07-.08.1-.12.04-.05.07-.1.1-.14.03-.04.06-.09.09-.13.03-.05.07-.1.1-.15.03-.04.06-.09.09-.13.03-.05.06-.11.09-.16s.05-.09.08-.14.06-.11.09-.17c.02-.05.05-.09.07-.14.03-.06.05-.11.08-.17.02-.05.05-.1.07-.15.02-.06.05-.12.07-.18.02-.05.04-.1.06-.16s.04-.12.06-.19c.02-.05.04-.1.05-.16.02-.07.04-.13.06-.2.01-.05.03-.1.04-.16.02-.07.03-.14.05-.21.01-.05.03-.1.04-.15.02-.08.03-.15.04-.23,0-.05.02-.1.03-.14.01-.09.03-.17.04-.26,0-.04.01-.08.02-.12.01-.1.02-.21.03-.32v-.08c.04-.4.05-.82.04-1.25-.02-.85-.06-1.71-.1-2.56l.03.04Z"/>
        <path class="cls-7" d="M285.25,519.54c-2.51.49-5.03.94-7.55,1.36-6.48,1.09-12.99,1.98-19.53,2.62-2.54.25-5.09.46-7.65.63-1.7.11-3.38.31-5.02.64-.82.17-1.63.37-2.42.61-1.86.57-3.64,1.37-5.33,2.51-7.61,5.14-8.48,13.89-2.02,20.4,3.65,3.68,8.19,5.74,13.17,6.94,1.65.4,3.32.72,4.98.98,4.29.68,8.63,1,12.97,1.26,1.69.1,3.37.2,5.06.3,1.58.1,3.15.15,4.72.15,3.41,0,6.8-.26,10.17-.79,1.3-.21,2.59-.45,3.88-.74.27-.06.56-.16.85-.22.29-.07.59-.1.88-.04.34.07.65.28.9.74.93-.12,1.56-.61,1.44-1.57-.13-1-.97-1.2-1.84-1.15-.62.04-1.24.15-1.86.27-5.19,1-10.39,2.08-15.71,1.82-3.12-.16-6.23-.65-9.34-.94-6.57-.61-12.92-1.96-19.04-4.37-2.67-1.05-4.55-2.86-5.25-5.66-1.04-4.18-.42-8.16,3.32-10.67,2.14-1.44,4.49-2.19,6.89-2.93,3.75-1.16,7.67-.46,11.5-.95,4.34-.56,8.71-.92,13.03-1.71,10.47-1.92,20.13-5.77,28.98-11.67,2.02-1.35,3.81-2.86,5.4-4.52,3.03-3.19,5.28-6.96,6.86-11.26.64-1.75.37-3.12-1.17-4.21,0,0,.24,2.07-1.52,4.58s-10.97,13.95-29.75,17.61v-.02Z"/>
        <path class="cls-8" d="M505.61,670.52c.5-.4,1-.81,1.5-1.22h-.02l-1.47,1.22h-.01Z"/>
        <path class="cls-8" d="M508.1,668.49c1.17-.96,2.32-1.93,3.47-2.9l-4.32,3.59c.28-.23.56-.46.84-.69h.01Z"/>
        <path class="cls-7" d="M221.65,452.36c-7.24-1.3-14.15-3.28-20.09-7.89-3.08-2.38-6.77-3.67-10.56-4.59-2.17-.53-2.81-.3-4.1,1.51-.52.73-.92,1.54-1.46,2.24-.85,1.11-1.8,1.02-2.13-.31-1.01-4.09-.48-7.99,2.01-11.47.89-1.25,1.78-1.3,2.92-.27,2.37,2.13,5.13,2.83,8.23,2.48-2.04-2.48-3.36-5.24-3.28-8.52,0-.26-.09-.52-.16-.78-.8-3.16-3.03-3.9-5.56-1.75-1.29,1.1-2.42,2.4-3.65,3.57-4.97,4.7-6.77,10.36-5.13,16.99.76,3.07,2.21,5.83,4.43,8.14,1.4,1.46,2.12,1.5,3.69.24.91-.73,1.68-1.61,2.52-2.42,2.15-2.07,3.04-2.11,5.15.05,3.41,3.49,7.11,6.41,11.77,8.25,4.78,1.89,6.23,7.34,3.44,11.61-.73,1.11-1.7,2.07-2.49,3.15-.69.94-1.47,2.03-.68,3.17.76,1.09,1.99,1.45,3.36,1.03,1.46-.44,2.95-.73,4.37-1.34,2.4-1.04,4.84-1.75,7.54-1.74,1.94.01,3.9-.48,5.82-.87,3.78-.77,7.33-2.49,11.1-3.18,7.03-1.28,14.11-.93,21.16.14,1.77.27,3.47.95,5.3.78.52-.05,1.13.06,1.41-.55.33-.72-.18-1.17-.61-1.62-.83-.87-1.83-1.39-3.03-1.62-3.42-.67-6.84-1.38-10.25-2.12-1.89-.41-3.55-1.31-4.84-2.74-2.01-2.25-1.12-4.73,1.85-5.31,1.22-.24,2.48-.31,3.57-1.01-2.7-.07-5.4-.06-8.09-.24-7.9-.51-15.73-1.63-23.52-3.03v.02Z"/>
        <path class="cls-7" d="M262.38,412.12h0c-.23.23-.46.45-.68.68-.15.15-.31.31-.46.46-2.25,2.17-2.93,2.14-4.88-.37-1.21-1.55-2.26-3.22-3.5-4.75-3.07-3.8-7.37-4.18-11.08-.99-1.49,1.28-2.89,2.67-4.38,3.97-1.8,1.57-2.79,1.66-4.81.3-5.61-3.8-10.57-8.29-14.69-13.67-1.28-1.67-2.05-3.53-2.13-5.66-.06-1.6-.23-3.2-.35-4.8-.08-1.05-.46-2.06-1.52-2.3-2.11-.48-4.36-.81-6.29.43-5.77,3.72-10.97,8.07-15,13.68-.45.62-1.05,1.27-.68,2.1.04.1.09.19.16.29,1.39-.87,2.37-2.12,3.41-3.36,2.17-2.62,4.44-5.22,7.85-6.3,5.23-1.66,7.52-.09,7.22,4.89-.18,3.01.84,5.7,2.9,8.08,1.35,1.55,2.87,2.96,4.09,4.6,2.84,3.8,6.51,6.67,10.53,9.02,6.12,3.57,12.43,4.61,18.74.21.72-.5,1.54-.96,2.47-1.02,3.17-.2,7.16,3.04,7.76,6.26.2,1.11.21,2.7,1.74,2.5,1.38-.18,1-1.74.91-2.72-.22-2.58.29-4.92,1.6-7.17.76-1.3,1.29-2.75,1.07-4.34v-.02Z"/>
        <path class="cls-7" d="M277.42,356.01c2.24,3.26,3.14,6.92,3.42,10.8.2,2.67.66,5.3,2.67,7.35.42-1.9.75-2.1,2.39-1.06,3.34,2.1,6.46,4.52,9.45,7.1,6.69,5.76,11.43,12.74,13.79,21.26.47,1.71,1.16,3.37,1.73,5.06.33.98.56,1.96-.82,2.37.35,1.07,1.13,1.34,2.13,1.06.96-.27,1.1-1.08,1.09-1.92,0-2.84.18-5.69-.54-8.5-.88-3.43-1.12-7.01-2.87-10.23-3.09-5.7-7.52-10.4-11.69-15.27-1.21-1.4-2.05-3.16-3.77-4.14-1.99-1.13-3.25-2.97-3.62-5.1-.99-5.62-4.55-9.1-9.29-11.73-1.33-.74-2.65-1.5-3.99-2.22-.5-.27-1.04-.3-1.51.1-.49.41-.4.9-.24,1.45.38,1.3.92,2.52,1.68,3.63h-.01Z"/>
        <path class="cls-7" d="M184.4,299.12c-6.21.37-11.3,3.25-15.9,7.18-.42.36-.81.77-.6,1.37.21.63.81.61,1.34.65,2.57.23,5-.42,7.38-1.27,8.46-3.02,17.16-3.67,26.04-2.68,2.68.3,5.38.43,8.04-.29.82-.23,1.6-.35,1.61-1.45-1.48-.67-3.13-.72-4.68-1.13-7.62-2.02-15.37-2.84-23.24-2.37h0Z"/>
        <path class="cls-9" d="M201.24,312.09c-.91-.16-1.67.59-1.67,1.59s.58,1.47,1.48,1.52c.95.06,1.43-.55,1.56-1.45-.02-.91-.44-1.51-1.37-1.66h0Z"/>
        <path class="cls-9" d="M313.26,314.1c-1.01.09-1.36.79-1.37,1.64,0,.95.61,1.4,1.45,1.46.93-.04,1.61-.7,1.62-1.51.01-.97-.74-1.67-1.71-1.59h.01Z"/>
        <path class="cls-5" d="M507.11,669.3l.15-.13s-.1.08-.15.13h0Z"/>
        <path class="cls-5" d="M507.11,669.3s.1-.08.15-.13l4.32-3.59-4.49,3.71h.02,0Z"/>
        <path class="cls-5" d="M100.97,564.3c3.9-.68,6.93-2.01,9.14-4.18-2.2,2.17-5.24,3.5-9.14,4.18-15,2.6-29.92,5.6-44.88,8.46h0c14.95-2.86,29.88-5.86,44.88-8.46Z"/>
        <path class="cls-5" d="M114.88,547.48c.32-1.69.64-3.39.91-5.08h0c-.27,1.7-.59,3.39-.91,5.08Z"/>
        <path class="cls-5" d="M116.94,527.88c-.19,1.15-.35,2.31-.4,3.47.05-1.15.21-2.32.4-3.47Z"/>
        <path class="cls-5" d="M115.79,542.4h0c.3-1.86.54-3.72.67-5.6-.13,1.88-.37,3.75-.67,5.6Z"/>
        <path class="cls-5" d="M117.79,524.2c.96-2.52,2.69-3.46,6.28-3.92h.07-.07c-3.59.46-5.32,1.4-6.28,3.92Z"/>
        <path class="cls-5" d="M254.18,594.3s.06-.11.09-.16c-.03.05-.06.1-.09.16h0Z"/>
        <path class="cls-5" d="M255.11,592.74c-.14.24-.28.47-.42.71.14-.24.28-.47.42-.71Z"/>
        <path class="cls-5" d="M255.58,591.93c-.1.17-.2.35-.3.52.1-.17.2-.34.3-.52Z"/>
        <path class="cls-5" d="M267.48,583.76c-.14.03-.27.06-.41.09.14-.03.27-.06.41-.09Z"/>
        <path class="cls-5" d="M264.07,584.61c-.1.03-.21.06-.31.1.1-.03.21-.07.31-.1Z"/>
        <path class="cls-5" d="M267.82,583.69c-.06.01-.12.02-.18.04.06-.01.12-.02.18-.04Z"/>
        <path class="cls-5" d="M335.36,205.45s.08-.03.12-.04c-.04.01-.08.03-.12.04Z"/>
        <path class="cls-5" d="M335.67,205.34s.07-.03.11-.05c-.04.01-.07.03-.11.05Z"/>
        <path class="cls-5" d="M265.72,584.15c-.11.03-.21.05-.32.08.1-.03.21-.05.32-.08Z"/>
        <path class="cls-5" d="M264.61,584.45c-.1.03-.21.06-.31.09.1-.03.21-.06.31-.09Z"/>
        <path class="cls-5" d="M266.89,583.88c-.12.03-.25.05-.37.08.12-.03.24-.05.37-.08Z"/>
        <path class="cls-5" d="M334.7,205.6s.08-.02.12-.02c-.04,0-.08.02-.12.02Z"/>
        <path class="cls-5" d="M335.03,205.54s.08-.02.13-.03c-.04.01-.08.02-.13.03Z"/>
        <path class="cls-5" d="M334.37,205.65s.08-.01.11-.02c-.04,0-.08.01-.11.02Z"/>
        <path class="cls-5" d="M266.3,584.02c-.11.03-.23.05-.34.08.11-.03.23-.05.34-.08Z"/>
        <path class="cls-5" d="M333.41,205.66h-.06c-.3-.02-.6-.04-.9-.05.3.02.6.03.9.05h.06Z"/>
        <path class="cls-5" d="M265.17,584.29c-.1.03-.21.05-.31.08.1-.03.21-.06.31-.08Z"/>
        <path class="cls-5" d="M314.32,498.43h0c-.97.67-1.95,1.33-2.93,1.98h0c.98-.65,1.96-1.31,2.93-1.98Z"/>
        <path class="cls-5" d="M329.72,508.89c-.3,1.13-.55,2.28-.77,3.44-.37,1.94-.65,3.89-.84,5.82h0c.18-1.94.47-3.88.84-5.82.22-1.17.47-2.31.77-3.44Z"/>
        <path class="cls-5" d="M345.61,533.68c.25.38.46.8.63,1.26h0c-.17-.47-.39-.89-.63-1.26Z"/>
        <path class="cls-5" d="M346.62,536.32s-.01-.06-.02-.09c0,.03.01.06.02.09Z"/>
        <path class="cls-5" d="M334.79,528.81c0-.14-.02-.29-.03-.43,0,.14.02.29.03.43Z"/>
        <path class="cls-5" d="M334.75,527.82c0-.13,0-.25-.01-.38,0,.13,0,.25.01.38Z"/>
        <path class="cls-5" d="M346.76,537.03c-.02-.09-.03-.17-.05-.26.02.09.03.17.05.26Z"/>
        <path class="cls-5" d="M346.4,535.43s-.02-.07-.03-.1c0,.03.02.07.03.1Z"/>
        <path class="cls-5" d="M425.25,238.57s-.03.06-.05.09h.06v-.09h-.01Z"/>
        <path class="cls-5" d="M144.85,534.63c.7.32,1.4.63,2.09.95-.7-.32-1.39-.64-2.09-.95Z"/>
        <path class="cls-5" d="M142.25,533.46c.72.32,1.44.64,2.15.96-.72-.32-1.43-.64-2.15-.96Z"/>
        <path class="cls-5" d="M140.03,532.5c.69.29,1.37.59,2.05.89-.68-.3-1.37-.6-2.05-.89Z"/>
        <path class="cls-5" d="M410.8,646.92c3.72.31,7.39.9,11.01,1.7h0c-3.62-.8-7.29-1.39-11.01-1.7Z"/>
        <path class="cls-5" d="M367.3,681.37c.21-.09.42-.18.63-.27-.21.09-.42.18-.63.27Z"/>
        <path class="cls-5" d="M366.58,681.65c.21-.08.42-.16.63-.25-.21.09-.42.17-.63.25Z"/>
        <path class="cls-5" d="M401.87,646.72c-.22,0-.41.02-.57.02.17,0,.36,0,.57-.02.86-.04,1.72-.06,2.58-.06-.86,0-1.71.02-2.58.06Z"/>
        <path class="cls-5" d="M366.36,681.74s.1-.04.15-.05c-1.21.43-2.6.12-3.4-.89-.3-.38-.45-.77-.53-1.17.35,1.92,1.86,2.78,3.78,2.11Z"/>
        <path class="cls-5" d="M368.62,680.81s.03-.01.04-.02c-.01,0-.03.01-.04.02Z"/>
        <path class="cls-4" d="M327.07,103.29c1.24,1.15,2.61,2.15,4.13,2.89,0,0,.02,0,.02.01,1.41.69,2.82,1.38,4.22,2.06,1.91.93,3.82,1.85,5.73,2.77,1.18.56,2.35,1.12,3.53,1.68.07.03.13.06.2.09.17.08.35.16.52.25,1.57.88,3.22,1.61,4.88,2.29,3.46,1.42,6.87,2.98,10.18,4.73,1.99,1.05,3.24,1.43,5.15,2.62l1.41.85s28.25,16.76,34.71,31.15c6.45,14.39,4.82,14.49,8.05,21.32,1.29,2.72,2.1,4.27,2.59,5.14.45.8,1.53,1.84,2.13,2.37,1.57,1.38,1.32,1.85,1.32,1.85h67.23c.63,0,1.26.03,1.89-.01,2.07-.14,3.33-1.22,3.64-3.26.16-1.05.15-1.72.15-2.79,0-23.84.03-45.2,0-69.04l-.04-34.91c0-1.29-.75-2.43-1.88-2.98l-35.45-10.46-122.14-36.03c-5.77-1.7-11.91-1.7-17.68,0L47.3,103.79c-14.28,4.19-24.1,17.42-24.1,32.46v298.9c0,49.59,11.87,96.36,32.9,137.6,14.95-2.86,29.88-5.86,44.88-8.46,3.9-.68,6.93-2.01,9.14-4.18,2.07-2.04,3.4-4.82,4.02-8.49.2-1.19.42-2.37.64-3.55.04-.2.07-.39.11-.59.32-1.69.64-3.39.91-5.08.3-1.86.54-3.72.67-5.6.01-.2.03-.4.04-.6.07-1.2.08-2.41.03-3.63-.02-.4-.01-.81,0-1.22.05-1.15.21-2.32.4-3.47.07-.39.13-.78.2-1.16.15-.84.32-1.57.54-2.2.04-.11.07-.21.11-.31.96-2.52,2.69-3.46,6.28-3.92h.07c.37-.03,1.46-.07,1.71-.11,1.11-.17,2.61-.88,2.73-2.07.97-9.13.94-8.31.97-9.13.26-7.05.45-11.11-.56-15.88-1.1-5.18-3.63-11.21-9.04-22.81-1.75-3.75-3.16-8.18-4.29-12.81-3.67-15-4.4-32.06-4.2-34.66.05-.6-.06-.62-.22-1.2-.42-1.6-2.18-2.04-4.21-2.39l-.77-.14c-1.22-.22-2.47-.31-3.71-.37-.15,0-.29-.02-.43-.03-.14-.01-.28-.02-.41-.03-.12-.01-.24-.03-.37-.04-.13-.01-.27-.03-.4-.04-.12-.01-.24-.03-.36-.05-.13-.02-.26-.03-.39-.05-.12-.02-.23-.04-.35-.06-.13-.02-.25-.04-.38-.06-.11-.02-.23-.04-.34-.07-.12-.02-.24-.05-.36-.07-.11-.02-.22-.05-.33-.08-.12-.03-.24-.05-.35-.08-.11-.03-.22-.06-.32-.09-.11-.03-.23-.06-.34-.09s-.21-.06-.31-.1c-.11-.03-.22-.07-.33-.1-.1-.03-.2-.07-.3-.11-.11-.04-.22-.08-.33-.12-.1-.04-.19-.08-.29-.12s-.21-.08-.31-.13c-.1-.04-.19-.09-.28-.13-.1-.05-.2-.09-.3-.14-.09-.04-.18-.09-.27-.14-.1-.05-.2-.1-.3-.15-.09-.05-.18-.1-.27-.15-.1-.05-.19-.1-.28-.16-.09-.05-.17-.11-.26-.16-.09-.06-.19-.11-.28-.17-.08-.05-.16-.11-.25-.17l-.27-.18c-.08-.06-.16-.12-.24-.18-.09-.07-.17-.13-.26-.2-.08-.06-.15-.12-.22-.18-.09-.07-.17-.14-.25-.21-.07-.06-.14-.13-.21-.19-.08-.08-.17-.15-.25-.23l-.2-.2c-.08-.08-.16-.16-.24-.24-.07-.07-.13-.14-.2-.21-.08-.08-.15-.16-.23-.25-.06-.07-.13-.15-.19-.22-.07-.09-.15-.17-.22-.26-.06-.08-.12-.16-.18-.24-.07-.09-.14-.18-.21-.27-.06-.08-.12-.17-.18-.25-.07-.09-.13-.18-.2-.28-.06-.09-.12-.19-.18-.28s-.12-.18-.18-.28c-.06-.1-.12-.21-.18-.31-.05-.09-.11-.18-.16-.27-.06-.11-.12-.22-.18-.34-.05-.09-.1-.18-.14-.27l-.18-.36c-.04-.09-.09-.18-.13-.27-.06-.14-.13-.28-.19-.42-.03-.08-.07-.15-.1-.23-.08-.18-.15-.36-.22-.55-.02-.04-.04-.08-.05-.13-.09-.23-.17-.46-.26-.69h0c-.17-.49-.33-.98-.48-1.49-.49-1.67-.96-3.34-1.41-5.02s-.87-3.37-1.28-5.06c-.37-1.53-.78-3.04-1.24-4.53-1.35-4.33-3.12-8.46-5.47-12.36-.73-1.21-1.51-2.39-2.35-3.55-.87-1.2-1.65-2.45-2.33-3.76-.68-1.3-1.27-2.66-1.75-4.07-1-2.9-1.67-5.86-1.26-8.93.33-2.49.39-4.98.5-7.48.22-4.9-.66-9.58-2.78-14.04-.66-1.39-1.21-2.8-1.64-4.22-1.11-3.65-1.46-7.38-1.11-11.18.14-1.48.38-2.96.73-4.45.81-3.45.17-6.48-1.84-9.39-1.02-1.47-2-2.97-2.96-4.48s-1.9-3.03-2.85-4.55c-.31-.5-.6-1.01-.87-1.53-.96-1.86-1.64-3.82-2.08-5.9-.18-.84-.3-1.67-.39-2.51-.32-3.17,0-6.32.76-9.43.3-1.23.51-2.45.63-3.64.43-4.49-.48-8.75-2.98-12.8-.28-.46-.57-.91-.83-1.38-.07-.13-.14-.26-.21-.4-.01-.02-.02-.04-.04-.07h0c-.75-1.48-1.42-2.97-1.99-4.46v-.02c-.07-.18-.13-.35-.19-.53,0-.01-.01-.03-.01-.04-.06-.16-.11-.32-.17-.49,0-.03-.02-.06-.03-.08-.05-.15-.1-.3-.15-.45-.01-.04-.03-.08-.04-.12-.05-.14-.09-.29-.13-.43-.01-.05-.03-.09-.04-.14-.04-.14-.08-.28-.12-.42-.01-.05-.03-.1-.04-.15-.04-.14-.07-.27-.11-.41-.01-.05-.03-.11-.04-.16-.03-.13-.06-.27-.09-.4-.01-.06-.03-.12-.04-.18-.03-.13-.05-.25-.08-.38-.01-.07-.03-.14-.04-.2-.03-.12-.05-.25-.07-.37-.01-.07-.03-.14-.04-.21-.02-.11-.04-.23-.06-.34-.01-.08-.03-.16-.04-.24-.02-.11-.03-.22-.05-.33-.01-.08-.03-.17-.04-.25-.01-.11-.03-.22-.04-.34,0-.08-.02-.17-.03-.25-.01-.11-.02-.22-.03-.32,0-.09-.02-.18-.03-.27,0-.1-.01-.21-.02-.31,0-.09-.01-.19-.02-.28,0-.11,0-.21-.01-.32,0-.09,0-.18-.01-.28v-1.37c0-.14,0-.28.01-.42v-.08c.06-1.18.21-2.37.46-3.57,1.49-7.06,5.41-12.14,12.23-14.88.79-.32,1.54-.69,2.26-1.11,2.14-1.26,3.96-2.93,5.64-4.81,3.19-3.55,5.75-7.41,7.78-11.55.02-.04.04-.08.06-.11.12-.24.23-.48.35-.73h0c.09-.2.18-.4.27-.6.02-.05.05-.11.07-.16.07-.16.14-.32.21-.48.04-.09.08-.18.12-.27.06-.13.11-.26.16-.39.05-.12.1-.25.16-.37.07-.16.13-.32.2-.49.04-.09.08-.18.11-.28.08-.22.17-.43.25-.65.02-.04.03-.08.05-.12.09-.25.18-.49.27-.74,0-.01,0-.02.01-.04.75-2.08,1.39-4.21,1.91-6.4.15-.61.3-1.22.45-1.83,2.27-9.11,5.04-18.1,8.12-26.98,2.59-7.48,5.23-14.96,9.62-21.67.71-1.08,1.44-2.15,2.19-3.21,1.92-2.72,3.94-5.35,6.02-7.94.81-1.01,1.63-2.01,2.45-3.01,4.33-5.23,9.35-9.61,15.41-12.83,3.49-1.85,6.66-4.25,9.8-6.65,4.73-3.61,8.91-7.8,13.16-11.92,1.27-1.24,2.62-2.37,4.03-3.38.24-.17.47-.33.71-.5.48-.32.97-.64,1.46-.93s1-.58,1.51-.86c1.28-.68,2.62-1.28,4.01-1.8,6.32-2.35,12.48-5.08,18.62-7.87,4.26-1.94,8.56-3.76,12.95-5.33,4.39-1.57,8.87-2.89,13.49-3.81,4.97-.99,10.02-1.39,15.04-2.03,1.32-.17,2.64-.36,3.95-.58,1.21-.2,2.43-.37,3.64-.5,2.26-.25,4.52-.38,6.78-.4,2.09-.02,4.18.07,6.27.24,3.7.31,7.39.45,11.1.43.53,0,1.06,0,1.59-.02,1.27-.02,2.53-.03,3.8-.04,1.27,0,2.53,0,3.8.03,1.69.03,3.37.08,5.06.17,2.53.13,5.05.35,7.58.67,2.38.3,4.7.75,6.98,1.33.46.12.91.24,1.36.36,4.52,1.26,8.88,3.02,13.12,5.16,1.26.64,2.52,1.29,3.78,1.94,3.41,1.77,6.81,3.56,10.3,5.17,1.1.51,2.25.91,3.33,1.46.04.02.09.05.15.07,3.06,1.38,5.9,3.19,8.35,5.47l6.68,6.22v.03Z"/>
        <g>
          <path class="cls-9" d="M587.13,566.97c-.07-7.1.05-13.87.04-21.08-.01-1.47-.8-2.75-1.97-3.47-.62-.38-1.35-.6-2.14-.61-14.07-.06-18.17,4.44-18.45,4.77,0,.12-.01.24-.02.36v2.83c.02,5.75.03,11.45.05,17.13.03,11.44.07,22.79.1,34.32,0,1.84.01,3.69.02,5.53h0c7.98-11.59,16.06-25.23,22.39-37.93-.01-.62-.01-1.24,0-1.85h-.02Z"/>
          <path class="cls-9" d="M408.04,592.46v22.69c0,6.52-.03,14.53.01,21.05.02,3.16,1.15,4.33,4.17,4.59,0,0,24.72,1.61,61.2,23.91,1.1.68,2.03,2.01,3.57,1.25h0c.29-.14.51-.31.68-.5.73-.82.45-2.02.45-3.07.01-17.06,0-34.12.01-51.18,0-3.82,0-7.65.02-11.47v-4.74c.02-20.69-8.99-40.44-24.87-53.72-4.47-3.74-7.62-5.56-7.62-5.56-17.87-11.67-33.52-11.13-33.52-11.13-2.76-.02-3.95,1.12-4.09,3.82-.04.71-.01,1.43-.01,2.14v61.92h0Z"/>
          <path class="cls-9" d="M556.06,571.29v-42.73c0-2.28-1.9-4.16-4.18-4.01-9.77.64-14.22,1.77-22.53,4.89,0,0-5.65,34.67-43.83,68.73v3.65c0,1.87,0,3.73.01,5.59.04,18.39.02,36.4.02,54.88,0,.54-.03,1.07.01,1.61.2,2.2,1.63,2.87,3.55,1.64.53-.34.99-.77,1.52-1.12,14.65-9.79,26.77-13.63,41.16-18.17,1.08-.82,2.09-1.68,3.02-2.61,7.14-7.51,14.71-15.77,21.06-23.99,0-1.52.08-3.06.22-4.61-.02-12.37-.02-24.75-.02-37.12v-6.64h0Z"/>
          <path class="cls-9" d="M490.6,671.67c-5.36,3.26-10.09,3.42-15.5.14-8.47-5.13-17.09-9.97-26.13-14-1.1-.49-2.2-.97-3.32-1.43-1.45-.6-2.91-1.19-4.38-1.74-2.58-.98-5.16-1.9-7.77-2.76-.48-.16-.96-.32-1.45-.47-3.38-1.08-6.79-2.02-10.24-2.78h0c-3.62-.8-7.29-1.39-11.01-1.7-.42-.04-.84-.07-1.26-.1-1.69-.11-3.38-.17-5.09-.16-.86,0-1.71.02-2.58.06-.22,0-.41.02-.57.02-.5,0-.8-.04-.97-.21-.23-.23-.25-.7-.24-1.6.01-4.91.11-9.82.13-14.72.05-14.28.09-28.56.14-42.84.04-12.76.08-25.53.11-38.29,0-.54-.03-1.07.01-1.61.07-.93-.41-1.34-1.2-1.85-4.68-3.05-12.21-3.81-17.06-3.96-2.55-.08-4.65,1.97-4.65,4.51v26.11c0,28.33-.01,56.65-.01,84.98v.13c0,1.66,1.67,2.81,3.22,2.19,28.96-11.6,70.66,5.11,70.66,5.11,0,0,.07.03.19.07.19.08.37.15.56.23.03.01.06.03.1.04.38.16.76.32,1.15.48.07.03.14.06.2.08,1.68.7,3.35,1.43,5.02,2.19h0c1.87.85,3.8,1.78,5.4,2.64,0,0-8.03-2.51-11.95-3.5-40.17-10.09-66.73-2.86-76.11.62-1.83.68-3.77-.67-3.77-2.62v-2.12c-.01-29.71-.2-56.32-.21-86.02v-.06h0v-2.48c0-1.02-.72-1.9-1.72-2.11l-5.55-1.14c-1.16-.24-2.24.64-2.24,1.82v105.71h0v.42c0,.12.01.24.03.37v.05c.01.09.03.17.04.25.08.4.24.79.53,1.17.79,1.01,2.19,1.31,3.4.89.03,0,.05-.02.08-.03.21-.08.42-.16.63-.25.03-.01.06-.02.09-.04.21-.09.42-.18.63-.27.23-.1.46-.2.69-.3.01,0,.03-.01.04-.02.23-.1.45-.19.68-.28,3.17-1.27,6.37-2.4,9.6-3.4.54-.17,1.08-.33,1.61-.49,13.48-3.97,27.39-5.69,41.54-6.11,12.91-.39,24.52.11,37.16,2.67,5.26,1.07,9.34,2.6,14.4,4.94,6.04,2.79,10.59,3.1,16.53-.19,0,0,5.73-2.46,13.22-5.64.69-.55,1.39-1.1,2.08-1.66h0l.12-.1,1.47-1.22,4.49-3.71c3.99-3.39,7.9-6.88,11.7-10.47.14-.12.25-.24.36-.34l-.02.02c-17.6,6.47-33.03,16.88-33.03,16.88h.02Z"/>
        </g>
        <path class="cls-4" d="M615.96,235.53c-.1-.01-.19-.03-.29-.04h-.03c-.62-.05-1.25-.01-1.88-.01h-54.56c-5.41,0-8.48-.02-13.88,0-3.05.02-4.47,1.39-4.64,4.35-.03.53,0,3.72,0,4.26,0,90.61.01,182.58.02,273.19v2.75c8.62-1.78,15.3-1.31,19.4-.66,2.3.37,3.99,2.37,3.99,4.7v14.18s.81-.33,2.36-.73c3.55-.93,10.96-2.28,21.37-1.11.6.07,1.21.14,1.83.23,2.22.3,3.88,2.23,3.96,4.47l.22,8.64c.01.75.02,1.49.02,2.24v3.39s.38-.7,1.04-2.03c3.29-6.66,15.38-39.84,19.28-69.07,0-.04,0-.08.01-.11,2.47-15.91,3.72-32.26,3.72-49.01v-147.35h0v-49.82c0-1.18-.83-2.2-1.93-2.46h-.01Z"/>
        <path class="cls-4" d="M488.91,240.09c-.03-.74-.12-1.37-.28-1.92-.55-1.94-1.94-2.7-4.62-2.71-20-.01-36.38,0-56.38,0-2.61,0-2.69.03-2.41,2.72.01.12.03.25.04.38v.1c.32,3.27.75,8.71,1.17,11.73.23,1.62.26,3.2.13,4.73-.03.38-.08.76-.13,1.14s-.12.75-.19,1.12c-.11.56-.24,1.11-.4,1.65-.84,2.98-2.31,5.76-4.23,8.34v.03s-2.43,4.45-2.26,10.81c.17,6.37,2.89,10.67-2.97,18.71-5.21,7.16-3.2,13.53-3.2,13.53l-.46-.8c.48,1.66.91,3.46.91,5.96,0,5.04-.81,10.71-5.15,20.54-.99,2.24-2.17,4.71-3.56,7.43-.13.26-.27.53-.41.8-2.01,3.89-3.12,8.18-4.18,12.42-.03.11-.06.22-.08.33-2.43,9.67-8.45,30.63-10.79,40.04,0,.02-.01.04-.02.07-2.03,8.17-3.06,9.86-6.37,17.68-1.5,3.55-3.11,5.02-5.4,7.22-1.71,1.64-3.16,2.42-5.66,2.35-2.67-.08-2.49-.05-3.1,2.8s-1.23,7.58-1.44,10.49c-.05.74-.11,1.47-.18,2.21,0,.06-.01.11-.02.17-.03.3-.06.6-.09.9-.01.12-.03.25-.04.37-.03.23-.05.46-.08.69-.02.15-.04.29-.05.44-.03.21-.05.42-.08.63-.02.16-.04.31-.06.47-.03.2-.05.4-.08.59-.02.16-.05.32-.07.48-.03.19-.06.38-.09.58-.03.16-.05.33-.08.49-.03.19-.06.38-.09.56-.03.17-.06.33-.08.5-.03.19-.06.37-.1.56-.03.17-.06.33-.09.5-.03.19-.07.37-.1.56-.03.17-.06.33-.09.5-.04.18-.07.37-.11.55-.03.17-.07.33-.1.5-.04.19-.08.37-.11.55-.03.17-.07.33-.1.5-.04.19-.08.37-.12.56-.04.16-.07.33-.11.49-.04.19-.09.38-.13.57-.04.16-.07.32-.11.48-.05.2-.1.4-.14.6-.04.15-.07.3-.11.45-.06.26-.13.51-.19.77-.02.09-.04.18-.07.27-.78,3.03-1.68,6-2.69,8.92-3.99,11.43-9.85,21.92-17.95,31.26-4.92,5.67-7.95,12.01-8.87,19.17-.2,1.56-.3,3.15-.29,4.79,0,1.6-.03,3.21-.05,4.81v3.21c0,.12,0,.25.01.37,0,.19,0,.37.02.56,0,.14.02.29.03.43,0,.16.02.33.03.49.12,1.38,1.31,2.44,2.69,2.39,1.18-.04,2.36-.15,3.54-.15h.51c1.83.03,3.16.79,4.04,2.14.25.38.46.8.63,1.26h0c.05.13.09.26.13.39,0,.03.02.07.03.1.04.13.07.26.1.39v.04c.03.12.06.25.08.37,0,.03.01.06.02.09.03.15.06.3.09.45.02.09.03.17.05.26l.03.18c.09.44.18.88.31,1.29,1.44,4.43,2.27,9.01,2.71,13.65.06.67.16,1.31.27,1.92h0c.02.09.04.19.06.28.01.06.02.12.04.18.03.15.07.3.11.44,0,.03.01.05.02.08.04.17.09.34.14.51.01.04.02.08.04.11.04.13.08.25.12.38.02.06.04.11.06.17.04.1.07.21.11.31.02.06.05.12.07.18.04.09.08.19.11.28.03.06.05.12.08.18.04.09.08.18.12.27.03.06.06.12.09.18.04.09.09.17.13.26.03.06.06.11.09.17.05.09.1.17.14.26.03.05.06.11.09.16.05.09.11.18.17.27.03.04.06.09.08.13.08.11.15.23.23.34.01.01.02.03.03.04.09.13.18.25.28.37.03.03.05.06.08.1.07.09.14.17.22.26.04.04.07.08.11.12.06.07.13.14.2.21,0,0,2.47,3.43,9.39,4.44,4.47.65,6.7.71,7.6.69h.27c.17,0,.26-.02.26-.02v-3.15c0-6.34-.02-12.68.02-19.02,0-.34.02-.66.05-.98v-.69c0-1.56.78-2.97,2-3.83.42-.3.9-.53,1.42-.68,11.47-3.28,26.54,1.28,26.54,1.28l-.18-14.89c-.02-1.99,1.41-3.7,3.37-4.02,13.86-2.27,27.85,2.12,27.85,2.12-16.54-30.63,8.39-64.77,11.6-68.96.22-.28.33-.43.33-.43.5-.64.88-1.27,1.14-1.94s.41-1.38.46-2.17c.03-.43.06-.87.09-1.3.16-1.88.4-3.75.67-5.61.91-6.23,2.34-12.3,4.21-18.23l.36-1.11c1.8-5.55,3.99-10.98,6.51-16.32,3.04-6.46,6.5-12.68,10.45-18.61,1.11-1.66,2.25-3.3,3.43-4.92.96-1.31,2.03-2.5,3.42-3.29.32-.18.66-.34,1.02-.48.57-.22,1.13-.33,1.66-.34.38,0,.74.04,1.08.13,1.37.37,2.41,1.5,2.77,3.2.15.71.18,1.43.14,2.14s-.15,1.42-.27,2.12c-.9,5.3-1.21,10.64-1.19,16,0,1.2.01,2.4.04,3.6.05,2.41.17,4.83.46,7.31.14,1.24.33,2.5.57,3.77.16-.14.29-.24.39-.32.07-.05.12-.09.16-.13.06-.06.11-.1.13-.15.07-.16.15-.33.22-.49.26-.57.5-1.14.73-1.73,1.21-3.17,1.96-4.7,2.87-6.31.77-1.46,1.61-2.89,2.49-4.29,1.09-1.94,1.1-7.92,1.1-10.06-.04-49.19.15-98.54.15-147.73,0-.71.04-4.09,0-4.8h.04Z"/>
        <g>
          <path class="cls-4" d="M505.3,456.69c-23.28-22.03-14.14-48.82-14.14-48.82,0,0-15.31,24.69,1.65,48.07,15.67,21.6,39.22,34.96,37.54,61.59,6.69-34.11-7.49-44.24-25.04-60.85h-.01Z"/>
          <path class="cls-2" d="M535.71,493.36c-.2-17.98-9.71-29.5-20-38.87-9.17-8.35-22.18-23.71-24.56-46.62,0,0-9.15,26.79,14.14,48.82,17.55,16.61,31.73,26.73,25.04,60.85,0,0,5.57-6.2,5.37-24.18h.01Z"/>
        </g>
        <g>
          <path class="cls-6" d="M459.79,518.52c-30.82-23.62-12.46-62.18-12.46-62.18,0,0-17.26,23.45-15.03,46.55,1.64,17.01,15.15,24.33,29.24,36.7,12.97,11.38,23.22,34.04,20.95,51.38,6.02-21.77,10.07-47.34-22.7-72.45h0Z"/>
          <path class="cls-11" d="M492.23,548.35c-2.7-26.17-14.81-33.82-24.12-43.92-13.24-14.36-21.18-24.89-20.78-48.09,0,0-18.36,38.56,12.46,62.18,32.77,25.11,28.72,50.69,22.7,72.45,0,0,12.21-18.61,9.74-42.62Z"/>
        </g>
        <g>
          <path class="cls-3" d="M499.18,472.13c.89,1.04,1.79,2.06,2.68,3.08-1.61-1.96-2.68-3.08-2.68-3.08Z"/>
          <path class="cls-4" d="M474.87,416.17c-1.15-16.09.61-29.75.61-29.75,0,0-9.66,10.7-18.55,35.62-7.64,21.39-7.67,43.58,4.06,63.26-18.11-31.39,9.36-64.09,13.88-69.13Z"/>
          <path class="cls-2" d="M517.66,514.21c1.34-16.1-10.36-32.37-15.79-38.99-.89-1.02-1.79-2.05-2.68-3.08h0c-6.37-7.4-12.62-15.29-16.98-24.3-4.58-9.48-6.59-21.1-7.34-31.66-4.52,5.04-31.99,37.74-13.88,69.13,1.94,3.25,4.19,6.43,6.79,9.53,17.15,20.47,26.39,27.85,29.97,48.98.29,1.74.51,3.45.65,5.13,6.66-4.74,17.65-15.37,19.26-34.73h0Z"/>
          <path class="cls-4" d="M492.81,582.42c28.22-29.28,36.14-53.62,30.87-74.78-2.82-11.32-12.16-21.41-21.81-32.43,5.44,6.62,17.14,22.89,15.79,38.99-1.61,19.36-12.6,29.99-19.26,34.73,1.59,18.75-5.59,33.49-5.59,33.49h0Z"/>
        </g>
      </g>
    </g>
  </g>
</svg>