<?xml version="1.0" encoding="UTF-8"?>
<svg id="Capa_2" data-name="Capa 2" xmlns="http://www.w3.org/2000/svg" viewBox="0 0 712.62 634.04">
  <defs>
    <style>
      .cls-1 {
        fill: #4b8046;
      }

      .cls-2 {
        fill: #2c9942;
      }

      .cls-3 {
        fill: #3dae2b;
      }
    </style>
  </defs>
  <g id="Capa_1-2" data-name="Capa 1">
    <g>
      <path class="cls-1" d="M258.8,316.4c-19.59,0-39.17.03-58.76,0-13.08-.03-19.57-10.78-13.31-22.26,5.89-10.81,12.04-21.48,18.09-32.21.4-.71.87-1.4,1.24-2.13q4.03-8.28,11.32-2.93c9.41,6.91,18.82,13.81,28.25,20.69,1.85,1.35,3.71,2.97,6.17,2.66,2.42-.31,4.37-1.65,5.09-4.1.91-3.1-.47-5.36-2.98-7.17-9.58-6.94-19.12-13.95-28.69-20.9q-8.94-6.5-3.33-16.24c4.08-7.13,8.16-14.25,12.09-21.46,1.37-2.5,2.28-3.33,5.04-1.24,11.02,8.31,22.28,16.31,33.44,24.44,6.18,4.5,8.52,11.04,9.58,18.23.29,1.95.77,3.89.84,5.85.16,4.4,2.59,5.68,6.53,5.12,4.1-.59,5.54-3.03,4.88-6.98-.59-3.56-.98-7.17-1.64-10.72-1.52-8.23-5.33-15.08-12.22-20.1-11.82-8.62-23.54-17.37-35.42-25.92-2.47-1.78-2.98-3-1.32-5.86,8.65-14.92,16.99-30.01,25.49-45.02,3.23-5.69,6.12-6.13,10.71-1.53,8.78,8.79,17.44,17.71,26.25,26.48,1.71,1.7,1.99,3.01.56,5.04-2.65,3.76-5.03,7.71-7.51,11.58-2.12,3.32-1.76,6.43,1.56,8.55,3.43,2.19,6.29.76,8.39-2.4,1.81-2.74,3.8-5.41,5.23-8.34,1.81-3.71,3.32-2.86,5.66-.47,10.11,10.36,20.3,20.64,30.59,30.83,2.06,2.05,2.72,4.22,2.72,7.01-.08,27.97-.06,55.94-.08,83.91,0,6.15-1.43,7.55-7.46,7.61q-10.5.1-10.49-10.42c0-10.86-.15-21.72.1-32.58.09-4.3-.99-8.4-1.23-12.62-.16-2.86-2.37-3.6-4.82-3.69-2.4-.1-4.65.3-5.26,3.11-.34,1.59-.41,3.25-.41,4.89-.03,15.14-.19,30.28.1,45.41.09,4.5-.66,6.12-5.72,6.03-19.74-.36-39.5-.15-59.25-.14"/>
      <path class="cls-2" d="M357.82,27.45c0-6.58-.06-13.16.02-19.74.06-5.2,2.78-7.73,8.06-7.71,5.23.01,8.12,2.61,8.16,7.71.11,13.16.06,26.32.13,39.49.02,3.27.29,6.53,4.85,6.35,2.98-.12,4.6-1.59,4.27-4.72-.2-1.96-.42-3.92-.73-5.85-.48-3.02,1.3-6.12,3.25-6.48,2.14-.41,5.59-.56,7.5,2.13,4.48,6.31,7.9,13.23,11.4,20.09,1.24,2.44-.56,4.27-2.36,5.9-4.63,4.2-9.21,8.45-13.76,12.75-3.29,3.11-3.93,7.17-1.31,9.49,3.14,2.79,6.25,2.05,9.16-.75,3.8-3.63,7.9-6.97,11.56-10.75,2.96-3.07,4.85-3.85,6.96.83,1.95,4.32,4.43,8.44,7.07,12.38,2.43,3.61,2.2,6.01-1.22,9.07-12.99,11.6-25.69,23.55-38.49,35.37-1.45,1.34-2.92,2.65-4.33,4.04-2.64,2.61-2.96,5.6-.5,8.33,2.69,3,5.88,2.55,8.75.09,2.74-2.35,5.32-4.89,7.96-7.35,10.74-9.94,21.47-19.88,32.2-29.83,4.14-3.83,4.59-3.74,7.44,1.26,2.43,4.29,4.98,8.51,7.35,12.83,3.25,5.93,2.9,8.37-1.77,13.13-19.36,19.72-38.73,39.43-58.09,59.14-1.73,1.76-3.42,3.55-5.17,5.28-.78.78-1.47,2.06-2.78,1.67-1.64-.49-1.3-2.1-1.31-3.35-.05-7.9-.01-15.79-.06-23.69-.03-5.67-1.72-8.09-5.6-8.2-3.98-.12-6.08,2.71-6.09,8.32-.02,7.4.07,14.81-.04,22.21-.02,1.52.84,3.71-.99,4.47-1.79.74-2.78-1.36-3.86-2.42-17.28-17.15-34.51-34.36-51.74-51.56-3.26-3.26-6.52-6.51-9.77-9.77-5.6-5.6-6.22-9.7-2.37-16.77,2.27-4.19,4.89-8.19,7.05-12.43,1.94-3.81,3.85-3.6,6.71-.93,13.35,12.44,26.83,24.75,40.2,37.18,2.07,1.93,4.21,3.23,7.06,2.49,4.44-1.16,5.68-6.73,1.94-10.23-14.52-13.6-29.04-27.21-43.98-40.34-2.93-2.58-2.88-4.21-1.4-6.87,2.72-4.88,5.58-9.69,8.19-14.62,1.66-3.13,3.31-3.6,5.96-1,3.87,3.8,7.93,7.41,11.94,11.07,4.37,3.99,7.51,4.46,10.25,1.62,2.88-2.99,2.18-6.23-2.37-10.47-3.61-3.36-7.1-6.88-10.95-9.96-4.44-3.55-6.78-6.78-3.02-12.67,3.04-4.78,5.74-9.83,9.09-14.42,1.3-1.76,3.48-3.86,6.05-2.86,3.02,1.18,5.2,3.48,4.86,7.19-.12,1.3-.26,2.6-.5,3.88-.59,3.16-.18,5.74,3.7,6.03,3.73.29,5.46-1.74,5.48-5.32.04-6.91,0-13.82,0-20.73h-.03Z"/>
      <path class="cls-3" d="M427.82,230.68c10.31-4.83,20.25-9.5,30.19-14.16,1.04-.49,2.12-.9,3.11-1.48,2.07-1.21,3.64-2.71,3.49-5.46-.17-2.92-1.85-4.4-4.36-5.32-10.33-3.79-20.65-7.58-30.98-11.39-5.85-2.15-11.67-4.39-17.55-6.46-2.53-.89-3.29-1.89-1.13-4.04,11.9-11.8,23.69-23.72,35.69-35.41,4.56-4.44,6.56-3.91,9.76,1.7,17.23,30.23,34.48,60.44,51.68,90.69,10.62,18.67,21.15,37.4,31.75,56.09,6.51,11.47.67,21.89-12.38,21.93-16.79.05-33.57.02-50.36.01-1.24,0-2.48-.13-3.89-1,4.6-1.44,9.2-2.9,13.8-4.31,6.12-1.88,12.23-3.81,18.39-5.57,3.43-.98,6.32-2.4,6.05-6.54-.25-3.92-3.28-4.89-6.51-5.53-25.28-5-50.55-10.02-76.22-15.11,1.86-2.46,4.6-2.67,6.91-3.46,13.36-4.55,26.75-9.02,40.18-13.37,3.06-1,5.51-2.37,5.62-5.9.1-3.57-2.41-5.1-5.33-6.24-14.23-5.55-28.44-11.14-42.66-16.72-1.65-.65-3.48-.95-5.25-2.95"/>
      <path class="cls-3" d="M438.62,210.43c-10.26,4.86-19.56,9.23-28.83,13.68-3.54,1.7-8.43,2.2-8.25,7.74.18,5.29,4.94,5.58,8.4,6.97,12.79,5.17,25.66,10.14,38.49,15.21,1.14.45,2.53.57,3.43,2.43-8.91,3.01-17.68,6.01-26.47,8.94-8.88,2.96-17.77,5.89-26.67,8.77-3.39,1.1-6.25,2.86-5.86,6.81.36,3.67,3.38,4.85,6.66,5.5,23.51,4.58,47.01,9.21,70.5,13.83,1.59.31,3.14.81,5.72,1.48-15.5,4.67-30.05,8.92-44.49,13.5-4.94,1.57-9.86,2.18-14.99,2.14-14.31-.12-28.62-.03-42.93-.09-4.66-.02-7.44-2.7-7.05-7.24,1.63-18.84.32-37.7.69-56.55.19-9.37.08-18.74,0-28.12-.02-2.43.49-4.48,2.26-6.24,7.43-7.41,14.83-14.86,22.2-22.34,1.61-1.64,3.14-2.69,5.62-1.77,13.46,5.03,26.96,9.97,41.58,15.36"/>
      <path class="cls-2" d="M435.53,412.17c4.48-6.22,8.76-11.53,14.1-15.85,14.99-12.13,32.31-18.12,51.43-18.53,16.37-.35,32.76-.21,49.12.13,11.39.25,22.15,3.3,32.16,8.9,14.76,8.28,20.43,21.45,20.11,37.62-.24,11.68-.51,11.68-12.06,11.67-22-.02-44-.04-66-.08-4.93,0-9.74.61-14.34,2.5-10.42,4.28-13.27,13.26-14.37,23.27-.31,2.91-.18,5.86-.37,8.79-.14,2.19.65,2.96,2.92,2.95,23.34-.11,42-.22,65.34-.13,15.24.06,30.57-1.19,45.63,2.4,10.27,2.45,19.67,6.71,27.46,13.95,9.58,8.9,12.34,20.43,12.11,32.96-.06,3.29-.62,6.56-.82,9.85-.13,2.23-1.24,2.85-3.32,2.82-7.33-.11-14.67-.11-22-.1-42.77.02-80.87.09-123.63,0-3.36,0-4.37.88-4.24,4.25.53,13.62,9.87,25.53,24,30.15,5.72,1.87,11.56,2.86,17.63,2.85,27.74-.09,55.48.11,83.22-.11,12.95-.1,25.89-.17,38.83.23,12.07.37,23.41,3.51,33.84,9.63,15.85,9.3,21.1,23.86,20.24,41.37q-.5,10.05-10.34,10.06c-30.79.06-61.58.19-92.38.19-31.16,0-62.33.45-93.47-.38-32.67-.87-59.62-13.72-78.16-41.66-1.75-2.64-3.22-5.48-4.7-8.28-1.46-2.78-2.79-5.63-4.35-8.83-2.5,5.66-4.5,11.04-7.51,15.95-13.96,22.82-34.89,35.25-60.55,40.59-7.79,1.62-15.71,2.33-23.66,2.37-19.18.12-38.37.08-57.55.29-4.28.05-6.9-1.34-9.01-5.28-7.78-14.52-15.99-28.82-23.94-43.26-1.07-1.94-2.21-2.77-4.53-2.75-42.4.32-84.8.59-127.21.73-3.18,0-4.97.99-6.74,3.68-14.73,22.3-35.79,35.49-61.31,42.18-13.23,3.47-26.66,4.8-40.3,4.19-6.46-.29-8.53-3.97-5.37-9.47,32.96-57.26,65.92-114.52,98.91-171.77,6.04-10.47,11.64-21.21,18.37-31.27,18.28-27.32,44.09-41.01,76.78-41.97,4.88-.14,9.74.04,14.61.78,3.53.54,5.99,1.93,7.77,5.14,10.63,19.24,21.39,38.41,32.1,57.6,21.8,39.02,43.61,78.03,65.36,117.08.9,1.61,1.93,2.23,3.75,2.18,4.15-.12,8.31,0,12.46-.04,7.02-.06,12.42-3.19,16.39-8.86,4.54-6.48,6.93-13.69,7.02-21.62.34-29.2.63-58.41,1.07-87.61.05-3.04-.44-4.25-3.88-4.19-21.62.37-43.26-.41-64.88.47-4.9.2-9.62,1-13.23,5.14-1.86,2.13-2.05-.67-2.32-1.57-2.06-6.59-2.95-13.38-2.42-20.26,1.76-22.88,13.19-35.84,37.25-42.57,7.95-2.22,16.06-2.98,24.28-2.98,32.38.02,64.76,0,97.15,0,6.05,0,7.53,1.52,7.53,7.63,0,8.66,0,17.33,0,26.9M178.35,463.07c-12.73,22.69-25.04,44.63-37.45,66.76h74.84c-12.51-22.34-24.76-44.2-37.38-66.76"/>
    </g>
  </g>
</svg>