<?xml version="1.0" encoding="UTF-8"?>
<svg id="Capa_2" data-name="Capa 2" xmlns="http://www.w3.org/2000/svg" viewBox="0 0 2150.32 724.94">
  <defs>
    <style>
      .cls-1 {
        fill: #f10080;
      }

      .cls-2 {
        fill: none;
      }

      .cls-3 {
        fill: #089fe2;
      }

      .cls-4 {
        fill: #feec02;
      }
    </style>
  </defs>
  <g id="Capa_1-2" data-name="Capa 1">
    <g>
      <g>
        <path d="M546.45,464.29c12.78,4.87,17.05,14.28,16.96,27.68-.33,46.87.79,93.77.02,140.63-.68,41.82-28.97,76.53-69.6,88.12-39.91,11.38-80.97-3.99-104.19-39-23.42-35.32-21.71-79.74,4.33-112.37,26.35-33.02,70.91-44.55,110.92-28.71,3.91,1.55,7.84,3.05,13.91,5.41,0-15.48-.17-29.1.07-42.72.13-7.46-.97-15.83,2.02-22.11,3.19-6.68,10.56-11.37,16.1-16.93,3.15,0,6.31,0,9.46,0ZM468.84,679.65c27.2-.18,50.09-23.53,49.93-50.92-.17-27.77-23.19-50.65-50.5-50.19-28.28.47-49.87,22.56-49.66,50.82.2,27.95,22.7,50.47,50.23,50.29Z"/>
        <path d="M0,483.21c5.3-12.53,15.22-16.6,28.21-16.55,50.01.23,100.03.03,150.04.19,5.02.02,10.32.69,15,2.4,9.7,3.54,13.77,11.26,13.13,21.4-.62,9.68-5.37,17.31-15.02,18.63-13.17,1.79-26.6,1.7-39.93,2.16-7.84.27-15.7.05-25.37.05,0,5.35,0,9.9,0,14.45,0,55.13.06,110.27-.05,165.4-.02,12.04-.6,24.1-14.8,29.09-13.32,4.67-25.89-2.01-28.92-15.8-1-4.55-1.07-9.37-1.08-14.07-.07-54.35-.04-108.69-.05-163.04,0-4.7,0-9.4,0-16.03-17.93,0-35.09-.02-52.26,0-13.75.02-24.78-4.08-28.91-18.82v-9.46Z"/>
        <path d="M1553.66,712.35s-14.4-8.58-25.85-24.24c-5.43-7.43-4.77-17.59,2.77-24.96,7.5-7.33,16.58-6.93,25.2-2.58,5.53,2.79,10.29,7.14,15.33,10.87,11.42,8.44,24.04,12.36,37.66,7.3,4.53-1.68,9.82-6.6,10.76-10.91.69-3.14-4.36-9.28-8.3-11.35-10.4-5.47-21.86-8.89-32.36-14.2-11.14-5.64-23.12-10.91-32.16-19.16-23.68-21.61-20.31-58.98,6.55-76.46,29.52-19.22,60.38-17.75,90.77-1.9,5.54,2.89,10.17,8.8,13.52,14.34,5.39,8.92,2.68,17.53-4.52,24.6-6.81,6.68-14.76,7.56-22.61,2.35-12.95-8.59-27.05-10.68-41.81-7.69-3.97.81-9.5,4.42-10.25,7.67-.76,3.31,2.54,9.16,5.79,11.42,5.67,3.95,12.58,6.19,19.11,8.83,11.65,4.71,23.89,8.22,34.97,13.97,18.36,9.53,29.84,24.64,29.24,46.24-.34,12.04-3.68,22.64-9.87,31.31-6.99,9.79-15.61,14.4-20.7,17.07-27.81,14.56-61.62,9.26-83.27-2.52Z"/>
        <path d="M1781.29,464.29c9.45,4.06,17.39,9.6,17.96,21.04.55,11.08-4.35,18.94-15.01,22.78-28.34,10.21-30.56,13.95-26.25,44.34,11.93,6.75,33.55,1.53,33.74,22.56.19,20.3-15.42,26.41-34.83,26.01,0,9.46,0,17.63,0,25.8-.01,22.86.41,45.74-.18,68.58-.51,19.73-13.36,30.17-29.46,25.19-9.94-3.07-15.01-9.89-15.18-20.07-.47-28.76-1.1-57.52-.8-86.27.1-9.4-1.83-14.86-12.04-16.03-4.09-.47-8.28-2.75-11.77-5.15-11.47-7.87-10.08-27.05,2.66-33.55,5.87-2.99,12.61-4.3,20.54-6.9-1.74-41.61,9.11-76.83,56.42-88.36h14.19Z"/>
        <path d="M2150.32,561.28c-4.55,12.33-13.45,17.81-26.45,20.04-38.6,6.61-53.17,24.64-53.29,63.76-.05,16.93.17,33.86-.07,50.79-.24,16.67-8.78,26.36-22.38,26.08-13.76-.28-22.65-9.91-22.27-26.36.63-27.77-.21-55.91,4.03-83.19,6.61-42.51,45.56-74.03,88.74-76.43,14.77-.82,26.24,3.25,31.69,18.21v7.1Z"/>
        <path d="M1862.24,648.7c11.72,27.44,40.28,38.12,65.83,26.23,3.55-1.65,6.84-3.88,10.26-5.81,13.79-7.78,24.59-6.64,31.51,3.3,8.45,12.15,6.19,23.83-6.56,33.88-53.55,42.19-139.04,8.69-151.55-59.38-9.24-50.29,24.79-101.79,73.71-111.54,52.87-10.54,103.54,21.92,114.79,73.56.42,1.92.8,3.86,1.01,5.8,2.9,27.61-2.79,33.96-30.39,33.97-35.77,0-71.54,0-108.62,0ZM1953.65,610.94c-7.14-22.28-26.34-34.08-50.26-32.38-21.69,1.54-38.12,14.35-40.87,32.38h91.13Z"/>
        <path d="M1245.28,707.85c-27.61,18-56.47,21.7-86.92,9.47-41.26-16.58-65.47-60.43-58.14-105.38,7.03-43.17,45.83-76.45,91.24-78.28,44-1.77,85.47,26.19,93.57,67.61,5,25.56,3.27,52.44,4.34,78.74.24,5.88-.65,11.8-.65,17.7,0,12.54-7.35,19.79-18.04,23.6-10.19,3.63-17.31-2.04-22.85-10.14-.67-.97-1.43-1.88-2.54-3.32ZM1194.65,679.64c26.73.18,50.17-23.47,50.31-50.75.13-27.34-22.91-50.3-50.54-50.35-27.2-.05-49.63,22.04-50.11,49.35-.49,28.11,22.32,51.56,50.35,51.75Z"/>
        <path d="M357.42,629.16c.06,52.33-42.35,95.29-94.01,95.24-53.56-.06-97.23-43.74-96.96-97.01.25-49.78,44.15-93.63,93.87-93.76,55.59-.14,97.04,40.63,97.1,95.53ZM312.89,628.81c-.28-27.91-22.87-50.39-50.51-50.28-27.73.11-50.26,22.84-50.14,50.58.12,27.46,23.39,50.8,50.38,50.54,27.21-.27,50.54-23.85,50.28-50.83Z"/>
        <path d="M782.91,628.59c.05,52.62-41.02,95.28-92.22,95.79-54.25.54-98.7-42.4-98.5-95.16.2-52.73,43.02-95.61,95.45-95.59,53.68.02,95.22,41.43,95.27,94.95ZM688.29,679.64c27.07.02,49.85-23.24,49.87-50.93.02-27.84-22.42-50.2-50.37-50.18-27.7.02-50.02,22.73-49.8,50.67.22,27.71,22.86,50.42,50.3,50.44Z"/>
        <path d="M1506.77,658.69c0,12.6.27,25.21-.06,37.81-.5,19.18-9.48,28.75-25.81,28.19-15.65-.54-23.84-10.33-23.88-28.72-.05-21.66.49-43.34-.26-64.98-.3-8.85-1.92-18.18-5.34-26.28-6.9-16.36-27.44-26.68-43.63-23.54-20.38,3.95-35.25,19.98-35.66,39.84-.52,24.8.18,49.63-.32,74.43-.41,20.4-10.22,30.39-27.3,29.24-12.49-.84-22.35-9.1-22.36-21.59-.02-32.6-1.34-65.5,2.41-97.75,5.17-44.47,43.81-74.33,90.84-74.68,42.44-.32,82.49,32.73,89.05,75.06,2.7,17.39,2.26,35.27,3.25,52.93-.31.02-.62.03-.94.05Z"/>
        <path d="M875.06,511.48c-18.89,0-36.53.28-54.15-.08-16.64-.34-25.76-7.88-26.49-20.95-.79-14.22,8.15-23.15,24.76-23.57,18.12-.45,36.26-.13,54.39-.13,33.9,0,67.8-.26,101.69.11,20.51.22,31.4,17.01,22.15,33.35-5.38,9.52-14.78,11-24.5,11.23-8.67.2-17.34.05-26.01.05-8.25,0-16.51,0-26.78,0v14.16c0,54,.02,108-.03,162,0,4.72.03,9.5-.73,14.13-2.22,13.57-10.82,20.81-23.35,20.15-12.33-.65-20.6-9.04-20.8-22.75-.4-27.98-.15-55.97-.15-83.96,0-33.88,0-67.76,0-103.76Z"/>
        <path d="M971.32,664.26c0-12.95-1.16-26.03.2-38.84,5.43-51.11,45.2-87.65,96.26-89.39,16.01-.54,24.41,5.92,25.48,19.61,1.14,14.6-5.68,22.73-20.64,24.63-38.21,4.84-55.54,23.13-57.44,61.87-.88,18.06-.3,36.19-.47,54.29-.16,16.47-7.69,25.38-21.36,25.49-14.1.11-22.41-9.21-22.69-25.8-.18-10.62-.03-21.25-.03-31.88.23,0,.46,0,.69,0Z"/>
      </g>
      <g>
        <path class="cls-2" d="M1058,251.34c-.66-8.91-1.18-19.99-1.13-32.86h0c-.05-.74-.08-1.5-.08-2.26v-72.94c-5.29,9.95-15.76,16.72-27.81,16.72h-114.68v56.22c0,1.05-.05,2.09-.15,3.12-.02,1.08-.03,2.23-.03,3.45,0,6.15.02,13.54,1.1,22.6.48,4.04,1.31,9.56,2.82,16.08,0,0,0,0,0,0,.52,2.21.83,4.5.91,6.85.97,3.59,2.35,7.5,4.35,11.56,7.02,14.26,17.59,22.19,22.83,25.6,6.56,4.23,18.35,10.62,34.44,13.24,17.82,2.9,32.3-.25,40-2.51,5.18-1.6,11.38-3.96,18.05-7.5,6.58-3.49,11.95-7.25,16.15-10.61.02.04.04.08.05.12,3.6-2.71,7.83-4.62,12.41-5.54-2.1-5.62-3.63-10.7-4.75-14.92-2.75-8.43-3.71-16-4.48-26.43Z"/>
        <path class="cls-1" d="M1054.81,298.23s-.04-.08-.05-.12c-4.2,3.36-9.57,7.12-16.15,10.61-6.67,3.54-12.86,5.9-18.05,7.5-7.7,2.26-22.18,5.41-40,2.51-16.09-2.61-27.88-9.01-34.44-13.24-5.24-3.42-15.82-11.35-22.83-25.6-1.99-4.05-3.38-7.96-4.35-11.56.01.39.04.78.04,1.18,0,19.11-15.49,34.6-34.6,34.6-13.24,0-24.75-7.45-30.56-18.38,0,0,0,0,0,0,4.01,15.93,9.88,27.2,11.68,30.54,3.48,6.47,10.37,17.91,22.04,29.59,13.63,13.64,26.83,20.59,35.06,24.91,10.72,5.63,27.57,12.88,49.36,16.15,22.31,3.34,40.92,1.19,52.93-1.15,8.38-1.3,20.21-4.1,33.1-10.61,10.43-5.27,18.38-11.35,23.99-16.38,2.72-1.83,5.8-4.25,8.85-7.44,2.94-3.08,5.24-6.23,7.05-9.23-15.96-16.68-25.22-34.88-30.65-49.41-4.58.92-8.81,2.83-12.41,5.54Z"/>
        <path class="cls-3" d="M1028.97,90.82h-114.68v-56.22c0-19.11-15.49-34.6-34.6-34.6h0c-19.11,0-34.6,15.49-34.6,34.6v181.63c0,.76.03,1.51.08,2.26h0c-.05,12.87.48,23.95,1.13,32.86.77,10.43,1.73,18.01,4.48,26.43.68,2.79,1.7,5.44,3.02,7.92,0,.01.01.03.02.04,0,0,0,0,0,0,5.81,10.93,17.32,18.38,30.56,18.38,19.11,0,34.6-15.49,34.6-34.6,0-.4-.02-.78-.04-1.18-.08-2.35-.39-4.64-.91-6.85,0,0,0,0,0,0-1.51-6.52-2.34-12.04-2.82-16.08-1.08-9.07-1.1-16.45-1.1-22.6,0-1.22.01-2.37.03-3.45.09-1.03.15-2.07.15-3.12v-56.22h114.68c12.05,0,22.52-6.77,27.81-16.72v-35.75c-5.29-9.95-15.76-16.72-27.81-16.72Z"/>
        <path d="M1287.33,292.08c-6.93,0-13.32,2.29-18.46,6.16-.02-.04-.04-.08-.05-.12-4.2,3.36-9.57,7.12-16.15,10.61-6.67,3.54-12.86,5.9-18.05,7.5-7.7,2.26-22.18,5.41-40,2.51-16.09-2.61-27.88-9.01-34.44-13.24-6.26-4.61-15.55-12.77-22.83-25.6-3.84-6.76-6.17-13.15-7.62-18.41.61,2.58.95,5.26.95,8.03,0,18.58-14.65,33.74-33.02,34.56-.52.02-1.05.04-1.57.04-10.39,0-19.69-4.59-26.03-11.84-1.74-1.99-3.28-4.18-4.53-6.53,0,0,0,0,0,0,0-.01-.01-.03-.02-.04-1.31-2.48-2.33-5.13-3.02-7.92,1.12,4.22,2.65,9.3,4.75,14.92,5.43,14.53,14.69,32.73,30.65,49.41,1.2,1.26,2.44,2.51,3.72,3.75,3.04,2.94,15.49,14.64,35.06,24.91,10.72,5.63,27.57,12.88,49.36,16.15,22.31,3.34,40.92,1.19,52.93-1.15,8.38-1.3,20.21-4.1,33.1-10.61,10.43-5.27,18.38-11.35,23.99-16.38,2.72-1.83,5.8-4.25,8.85-7.44,1.92-2.01,6.32-6.94,9.84-14.48.94-2.01,1.59-3.73,2.02-4.93.89-2.87,1.36-5.92,1.36-9.08,0-16.99-13.77-30.77-30.77-30.77Z"/>
        <path class="cls-4" d="M1240.66,90.82h-114.68v-56.22c0-19.11-15.49-34.6-34.6-34.6h0c-19.11,0-34.6,15.49-34.6,34.6v181.63c0,.76.03,1.51.08,2.26h0c-.05,12.87.48,23.95,1.13,32.86.77,10.43,1.73,18.01,4.48,26.43.68,2.79,1.7,5.44,3.02,7.92,0,.01.01.03.02.04,0,0,0,0,0,0,1.25,2.36,2.79,4.54,4.53,6.53,6.34,7.25,15.64,11.84,26.03,11.84.53,0,1.05-.02,1.57-.04,18.38-.82,33.02-15.98,33.02-34.56,0-2.76-.33-5.45-.95-8.03,0,0,0,0,0,0-1.51-6.52-2.34-12.04-2.82-16.08-1.08-9.07-1.1-16.45-1.1-22.6,0-1.22.01-2.37.03-3.45.09-1.03.15-2.07.15-3.12v-56.22h114.68c17.39,0,31.49-14.1,31.49-31.49v-6.22c0-17.39-14.1-31.49-31.49-31.49Z"/>
      </g>
    </g>
  </g>
</svg>